<?xml version="1.0" encoding="UTF-8"?>
<svg width="1280px" height="900px" viewBox="0 0 1280 900" version="1.1" xmlns="http://www.w3.org/2000/svg" xmlns:xlink="http://www.w3.org/1999/xlink">
    <title>hidden nav copy 6</title>
    <defs>
        <rect id="path-1" x="0" y="0" width="1280" height="72"></rect>
        <filter x="-0.5%" y="-6.9%" width="101.1%" height="119.4%" filterUnits="objectBoundingBox" id="filter-2">
            <feOffset dx="0" dy="2" in="SourceAlpha" result="shadowOffsetOuter1"></feOffset>
            <feGaussianBlur stdDeviation="2" in="shadowOffsetOuter1" result="shadowBlurOuter1"></feGaussianBlur>
            <feColorMatrix values="0 0 0 0 0.815686275   0 0 0 0 0.815686275   0 0 0 0 0.815686275  0 0 0 1 0" type="matrix" in="shadowBlurOuter1"></feColorMatrix>
        </filter>
        <path d="M814,72 L1108,72 L1108,832 C1108,833.104569 1107.10457,834 1106,834 L816,834 C814.895431,834 814,833.104569 814,832 L814,72 L814,72 Z" id="path-3"></path>
        <filter x="-2.4%" y="-0.7%" width="104.8%" height="101.8%" filterUnits="objectBoundingBox" id="filter-4">
            <feOffset dx="0" dy="2" in="SourceAlpha" result="shadowOffsetOuter1"></feOffset>
            <feGaussianBlur stdDeviation="2" in="shadowOffsetOuter1" result="shadowBlurOuter1"></feGaussianBlur>
            <feColorMatrix values="0 0 0 0 0.2   0 0 0 0 0.2   0 0 0 0 0.2  0 0 0 0.5 0" type="matrix" in="shadowBlurOuter1"></feColorMatrix>
        </filter>
    </defs>
    <g id="hidden-nav-copy-6" stroke="none" stroke-width="1" fill="none" fill-rule="evenodd">
        <rect fill="#FFFFFF" x="0" y="0" width="1280" height="900"></rect>
        <g id="nav">
            <g id="Rectangle-Copy-2" fill-rule="nonzero">
                <use fill="black" fill-opacity="1" filter="url(#filter-2)" xlink:href="#path-1"></use>
                <use fill="#FFFFFF" xlink:href="#path-1"></use>
            </g>
            <polygon id="Line" fill="#049FD9" fill-rule="nonzero" points="1089 72 1089 68 1109 68 1109 72"></polygon>
            <text id="IoT-Center" font-family=".AppleSystemUIFont" font-size="19" font-weight="normal" fill="#049FD9">
                <tspan x="150" y="42">IoT Center</tspan>
            </text>
            <text id="Cisco" font-family="CiscoSans-Bold, Cisco Sans" font-size="20" font-weight="bold" fill="#049FD9">
                <tspan x="88" y="43">Cisco</tspan>
            </text>
            <g id="Group-3" transform="translate(1090, 26)">
                <g id="alerts-and-notifications/alert_20w" fill="#9E9EA2" fill-rule="nonzero">
                    <g id="alert_20">
                        <path d="M9,19.0009 C7.835,19.0009 6.881,18.1259 6.735,16.9999 L11.265,16.9999 C11.119,18.1259 10.165,19.0009 9,19.0009 M9,-0.0001 C6.239,-0.0001 4,2.2379 4,4.9999 L4,5.1929 C4,5.9089 3.763,6.6189 3.342,7.1819 L0.867,10.2579 C0.308,11.0029 0,11.9269 0,12.8569 L0,15.8609 C0,16.4889 0.511,16.9999 1.139,16.9999 L5.735,16.9999 C5.887,18.6779 7.284,20.0009 9,20.0009 C10.716,20.0009 12.113,18.6779 12.265,16.9999 L16.861,16.9999 C17.489,16.9999 18,16.4889 18,15.8609 L18,12.8569 C18,11.9269 17.692,11.0029 17.133,10.2579 L14.666,7.1919 C14.237,6.6189 14,5.9089 14,5.1929 L14,4.9999 C14,2.2379 11.761,-0.0001 9,-0.0001 M9,0.9999 C11.206,0.9999 13,2.7949 13,4.9999 L13,5.1929 C13,6.1229 13.308,7.0469 13.887,7.8189 L16.333,10.8579 C16.763,11.4309 17,12.1409 17,12.8569 L17,15.8609 C17,15.9369 16.937,15.9999 16.861,15.9999 L12.403,15.9999 L11.265,15.9999 L6.735,15.9999 L5.597,15.9999 L1.139,15.9999 C1.063,15.9999 1,15.9369 1,15.8609 L1,12.8569 C1,12.1409 1.237,11.4309 1.646,10.8849 L4.143,7.7799 C4.696,7.0419 5,6.1229 5,5.1929 L5,4.9999 C5,2.7949 6.794,0.9999 9,0.9999" id="fill"></path>
                    </g>
                </g>
                <g id="help" transform="translate(130, 0)">
                    <circle id="Oval" stroke="#9E9EA2" cx="10" cy="10" r="10"></circle>
                    <circle id="Oval" stroke="#979797" cx="10" cy="9" r="4"></circle>
                    <path d="M3.5,17 C4.96662432,14.3333333 7.13329099,13 10,13 C12.866709,13 15.1778133,14.3333333 16.9333128,17" id="Line-2" stroke="#979797" stroke-linecap="square"></path>
                </g>
                <g id="help" transform="translate(86, 0)">
                    <circle id="Oval" stroke="#9E9EA2" cx="10" cy="10" r="10"></circle>
                    <g id="?" transform="translate(6, 1)" fill="#9E9EA2" font-family="Avenir-Black, Avenir" font-size="15" font-weight="700">
                        <text>
                            <tspan x="0" y="15">?</tspan>
                        </text>
                    </g>
                </g>
                <g id="Group" transform="translate(42, 0)" stroke="#979797">
                    <rect id="Rectangle" x="0.5" y="0.5" width="19" height="19" rx="2"></rect>
                    <line x1="3.5" y1="3.5" x2="16.5" y2="3.5" id="Line-3" stroke-linecap="round"></line>
                    <line x1="3.5" y1="7.5" x2="16.5" y2="7.5" id="Line-3-Copy" stroke-linecap="round"></line>
                    <line x1="3.5" y1="11.5" x2="16.5" y2="11.5" id="Line-3-Copy-2" stroke-linecap="round"></line>
                    <line x1="3.5" y1="15.5" x2="16.5" y2="15.5" id="Line-3-Copy-3" stroke-linecap="round"></line>
                </g>
            </g>
            <g id="Group-5" transform="translate(43, 27)">
                <rect id="Rectangle" x="0" y="0" width="18" height="18"></rect>
                <g id="Group-2" transform="translate(0, 3)" fill="#009FD9">
                    <rect id="Rectangle" x="0" y="10" width="18" height="2"></rect>
                    <rect id="Rectangle-Copy" x="0" y="0" width="18" height="2"></rect>
                    <rect id="Rectangle-Copy-2" x="0" y="5" width="18" height="2"></rect>
                </g>
            </g>
        </g>
        <g id="Rectangle">
            <use fill="black" fill-opacity="1" filter="url(#filter-4)" xlink:href="#path-3"></use>
            <use fill="#FFFFFF" fill-rule="evenodd" xlink:href="#path-3"></use>
        </g>
        <rect id="Rectangle" fill-opacity="0.0988308566" fill="#049FD9" x="814" y="115" width="294" height="67"></rect>
        <rect id="Rectangle-Copy" fill-opacity="0.0988308566" fill="#049FD9" x="814" y="182" width="294" height="67"></rect>
        <text id="View-More" font-family="CiscoSans, Cisco Sans" font-size="14" font-weight="normal" letter-spacing="0.500000083" fill="#00A2DF">
            <tspan x="838" y="815">View More </tspan>
        </text>
        <line x1="814" y1="182" x2="1108" y2="182" id="Line-3" stroke="#CCCCCC" opacity="0.5" stroke-linecap="square"></line>
        <line x1="814" y1="517" x2="1108" y2="517" id="Line-3-Copy-6" stroke="#CCCCCC" opacity="0.5" stroke-linecap="square"></line>
        <line x1="814" y1="115" x2="1108" y2="115" id="Line-3-Copy-5" stroke="#CCCCCC" opacity="0.229999989" stroke-linecap="square"></line>
        <line x1="814" y1="249" x2="1108" y2="249" id="Line-3-Copy" stroke="#CCCCCC" opacity="0.5" stroke-linecap="square"></line>
        <line x1="814" y1="584" x2="1108" y2="584" id="Line-3-Copy-7" stroke="#CCCCCC" opacity="0.5" stroke-linecap="square"></line>
        <line x1="814" y1="316" x2="1108" y2="316" id="Line-3-Copy-2" stroke="#CCCCCC" opacity="0.5" stroke-linecap="square"></line>
        <line x1="814" y1="651" x2="1108" y2="651" id="Line-3-Copy-8" stroke="#CCCCCC" opacity="0.5" stroke-linecap="square"></line>
        <line x1="814" y1="383" x2="1108" y2="383" id="Line-3-Copy-3" stroke="#CCCCCC" opacity="0.5" stroke-linecap="square"></line>
        <line x1="814" y1="718" x2="1108" y2="718" id="Line-3-Copy-9" stroke="#CCCCCC" opacity="0.5" stroke-linecap="square"></line>
        <line x1="814" y1="450" x2="1108" y2="450" id="Line-3-Copy-4" stroke="#CCCCCC" opacity="0.5" stroke-linecap="square"></line>
        <line x1="814" y1="785" x2="1108" y2="785" id="Line-3-Copy-10" stroke="#CCCCCC" opacity="0.5" stroke-linecap="square"></line>
        <text id="6-Gateways-Down" font-family="CiscoSans, Cisco Sans" font-size="14" font-weight="normal" letter-spacing="0.500000083">
            <tspan x="861" y="141" fill="#049FD9">6 Gateways</tspan>
            <tspan x="942.146001" y="141" fill="#333333"> Down</tspan>
        </text>
        <text id="20-Gateways-Down" font-family="CiscoSans, Cisco Sans" font-size="14" font-weight="normal" letter-spacing="0.500000083">
            <tspan x="861" y="476" fill="#049FD9">20 Gateways</tspan>
            <tspan x="951.046001" y="476" fill="#333333"> Down</tspan>
        </text>
        <text id="Firmware-Update-Avai" font-family="CiscoSans, Cisco Sans" font-size="14" font-weight="normal" letter-spacing="0.500000083">
            <tspan x="838" y="208" fill="#049FD9">Firmware Update</tspan>
            <tspan x="957.136001" y="208" fill="#333333"> Available</tspan>
        </text>
        <text id="Firmware-Update-Avai-Copy" font-family="CiscoSans, Cisco Sans" font-size="14" font-weight="normal" letter-spacing="0.500000083">
            <tspan x="838" y="543" fill="#049FD9">Firmware Update</tspan>
            <tspan x="957.136001" y="543" fill="#333333"> Available</tspan>
        </text>
        <text id="Gateway-5-Onboarded" font-family="CiscoSans, Cisco Sans" font-size="14" font-weight="normal" letter-spacing="0.500000083">
            <tspan x="838" y="275" fill="#049FD9">Gateway 5</tspan>
            <tspan x="911.492001" y="275" fill="#333333"> Onboarded</tspan>
        </text>
        <text id="Sabrina-claimed-20-G" font-family="CiscoSans, Cisco Sans" font-size="14" font-weight="normal" letter-spacing="0.500000083">
            <tspan x="838" y="610" fill="#049FD9">Sabrina </tspan>
            <tspan x="895.494001" y="610" fill="#333333">claimed</tspan>
            <tspan x="949.940001" y="610" fill="#049FD9"> 20 Gateways </tspan>
        </text>
        <text id="Gateway-10-Onboarded" font-family="CiscoSans, Cisco Sans" font-size="14" font-weight="normal" letter-spacing="0.500000083">
            <tspan x="838" y="342" fill="#049FD9">Gateway 10</tspan>
            <tspan x="920.392001" y="342" fill="#333333"> Onboarded</tspan>
        </text>
        <text id="Gateway-10-Onboarded-Copy" font-family="CiscoSans, Cisco Sans" font-size="14" font-weight="normal" letter-spacing="0.500000083">
            <tspan x="838" y="677" fill="#049FD9">Gateway 10</tspan>
            <tspan x="920.392001" y="677" fill="#333333"> Onboarded</tspan>
        </text>
        <text id="Gateway-1-Onboarded" font-family="CiscoSans, Cisco Sans" font-size="14" font-weight="normal" letter-spacing="0.500000083">
            <tspan x="838" y="409" fill="#049FD9">Gateway 1</tspan>
            <tspan x="911.492001" y="409" fill="#333333"> Onboarded</tspan>
        </text>
        <text id="Gateway-1-Onboarded-Copy" font-family="CiscoSans, Cisco Sans" font-size="14" font-weight="normal" letter-spacing="0.500000083">
            <tspan x="838" y="744" fill="#049FD9">Gateway 1</tspan>
            <tspan x="911.492001" y="744" fill="#333333"> Onboarded</tspan>
        </text>
        <text id="5-Min-Ago" opacity="0.400000006" font-family="CiscoSans, Cisco Sans" font-size="14" font-weight="normal" letter-spacing="0.500000083" fill="#333333">
            <tspan x="838" y="165">5 Min Ago</tspan>
        </text>
        <text id="1-Hr-Ago" opacity="0.400000006" font-family="CiscoSans, Cisco Sans" font-size="14" font-weight="normal" letter-spacing="0.500000083" fill="#333333">
            <tspan x="838" y="500">1 Hr Ago</tspan>
        </text>
        <text id="1-Hr-Ago" opacity="0.400000006" font-family="CiscoSans, Cisco Sans" font-size="14" font-weight="normal" letter-spacing="0.500000083" fill="#333333">
            <tspan x="838" y="232">1 Hr Ago</tspan>
        </text>
        <text id="1-Hr-Ago-Copy" opacity="0.400000006" font-family="CiscoSans, Cisco Sans" font-size="14" font-weight="normal" letter-spacing="0.500000083" fill="#333333">
            <tspan x="838" y="567">1 Hr Ago</tspan>
        </text>
        <text id="1-Hr-Ago" opacity="0.400000006" font-family="CiscoSans, Cisco Sans" font-size="14" font-weight="normal" letter-spacing="0.500000083" fill="#333333">
            <tspan x="838" y="299">1 Hr Ago</tspan>
        </text>
        <text id="1-Hr-Ago-Copy-2" opacity="0.400000006" font-family="CiscoSans, Cisco Sans" font-size="14" font-weight="normal" letter-spacing="0.500000083" fill="#333333">
            <tspan x="838" y="634">1 Hr Ago</tspan>
        </text>
        <text id="1-Hr-Ago" opacity="0.400000006" font-family="CiscoSans, Cisco Sans" font-size="14" font-weight="normal" letter-spacing="0.500000083" fill="#333333">
            <tspan x="838" y="366">1 Hr Ago</tspan>
        </text>
        <text id="1-Hr-Ago-Copy-3" opacity="0.400000006" font-family="CiscoSans, Cisco Sans" font-size="14" font-weight="normal" letter-spacing="0.500000083" fill="#333333">
            <tspan x="838" y="701">1 Hr Ago</tspan>
        </text>
        <text id="1-Hr-Ago" opacity="0.400000006" font-family="CiscoSans, Cisco Sans" font-size="14" font-weight="normal" letter-spacing="0.500000083" fill="#333333">
            <tspan x="838" y="433">1 Hr Ago</tspan>
        </text>
        <text id="1-Hr-Ago-Copy-4" opacity="0.400000006" font-family="CiscoSans, Cisco Sans" font-size="14" font-weight="normal" letter-spacing="0.500000083" fill="#333333">
            <tspan x="838" y="768">1 Hr Ago</tspan>
        </text>
        <text id="NOTIFICATIONS" opacity="0.5" font-family=".AppleSystemUIFont" font-size="12" font-weight="normal" line-spacing="18" letter-spacing="0.4999999" fill="#333333">
            <tspan x="838" y="97">NOTIFICATIONS</tspan>
        </text>
        <g id="Alarms/Critical-Alarm-Icon" transform="translate(835.5101, 126.0101)">
            <polygon id="Polygon" fill="#D93B21" transform="translate(10.4899, 10.4899) rotate(23) translate(-10.4899, -10.4899)" points="10.4898879 2.48988786 16.1467421 4.83303361 18.4898879 10.4898879 16.1467421 16.1467421 10.4898879 18.4898879 4.83303361 16.1467421 2.48988786 10.4898879 4.83303361 4.83303361"></polygon>
            <line x1="6.88988786" y1="6.88988786" x2="14.0898879" y2="14.0898879" id="Line" stroke="#FFFFFF" stroke-linecap="square"></line>
            <line x1="6.88988786" y1="6.88988786" x2="14.0898879" y2="14.0898879" id="Line-Copy" stroke="#FFFFFF" stroke-linecap="square" transform="translate(10.4899, 10.4899) scale(-1, 1) translate(-10.4899, -10.4899)"></line>
        </g>
        <g id="Alarms/Critical-Alarm-Icon-Copy-2" transform="translate(605.5101, 171.5101)">
            <polygon id="Polygon" fill="#D93B21" transform="translate(10.4899, 10.4899) rotate(23) translate(-10.4899, -10.4899)" points="10.4898879 2.48988786 16.1467421 4.83303361 18.4898879 10.4898879 16.1467421 16.1467421 10.4898879 18.4898879 4.83303361 16.1467421 2.48988786 10.4898879 4.83303361 4.83303361"></polygon>
            <line x1="6.88988786" y1="6.88988786" x2="14.0898879" y2="14.0898879" id="Line" stroke="#FFFFFF" stroke-linecap="square"></line>
            <line x1="6.88988786" y1="6.88988786" x2="14.0898879" y2="14.0898879" id="Line-Copy" stroke="#FFFFFF" stroke-linecap="square" transform="translate(10.4899, 10.4899) scale(-1, 1) translate(-10.4899, -10.4899)"></line>
        </g>
        <g id="Alarms/Critical-Alarm-Icon-Copy" transform="translate(835.5101, 461.0101)">
            <polygon id="Polygon" fill="#D93B21" transform="translate(10.4899, 10.4899) rotate(23) translate(-10.4899, -10.4899)" points="10.4898879 2.48988786 16.1467421 4.83303361 18.4898879 10.4898879 16.1467421 16.1467421 10.4898879 18.4898879 4.83303361 16.1467421 2.48988786 10.4898879 4.83303361 4.83303361"></polygon>
            <line x1="6.88988786" y1="6.88988786" x2="14.0898879" y2="14.0898879" id="Line" stroke="#FFFFFF" stroke-linecap="square"></line>
            <line x1="6.88988786" y1="6.88988786" x2="14.0898879" y2="14.0898879" id="Line-Copy" stroke="#FFFFFF" stroke-linecap="square" transform="translate(10.4899, 10.4899) scale(-1, 1) translate(-10.4899, -10.4899)"></line>
        </g>
        <circle id="Oval" stroke="#979797" fill="#FF0000" cx="1109" cy="22" r="12"></circle>
        <text id="2" font-family="HelveticaNeue-Medium, Helvetica Neue" font-size="12" font-weight="400" letter-spacing="0.5" fill="#FFFFFF">
            <tspan x="1105.414" y="26">2</tspan>
        </text>
        <g id="Alarms/Major-Alarm-Icon" transform="translate(641, 176)">
            <path d="M7.89442719,1.78885438 L13.2763932,12.5527864 C13.5233825,13.0467649 13.3231581,13.6474379 12.8291796,13.8944272 C12.6903242,13.9638549 12.5372111,14 12.381966,14 L1.61803399,14 C1.06574924,14 0.618033989,13.5522847 0.618033989,13 C0.618033989,12.8447549 0.654179081,12.6916418 0.723606798,12.5527864 L6.10557281,1.78885438 C6.35256206,1.29487588 6.9532351,1.09465154 7.4472136,1.34164079 C7.640741,1.43840449 7.79766349,1.59532698 7.89442719,1.78885438 Z" id="Triangle" fill="#EE7B30" transform="translate(7, 7) scale(1, -1) translate(-7, -7)"></path>
            <circle id="Oval-Copy-2" fill="#FFFFFF" cx="7" cy="9" r="1"></circle>
            <ellipse id="Oval-Copy-3" fill="#FFFFFF" cx="7" cy="4" rx="1" ry="3"></ellipse>
        </g>
        <g id="Alarms/Minor-Alarm-Icon" transform="translate(674, 175)">
            <path d="M7.89442719,1.78885438 L13.2763932,12.5527864 C13.5233825,13.0467649 13.3231581,13.6474379 12.8291796,13.8944272 C12.6903242,13.9638549 12.5372111,14 12.381966,14 L1.61803399,14 C1.06574924,14 0.618033989,13.5522847 0.618033989,13 C0.618033989,12.8447549 0.654179081,12.6916418 0.723606798,12.5527864 L6.10557281,1.78885438 C6.35256206,1.29487588 6.9532351,1.09465154 7.4472136,1.34164079 C7.640741,1.43840449 7.79766349,1.59532698 7.89442719,1.78885438 Z" id="Triangle-Copy" fill="#F7CE46"></path>
            <circle id="Oval" fill="#FFFFFF" cx="7" cy="12" r="1"></circle>
            <ellipse id="Oval-Copy" fill="#FFFFFF" cx="7" cy="7" rx="1" ry="3"></ellipse>
        </g>
        <text id="View-Previous-Notifi" font-family="HelveticaNeue-Medium, Helvetica Neue" font-size="12" font-weight="400" letter-spacing="0.5" fill="#333333">
            <tspan x="585.068" y="253">View Previous Notifications</tspan>
        </text>
        <text id="Maybe-hide-seen-noti" font-family="HelveticaNeue-Medium, Helvetica Neue" font-size="12" font-weight="400" letter-spacing="0.5" fill="#333333">
            <tspan x="577.074" y="306">Maybe hide seen notifications</tspan>
        </text>
    </g>
</svg>