<?xml version="1.0" encoding="UTF-8"?>
<svg width="1280px" height="900px" viewBox="0 0 1280 900" version="1.1" xmlns="http://www.w3.org/2000/svg" xmlns:xlink="http://www.w3.org/1999/xlink">
    <title>hidden nav</title>
    <defs>
        <rect id="path-1" x="0" y="0" width="1280" height="72"></rect>
        <filter x="-0.5%" y="-6.9%" width="101.1%" height="119.4%" filterUnits="objectBoundingBox" id="filter-2">
            <feOffset dx="0" dy="2" in="SourceAlpha" result="shadowOffsetOuter1"></feOffset>
            <feGaussianBlur stdDeviation="2" in="shadowOffsetOuter1" result="shadowBlurOuter1"></feGaussianBlur>
            <feColorMatrix values="0 0 0 0 0.815686275   0 0 0 0 0.815686275   0 0 0 0 0.815686275  0 0 0 1 0" type="matrix" in="shadowBlurOuter1"></feColorMatrix>
        </filter>
        <path d="M814,72 L1108,72 L1108,491 C1108,492.104569 1107.10457,493 1106,493 L816,493 C814.895431,493 814,492.104569 814,491 L814,72 L814,72 Z" id="path-3"></path>
        <filter x="-2.4%" y="-1.2%" width="104.8%" height="103.3%" filterUnits="objectBoundingBox" id="filter-4">
            <feOffset dx="0" dy="2" in="SourceAlpha" result="shadowOffsetOuter1"></feOffset>
            <feGaussianBlur stdDeviation="2" in="shadowOffsetOuter1" result="shadowBlurOuter1"></feGaussianBlur>
            <feColorMatrix values="0 0 0 0 0.2   0 0 0 0 0.2   0 0 0 0 0.2  0 0 0 0.5 0" type="matrix" in="shadowBlurOuter1"></feColorMatrix>
        </filter>
    </defs>
    <g id="hidden-nav" stroke="none" stroke-width="1" fill="none" fill-rule="evenodd">
        <g id="Group-4">
            <g id="Rectangle-Copy-2" fill-rule="nonzero">
                <use fill="black" fill-opacity="1" filter="url(#filter-2)" xlink:href="#path-1"></use>
                <use fill="#FFFFFF" xlink:href="#path-1"></use>
            </g>
            <text id="IoT-Center" font-family=".AppleSystemUIFont" font-size="19" font-weight="normal" fill="#049FD9">
                <tspan x="150" y="42">IoT Center</tspan>
            </text>
            <text id="Cisco" font-family="CiscoSans-Bold, Cisco Sans" font-size="20" font-weight="bold" fill="#049FD9">
                <tspan x="88" y="43">Cisco</tspan>
            </text>
            <g id="Group-3" transform="translate(1090, 26)">
                <g id="alerts-and-notifications/alert_20w" fill="#9E9EA2" fill-rule="nonzero">
                    <g id="alert_20">
                        <path d="M9,19.0009 C7.835,19.0009 6.881,18.1259 6.735,16.9999 L11.265,16.9999 C11.119,18.1259 10.165,19.0009 9,19.0009 M9,-0.0001 C6.239,-0.0001 4,2.2379 4,4.9999 L4,5.1929 C4,5.9089 3.763,6.6189 3.342,7.1819 L0.867,10.2579 C0.308,11.0029 0,11.9269 0,12.8569 L0,15.8609 C0,16.4889 0.511,16.9999 1.139,16.9999 L5.735,16.9999 C5.887,18.6779 7.284,20.0009 9,20.0009 C10.716,20.0009 12.113,18.6779 12.265,16.9999 L16.861,16.9999 C17.489,16.9999 18,16.4889 18,15.8609 L18,12.8569 C18,11.9269 17.692,11.0029 17.133,10.2579 L14.666,7.1919 C14.237,6.6189 14,5.9089 14,5.1929 L14,4.9999 C14,2.2379 11.761,-0.0001 9,-0.0001 M9,0.9999 C11.206,0.9999 13,2.7949 13,4.9999 L13,5.1929 C13,6.1229 13.308,7.0469 13.887,7.8189 L16.333,10.8579 C16.763,11.4309 17,12.1409 17,12.8569 L17,15.8609 C17,15.9369 16.937,15.9999 16.861,15.9999 L12.403,15.9999 L11.265,15.9999 L6.735,15.9999 L5.597,15.9999 L1.139,15.9999 C1.063,15.9999 1,15.9369 1,15.8609 L1,12.8569 C1,12.1409 1.237,11.4309 1.646,10.8849 L4.143,7.7799 C4.696,7.0419 5,6.1229 5,5.1929 L5,4.9999 C5,2.7949 6.794,0.9999 9,0.9999" id="fill"></path>
                    </g>
                </g>
                <g id="help" transform="translate(130, 0)">
                    <circle id="Oval" stroke="#9E9EA2" cx="10" cy="10" r="10"></circle>
                    <circle id="Oval" stroke="#979797" cx="10" cy="9" r="4"></circle>
                    <path d="M3.5,17 C4.96662432,14.3333333 7.13329099,13 10,13 C12.866709,13 15.1778133,14.3333333 16.9333128,17" id="Line-2" stroke="#979797" stroke-linecap="square"></path>
                </g>
                <g id="help" transform="translate(86, 0)">
                    <circle id="Oval" stroke="#9E9EA2" cx="10" cy="10" r="10"></circle>
                    <g id="?" transform="translate(6, 1)" fill="#9E9EA2" font-family="Avenir-Black, Avenir" font-size="15" font-weight="700">
                        <text>
                            <tspan x="0" y="15">?</tspan>
                        </text>
                    </g>
                </g>
                <g id="Group" transform="translate(42, 0)" stroke="#979797">
                    <rect id="Rectangle" x="0.5" y="0.5" width="19" height="19" rx="2"></rect>
                    <line x1="3.5" y1="3.5" x2="16.5" y2="3.5" id="Line-3" stroke-linecap="round"></line>
                    <line x1="3.5" y1="7.5" x2="16.5" y2="7.5" id="Line-3-Copy" stroke-linecap="round"></line>
                    <line x1="3.5" y1="11.5" x2="16.5" y2="11.5" id="Line-3-Copy-2" stroke-linecap="round"></line>
                    <line x1="3.5" y1="15.5" x2="16.5" y2="15.5" id="Line-3-Copy-3" stroke-linecap="round"></line>
                </g>
            </g>
        </g>
        <g id="Group-5" transform="translate(43, 27)">
            <rect id="Rectangle" x="0" y="0" width="18" height="18"></rect>
            <g id="Group-2" transform="translate(0, 3)" fill="#009FD9">
                <rect id="Rectangle" x="0" y="10" width="18" height="2"></rect>
                <rect id="Rectangle-Copy" x="0" y="0" width="18" height="2"></rect>
                <rect id="Rectangle-Copy-2" x="0" y="5" width="18" height="2"></rect>
            </g>
        </g>
        <g id="Rectangle">
            <use fill="black" fill-opacity="1" filter="url(#filter-4)" xlink:href="#path-3"></use>
            <use fill="#FFFFFF" fill-rule="evenodd" xlink:href="#path-3"></use>
        </g>
        <polygon id="Line" fill="#049FD9" fill-rule="nonzero" points="1090 72 1090 68 1108 68 1108 72"></polygon>
        <text id="View-More-Notificati" font-family="CiscoSans, Cisco Sans" font-size="14" font-weight="normal" letter-spacing="0.500000083" fill="#00A2DF">
            <tspan x="838" y="476">View More Notifications</tspan>
        </text>
        <line x1="814" y1="182" x2="1108" y2="182" id="Line-3" stroke="#CCCCCC" stroke-linecap="square"></line>
        <line x1="814" y1="115" x2="1108" y2="115" id="Line-3-Copy-5" stroke="#CCCCCC" stroke-linecap="square"></line>
        <line x1="814" y1="249" x2="1108" y2="249" id="Line-3-Copy" stroke="#CCCCCC" stroke-linecap="square"></line>
        <line x1="814" y1="316" x2="1108" y2="316" id="Line-3-Copy-2" stroke="#CCCCCC" stroke-linecap="square"></line>
        <line x1="814" y1="383" x2="1108" y2="383" id="Line-3-Copy-3" stroke="#CCCCCC" stroke-linecap="square"></line>
        <line x1="814" y1="450" x2="1108" y2="450" id="Line-3-Copy-4" stroke="#CCCCCC" stroke-linecap="square"></line>
        <text id="Firmware-Update-Avai" font-family="CiscoSans, Cisco Sans" font-size="14" font-weight="normal" letter-spacing="0.500000083" fill="#00A5E5">
            <tspan x="838" y="153">Firmware Update Available</tspan>
        </text>
        <text id="1-Hr" opacity="0.400000006" font-family="CiscoSans, Cisco Sans" font-size="14" font-weight="normal" letter-spacing="0.500000083" fill="#333333">
            <tspan x="1054.518" y="153">1 Hr</tspan>
        </text>
        <text id="1-Hr-Copy" opacity="0.400000006" font-family="CiscoSans, Cisco Sans" font-size="14" font-weight="normal" letter-spacing="0.500000083" fill="#333333">
            <tspan x="1054.518" y="220">1 Hr</tspan>
        </text>
        <text id="2-Hrs" opacity="0.400000006" font-family="CiscoSans, Cisco Sans" font-size="14" font-weight="normal" letter-spacing="0.500000083" fill="#333333">
            <tspan x="1046.864" y="287">2 Hrs</tspan>
        </text>
        <text id="2-Hrs-Copy" opacity="0.400000006" font-family="CiscoSans, Cisco Sans" font-size="14" font-weight="normal" letter-spacing="0.500000083" fill="#333333">
            <tspan x="1046.864" y="354">2 Hrs</tspan>
        </text>
        <text id="5-Hrs" opacity="0.400000006" font-family="CiscoSans, Cisco Sans" font-size="14" font-weight="normal" letter-spacing="0.500000083" fill="#333333">
            <tspan x="1046.864" y="421">5 Hrs</tspan>
        </text>
        <text id="Gateway-4-Down-Copy" font-family="CiscoSans, Cisco Sans" font-size="14" font-weight="normal" letter-spacing="0.500000083" fill="#00A5E5">
            <tspan x="838" y="220">Gateway 4 Down</tspan>
        </text>
        <text id="Gateway-1-Down" font-family="CiscoSans, Cisco Sans" font-size="14" font-weight="normal" letter-spacing="0.500000083" fill="#333333">
            <tspan x="838" y="287">Gateway 1 Down</tspan>
        </text>
        <text id="Gateway-2-Down" font-family="CiscoSans, Cisco Sans" font-size="14" font-weight="normal" letter-spacing="0.500000083" fill="#00A5E5">
            <tspan x="838" y="354">Gateway 2 Down</tspan>
        </text>
        <text id="Gateway-8-Down" font-family="CiscoSans, Cisco Sans" font-size="14" font-weight="normal" letter-spacing="0.500000083" fill="#333333">
            <tspan x="838" y="421">Gateway 8 Down</tspan>
        </text>
        <text id="NOTIFICATIONS" opacity="0.5" font-family=".AppleSystemUIFont" font-size="12" font-weight="normal" line-spacing="18" letter-spacing="0.4999999" fill="#333333">
            <tspan x="838" y="97">NOTIFICATIONS</tspan>
        </text>
    </g>
</svg>