<?xml version="1.0" encoding="UTF-8"?>
<svg width="1280px" height="900px" viewBox="0 0 1280 900" version="1.1" xmlns="http://www.w3.org/2000/svg" xmlns:xlink="http://www.w3.org/1999/xlink">
    <title>notifications page</title>
    <defs>
        <polygon id="path-1" points="0 0.000272 0 16.636472 16.9998267 16.636472 16.9998267 0.000272 1.84314369e-20 0.000272"></polygon>
        <rect id="path-3" x="0" y="0" width="1280" height="72"></rect>
        <filter x="-0.5%" y="-6.9%" width="101.1%" height="119.4%" filterUnits="objectBoundingBox" id="filter-4">
            <feOffset dx="0" dy="2" in="SourceAlpha" result="shadowOffsetOuter1"></feOffset>
            <feGaussianBlur stdDeviation="2" in="shadowOffsetOuter1" result="shadowBlurOuter1"></feGaussianBlur>
            <feColorMatrix values="0 0 0 0 0.815686275   0 0 0 0 0.815686275   0 0 0 0 0.815686275  0 0 0 1 0" type="matrix" in="shadowBlurOuter1"></feColorMatrix>
        </filter>
        <polygon id="path-5" points="0 1 300 1 300 0 0 0"></polygon>
    </defs>
    <g id="notifications-page" stroke="none" stroke-width="1" fill="none" fill-rule="evenodd">
        <rect fill="#FFFFFF" x="0" y="0" width="1280" height="900"></rect>
        <g id="Group-5" transform="translate(40, 204)">
            <text id="Filter" font-family="CiscoSans, Cisco Sans" font-size="14" font-weight="normal" line-spacing="21" letter-spacing="0.5" fill="#049FD9">
                <tspan x="22" y="14">Filter</tspan>
            </text>
            <g id="Page-1" transform="translate(0, 2)">
                <mask id="mask-2" fill="white">
                    <use xlink:href="#path-1"></use>
                </mask>
                <g id="Clip-2"></g>
                <path d="M9.929564,6.590152 C9.865644,6.654072 9.830284,6.740432 9.830284,6.830872 L9.830284,15.466192 L7.170124,12.760472 L7.170124,6.830872 C7.170124,6.740432 7.134764,6.654072 7.070844,6.590152 L1.160284,0.680272 L15.838764,0.680272 L9.929564,6.590152 Z M16.973684,0.209712 C16.921324,0.083232 16.797564,0.000272 16.659524,0.000272 L0.339524,0.000272 C0.202164,0.000272 0.078404,0.083232 0.026044,0.209712 C-0.026996,0.336872 0.002244,0.483752 0.099484,0.580312 L6.490124,6.971632 L6.490124,12.899872 C6.490124,12.988952 6.525484,13.074632 6.588044,13.138552 L9.927524,16.535152 C9.992804,16.601792 10.080524,16.636472 10.170284,16.636472 C10.213124,16.636472 10.256644,16.628992 10.298804,16.611312 C10.425964,16.558952 10.510284,16.435192 10.510284,16.296472 L10.510284,6.971632 L16.900244,0.580312 C16.997484,0.483752 17.026724,0.336872 16.973684,0.209712 L16.973684,0.209712 Z" id="Fill-1" fill="#049FD9" mask="url(#mask-2)"></path>
            </g>
        </g>
        <line x1="40" y1="248.5" x2="1240" y2="248.5" id="Line-Copy-82" stroke="#E9E9E9" stroke-width="2" stroke-linecap="square"></line>
        <line x1="40" y1="410.667047" x2="1240" y2="410.667047" id="Line-4-Copy-3" stroke="#E9E9E9" stroke-width="2" stroke-linecap="square"></line>
        <text id="Gateway-100-Down" font-family=".AppleSystemUIFont" font-size="16" font-weight="normal" letter-spacing="1.333333" fill="#333333">
            <tspan x="40" y="288">Gateway 100 Down</tspan>
        </text>
        <text id="7/8/2019-10:12:20" font-family="CiscoSans, Cisco Sans" font-size="14" font-weight="normal" letter-spacing="1.16666637" fill="#333333">
            <tspan x="40" y="349">7/8/2019 10:12:20</tspan>
        </text>
        <text id="Smart-Account-creden" font-family=".AppleSystemUIFont" font-size="14" font-weight="normal" letter-spacing="1.16666637" fill="#333333">
            <tspan x="40" y="317">Smart Account credentials are not configured or access has been revoked for the configured smart credentials. </tspan>
        </text>
        <line x1="40" y1="571.667047" x2="1240" y2="571.667047" id="Line-4-Copy-3" stroke="#E9E9E9" stroke-width="2" stroke-linecap="square"></line>
        <line x1="40" y1="701.667047" x2="1240" y2="701.667047" id="Line-4-Copy-4" stroke="#E9E9E9" stroke-width="2" stroke-linecap="square"></line>
        <line x1="40" y1="831.667047" x2="1240" y2="831.667047" id="Line-4-Copy-5" stroke="#E9E9E9" stroke-width="2" stroke-linecap="square"></line>
        <text id="Firmware-Update-Avai" font-family=".AppleSystemUIFont" font-size="16" font-weight="normal" letter-spacing="1.333333" fill="#333333">
            <tspan x="40" y="449">Firmware Update Available</tspan>
        </text>
        <text id="IOx-Image-update-ava" font-family=".AppleSystemUIFont" font-size="16" font-weight="normal" letter-spacing="1.333333" fill="#333333">
            <tspan x="40" y="611">IOx Image update available</tspan>
        </text>
        <text id="320-Gateways-Onboard" font-family=".AppleSystemUIFont" font-size="16" font-weight="normal" letter-spacing="1.333333" fill="#333333">
            <tspan x="40" y="741">320 Gateways Onboarded</tspan>
        </text>
        <text id="7/8/2019-10:12:20" font-family="CiscoSans, Cisco Sans" font-size="14" font-weight="normal" letter-spacing="1.16666637" fill="#333333">
            <tspan x="40" y="510">7/8/2019 10:12:20</tspan>
        </text>
        <text id="7/8/2019-10:12:20-copy" font-family="CiscoSans, Cisco Sans" font-size="14" font-weight="normal" letter-spacing="1.16666637" fill="#333333">
            <tspan x="40" y="672">7/8/2019 10:12:20</tspan>
        </text>
        <text id="7/8/2019-10:12:20-copy-2" font-family="CiscoSans, Cisco Sans" font-size="14" font-weight="normal" letter-spacing="1.16666637" fill="#333333">
            <tspan x="40" y="802">7/8/2019 10:12:20</tspan>
        </text>
        <text id="Smart-Account-creden" font-family=".AppleSystemUIFont" font-size="14" font-weight="normal" letter-spacing="1.16666637" fill="#333333">
            <tspan x="40" y="478">Smart Account credentials are not configured or access has been revoked for the configured smart credentials. </tspan>
        </text>
        <text id="Smart-Account-creden-Copy" font-family=".AppleSystemUIFont" font-size="14" font-weight="normal" letter-spacing="1.16666637" fill="#333333">
            <tspan x="40" y="640">Smart Account credentials are not configured or access has been revoked for the configured smart credentials. </tspan>
        </text>
        <text id="Smart-Account-creden-Copy-2" font-family=".AppleSystemUIFont" font-size="14" font-weight="normal" letter-spacing="1.16666637" fill="#333333">
            <tspan x="40" y="770">Smart Account credentials are not configured or access has been revoked for the configured smart credentials. </tspan>
        </text>
        <text id="My-Notifications" font-family=".AppleSystemUIFont" font-size="24" font-weight="normal" line-spacing="30" letter-spacing="0.670000017" fill="#333333">
            <tspan x="40" y="113">My Notifications</tspan>
        </text>
        <g id="nav">
            <g id="Rectangle-Copy-2" fill-rule="nonzero">
                <use fill="black" fill-opacity="1" filter="url(#filter-4)" xlink:href="#path-3"></use>
                <use fill="#FFFFFF" xlink:href="#path-3"></use>
            </g>
            <g id="alerts" transform="translate(1045, 20)">
                <path d="M9.5210092,5.50284817 C9.95463572,5.358306 10.4434032,5.37918677 10.8845311,5.59975069 C11.2301749,5.77257263 11.5104417,6.0528394 11.6832637,6.39848329 L19.5723274,22.1766108 C19.7928913,22.6177386 19.8137721,23.1065061 19.6692299,23.5401326 C19.5246878,23.9737592 19.2147226,24.3522447 18.7735948,24.5728086 C18.5255962,24.6968079 18.2521331,24.7613638 17.9748622,24.7613638 L2.19673469,24.7613638 C1.70353878,24.7613638 1.25703367,24.5614567 0.933827552,24.2382505 C0.610621429,23.9150444 0.410714286,23.4685393 0.410714286,22.9753434 C0.410714286,22.6980725 0.475270157,22.4246094 0.599269477,22.1766108 L8.48833323,6.39848329 C8.70889715,5.95735546 9.08738268,5.64739034 9.5210092,5.50284817 Z" id="Triangle-Copy" stroke="#979797" stroke-width="0.821428571"></path>
                <g id="Group-2" transform="translate(8.6423, 10.2852)" stroke="#979797" stroke-width="0.657142857">
                    <circle id="Oval" cx="1.30782345" cy="10.4625876" r="1.30782345"></circle>
                    <ellipse id="Oval-Copy" cx="1.30782345" cy="3.92347034" rx="1.30782345" ry="3.92347034"></ellipse>
                </g>
                <g id="Group-6" transform="translate(9, 0)">
                    <rect id="Rectangle" fill="#BF3030" x="0" y="0" width="34" height="18" rx="9"></rect>
                    <text id="36" font-family="HelveticaNeue-Medium, Helvetica Neue" font-size="12" font-weight="400" letter-spacing="0.5" fill="#FFFFFF">
                        <tspan x="9.828" y="13">36</tspan>
                    </text>
                </g>
            </g>
            <polygon id="Line" fill="#049FD9" fill-rule="nonzero" points="1089 72 1089 68 1109 68 1109 72"></polygon>
            <g id="Group-3" transform="translate(1090, 26)">
                <g id="alerts-and-notifications/alert_20w" fill="#9E9EA2" fill-rule="nonzero">
                    <g id="alert_20">
                        <path d="M9,19.0009 C7.835,19.0009 6.881,18.1259 6.735,16.9999 L11.265,16.9999 C11.119,18.1259 10.165,19.0009 9,19.0009 M9,-0.0001 C6.239,-0.0001 4,2.2379 4,4.9999 L4,5.1929 C4,5.9089 3.763,6.6189 3.342,7.1819 L0.867,10.2579 C0.308,11.0029 0,11.9269 0,12.8569 L0,15.8609 C0,16.4889 0.511,16.9999 1.139,16.9999 L5.735,16.9999 C5.887,18.6779 7.284,20.0009 9,20.0009 C10.716,20.0009 12.113,18.6779 12.265,16.9999 L16.861,16.9999 C17.489,16.9999 18,16.4889 18,15.8609 L18,12.8569 C18,11.9269 17.692,11.0029 17.133,10.2579 L14.666,7.1919 C14.237,6.6189 14,5.9089 14,5.1929 L14,4.9999 C14,2.2379 11.761,-0.0001 9,-0.0001 M9,0.9999 C11.206,0.9999 13,2.7949 13,4.9999 L13,5.1929 C13,6.1229 13.308,7.0469 13.887,7.8189 L16.333,10.8579 C16.763,11.4309 17,12.1409 17,12.8569 L17,15.8609 C17,15.9369 16.937,15.9999 16.861,15.9999 L12.403,15.9999 L11.265,15.9999 L6.735,15.9999 L5.597,15.9999 L1.139,15.9999 C1.063,15.9999 1,15.9369 1,15.8609 L1,12.8569 C1,12.1409 1.237,11.4309 1.646,10.8849 L4.143,7.7799 C4.696,7.0419 5,6.1229 5,5.1929 L5,4.9999 C5,2.7949 6.794,0.9999 9,0.9999" id="fill"></path>
                    </g>
                </g>
                <g id="help" transform="translate(130, 0)">
                    <circle id="Oval" stroke="#9E9EA2" cx="10" cy="10" r="10"></circle>
                    <circle id="Oval" stroke="#979797" cx="10" cy="9" r="4"></circle>
                    <path d="M3.5,17 C4.96662432,14.3333333 7.13329099,13 10,13 C12.866709,13 15.1778133,14.3333333 16.9333128,17" id="Line-2" stroke="#979797" stroke-linecap="square"></path>
                </g>
                <g id="help" transform="translate(86, 0)">
                    <circle id="Oval" stroke="#9E9EA2" cx="10" cy="10" r="10"></circle>
                    <g id="?" transform="translate(6, 1)" fill="#9E9EA2" font-family="Avenir-Black, Avenir" font-size="15" font-weight="700">
                        <text>
                            <tspan x="0" y="15">?</tspan>
                        </text>
                    </g>
                </g>
                <g id="Group" transform="translate(42, 0)" stroke="#979797">
                    <rect id="Rectangle" x="0.5" y="0.5" width="19" height="19" rx="2"></rect>
                    <line x1="3.5" y1="3.5" x2="16.5" y2="3.5" id="Line-3" stroke-linecap="round"></line>
                    <line x1="3.5" y1="7.5" x2="16.5" y2="7.5" id="Line-3-Copy" stroke-linecap="round"></line>
                    <line x1="3.5" y1="11.5" x2="16.5" y2="11.5" id="Line-3-Copy-2" stroke-linecap="round"></line>
                    <line x1="3.5" y1="15.5" x2="16.5" y2="15.5" id="Line-3-Copy-3" stroke-linecap="round"></line>
                </g>
            </g>
            <g id="Group-5" transform="translate(43, 27)">
                <rect id="Rectangle" x="0" y="0" width="18" height="18"></rect>
                <g id="Group-2" transform="translate(0, 3)" fill="#009FD9">
                    <rect id="Rectangle" x="0" y="10" width="18" height="2"></rect>
                    <rect id="Rectangle-Copy" x="0" y="0" width="18" height="2"></rect>
                    <rect id="Rectangle-Copy-2" x="0" y="5" width="18" height="2"></rect>
                </g>
            </g>
        </g>
        <g id="Group-3" transform="translate(40, 362)">
            <rect id="Rectangle-18-Copy-19" stroke="#049FD9" x="0.5" y="0.5" width="109" height="23" rx="2"></rect>
            <text id="Configurations" font-family=".AppleSystemUIFont" font-size="12" font-weight="normal" line-spacing="18" letter-spacing="0.5" fill="#049FD9">
                <tspan x="14.8222656" y="15">Troubleshoot</tspan>
            </text>
        </g>
        <g id="Group-3" transform="translate(40, 523)">
            <rect id="Rectangle-18-Copy-19" stroke="#049FD9" x="0.5" y="0.5" width="109" height="23" rx="2"></rect>
            <text id="Configurations" font-family=".AppleSystemUIFont" font-size="12" font-weight="normal" line-spacing="18" letter-spacing="0.5" fill="#049FD9">
                <tspan x="17.6396484" y="15">Update Now</tspan>
            </text>
        </g>
        <text id="Time-FIlter" font-family="CiscoSans, Cisco Sans" font-size="14" font-weight="normal" fill="#292929">
            <tspan x="40" y="166">Time FIlter</tspan>
        </text>
        <g id="Toggles-/-Text-/-Default" transform="translate(133, 144)">
            <path d="M213.5,0.5 L213.5,35.5 L4,35.5 C3.03350169,35.5 2.15850169,35.1082492 1.52512627,34.4748737 C0.891750844,33.8414983 0.5,32.9664983 0.5,32 L0.5,4 C0.5,3.03350169 0.891750844,2.15850169 1.52512627,1.52512627 C2.15850169,0.891750844 3.03350169,0.5 4,0.5 L213.5,0.5 Z" id="Rectangle-Copy-7" stroke="#333333"></path>
            <rect id="Rectangle-Copy-7" stroke="#333333" x="0.5" y="0.5" width="319" height="35" rx="4"></rect>
            <path d="M4,0 L105.995101,0 L105.995101,0 L105.995101,36 L4,36 C1.790861,36 7.10542736e-15,34.209139 7.10542736e-15,32 L7.10542736e-15,4 C7.10542736e-15,1.790861 1.790861,4.4408921e-16 4,0 Z" id="Rectangle-Copy-8" fill="#049FD9"></path>
            <text id="Scheduled" font-family="CiscoSans, Cisco Sans" font-size="14" font-weight="normal" line-spacing="20" letter-spacing="0.5" fill="#333333">
                <tspan x="123" y="22">Last 3 Days</tspan>
            </text>
            <text id="Completed" font-family="CiscoSans, Cisco Sans" font-size="14" font-weight="normal" line-spacing="20" letter-spacing="0.5" fill="#333333">
                <tspan x="228" y="22">Last Week</tspan>
            </text>
            <text id="In-Progress" font-family="CiscoSans, Cisco Sans" font-size="14" font-weight="normal" line-spacing="20" letter-spacing="0.5" fill="#FFFFFF">
                <tspan x="13" y="22">Last 24 Hrs</tspan>
            </text>
        </g>
        <g id="refresh" transform="translate(130, 204)">
            <text id="Refresh" font-family="CiscoSans, Cisco Sans" font-size="14" font-weight="normal" line-spacing="21" fill="#049FD9">
                <tspan x="28" y="14">Refresh</tspan>
            </text>
            <g id="Group-2" transform="translate(10, 11) scale(-1, 1) translate(-10, -11)translate(0, 3)" stroke="#049FD9">
                <polyline id="Fill-1-Copy-46" transform="translate(17.0245, 9.6435) rotate(-523) translate(-17.0245, -9.6435)" points="19.5244947 7.64353877 17.0244947 11.6435388 14.5244947 7.64353877"></polyline>
                <polyline id="Fill-1-Copy-47" transform="translate(3.0245, 6.6435) rotate(-343) translate(-3.0245, -6.6435)" points="5.5244947 4.64353877 3.0244947 8.64353877 0.524494701 4.64353877"></polyline>
                <path d="M3,11.8169788 C4.26223422,14.3087528 6.72189658,16 9.54944141,16 L9.54944141,16 C13.6642713,16 17,12.418278 17,8 M17,4.23406314 C15.7479249,1.7143713 13.2785491,0 10.4369424,0 C6.32963251,0 3,3.581722 3,8" id="Oval-2"></path>
            </g>
        </g>
        <text id="Last-updated:-10-min" font-family=".AppleSystemUIFont" font-size="12" font-weight="normal" line-spacing="18" letter-spacing="0.4999999" fill="#A7A9AB">
            <tspan x="225" y="218">Last updated: 10 mins </tspan>
            <tspan x="225" y="236">ago</tspan>
        </text>
        <line x1="113.5" y1="225" x2="113.5" y2="205" id="Line-2" stroke="#979797" stroke-linecap="square"></line>
        <g id="Input-Fields-/-Search-/-Default" transform="translate(936.9333, 200)">
            <text id="Search-Copy-2" font-family=".AppleSystemUIFont" font-size="14" font-weight="normal" line-spacing="20" letter-spacing="0.5" fill="#333333">
                <tspan x="30" y="14">Search </tspan>
            </text>
            <g id="Icons-/-Input-Fields-/-Line-/-Default" transform="translate(0, 24)">
                <mask id="mask-6" fill="white">
                    <use xlink:href="#path-5"></use>
                </mask>
                <use id="Input-Fields-/-Line-/-Default" fill="#9E9EA2" xlink:href="#path-5"></use>
            </g>
            <g id="icons-/-form-/-Search" transform="translate(3, 3)" fill="#565659">
                <path d="M2.14281888,5.89275192 C2.14281888,3.8249317 3.8249317,2.14281888 5.89275192,2.14281888 C7.96057213,2.14281888 9.64268495,3.8249317 9.64268495,5.89275192 C9.64268495,7.96057213 7.96057213,9.64268495 5.89275192,9.64268495 C3.8249317,9.64268495 2.14281888,7.96057213 2.14281888,5.89275192 Z M10.7462367,9.23126373 C11.4008678,8.28199496 11.7855038,7.13237264 11.7855038,5.89275192 C11.7855038,2.63781004 9.14769379,-8.8817842e-16 5.89275192,-8.8817842e-16 C2.63781004,-8.8817842e-16 8.8817842e-16,2.63781004 8.8817842e-16,5.89275192 C8.8817842e-16,9.14769379 2.63781004,11.7855038 5.89275192,11.7855038 C7.13237264,11.7855038 8.28199496,11.4008678 9.23126373,10.7462367 L13.1708362,14.6858092 C13.3797611,14.894734 13.6540419,14.9997321 13.9283227,14.9997321 C14.2026035,14.9997321 14.4768843,14.894734 14.6858092,14.6858092 C15.1047303,14.2668881 15.1047303,13.5897573 14.6858092,13.1708362 L10.7462367,9.23126373 Z" id="icon_Search-Copy-10"></path>
            </g>
        </g>
        <g id="Group-9" transform="translate(88, 23)" fill="#049FD9">
            <text id="IoT-Center" font-family=".AppleSystemUIFont" font-size="19" font-weight="normal">
                <tspan x="62" y="19">IoT Center</tspan>
            </text>
            <text id="Cisco" font-family="CiscoSans-Bold, Cisco Sans" font-size="20" font-weight="bold">
                <tspan x="0" y="20">Cisco</tspan>
            </text>
        </g>
    </g>
</svg>