<svg xmlns="http://www.w3.org/2000/svg" width="122" height="122" fill="none" viewBox="0 0 122 122">
  <path fill="#fff" d="M90.04 16.51H29a2.1 2.1 0 00-2.1 2.1v71.72c0 1.16.94 2.1 2.1 2.1h61.04a2.1 2.1 0 002.1-2.1V18.61a2.1 2.1 0 00-2.1-2.1z"/>
  <path fill="#008481" d="M90.05 18.61v71.73H29V18.61h61.05zm0-4.19H29a4.19 4.19 0 00-4.19 4.19v71.73A4.19 4.19 0 0029 94.53h61.05a4.19 4.19 0 004.19-4.19V18.61a4.19 4.19 0 00-4.19-4.19z"/>
  <path fill="#008481" d="M72.04 23.54H47.01a2.52 2.52 0 00-2.52 2.52v.01a2.52 2.52 0 002.52 2.52h25.03a2.52 2.52 0 002.52-2.52v-.01a2.52 2.52 0 00-2.52-2.52z"/>
  <path fill="#fff" d="M66.48 7.57H52.55a2.1 2.1 0 00-2.1 2.1v14.24c0 1.16.94 2.1 2.1 2.1h13.93a2.1 2.1 0 002.1-2.1V9.67a2.1 2.1 0 00-2.1-2.1z"/>
  <path fill="#008481" d="M66.49 9.66v14.25H52.55V9.66h13.94zm0-4.19H52.55a4.19 4.19 0 00-4.19 4.19v14.25a4.18 4.18 0 004.19 4.19h13.94a4.19 4.19 0 004.19-4.19V9.66a4.2 4.2 0 00-4.19-4.19z"/>
  <path fill="#fff" stroke="#008481" stroke-linecap="round" stroke-linejoin="round" stroke-width="2" d="M72.7 69.31a10.13 10.13 0 00-1.64-5.82C69.8 61.68 68 61.15 66.25 60a2.48 2.48 0 01-.68-2.57c.22-1.16.7-3.88 1.05-5a4.2 4.2 0 001.87-3.22 2.82 2.82 0 00-1.43-2.48v-1.2c0-4.16.65-9.2-7.54-9.2-2 0-5.26.72-5.26 2.92 0 .12-2.6-.31-2.28 6.28v1.19a2.82 2.82 0 00-1.43 2.48 4.19 4.19 0 001.86 3.22c.36 1.1.84 3.82 1.06 5a2.5 2.5 0 01-.68 2.58C51 61.15 49.24 61.68 48 63.49a10.06 10.06 0 00-1.64 5.82H72.7z"/>
  <path stroke="#57B520" stroke-linecap="round" stroke-linejoin="round" stroke-width="2.1" d="M73.2 78.56c-2.28 0-2.28 2.67-4.56 2.67s-2.28-2.67-4.56-2.67-2.28 2.67-4.55 2.67-2.28-2.67-4.53-2.67c-2.25 0-2.28 2.67-4.56 2.67s-2.28-2.67-4.56-2.67"/>
  <g opacity=".15" style="mix-blend-mode:multiply">
    <path fill="#00C1BF" d="M88.05 31.29L31 88.34h57.05V31.29z"/>
  </g>
  <g>
    <path fill="#fff" d="M101.86 76.45H59.52a2 2 0 00-2 2v24.69a2 2 0 002 2h42.34a2 2 0 002-2V78.45a2 2 0 00-2-2z"/>
    <path fill="#008481" d="M101.86 78.45v24.68H59.52V78.45h42.34zm0-4H59.52a4 4 0 00-4 4v24.68a3.998 3.998 0 004 4h42.34a3.995 3.995 0 002.828-1.172 3.995 3.995 0 001.172-2.828V78.45a3.997 3.997 0 00-4-4z"/>
    <path stroke="#57B520" stroke-miterlimit="10" stroke-width="2" d="M97.78 81.76H63.52v17.93h34.26V81.76z" opacity=".4"/>
    <path fill="#fff" d="M81 102.9c-5.54 0-10-5.41-10-12.05 0-6.64 4.51-12 10-12s10 5.4 10 12-4.48 12.05-10 12.05z"/>
    <path fill="#57B520" d="M81 80.8c-4.44 0-8 4.49-8 10s3.61 10.05 8 10.05c4.39 0 8-4.5 8-10.05 0-5.55-3.58-10-8-10zm4.58 13a6.231 6.231 0 00-1.58-.3 3.779 3.779 0 01-1.36-.38 4.2 4.2 0 002.25-3.79 3.879 3.879 0 10-7.73 0 4.2 4.2 0 002.25 3.79 3.78 3.78 0 01-1.41.38 6.233 6.233 0 00-1.6.32 1.91 1.91 0 00-1 .9 10.54 10.54 0 01-.73-3.87c0-4.57 2.82-8.29 6.28-8.29 3.46 0 6.29 3.72 6.29 8.29a10.54 10.54 0 01-.73 3.87 1.91 1.91 0 00-.96-.9l.03-.02z"/>
    <g opacity=".2" style="mix-blend-mode:multiply">
      <path fill="#00C1BF" d="M99.77 80.52v20.53H80.93l18.84-20.53z"/>
    </g>
  </g>
</svg>
