<svg xmlns="http://www.w3.org/2000/svg" width="122" height="122" fill="none" viewBox="0 0 122 122">
  <path fill="#fff" stroke="#008481" stroke-linecap="round" stroke-linejoin="round" stroke-width="4" d="M87.86 90.14a21.42 21.42 0 00-3.46-12.31c-2.67-3.83-6.48-4.94-10.18-7.44-1.71-1.16-1.78-3.57-1.43-5.44.46-2.46 1.47-8.2 2.23-10.52A8.85 8.85 0 0079 47.61c0-2.55-1.2-3.93-3-5.24v-2.51c0-8.8 1.38-19.44-15.94-19.44-4.21 0-11.11 1.52-11.11 6.16 0 .27-5.51-.66-4.83 13.28v2.51c-1.82 1.32-3 2.69-3 5.24A8.848 8.848 0 0045 54.43c.75 2.32 1.77 8.06 2.23 10.52.35 1.87.27 4.28-1.44 5.44-3.69 2.5-7.5 3.61-10.17 7.44a21.42 21.42 0 00-3.46 12.31A44.001 44.001 0 0060 100.23a43.31 43.31 0 0027.86-10.09z"/>
  <path stroke="#00C1BF" stroke-linecap="round" stroke-miterlimit="10" stroke-width="1.75" d="M52.66 29s7.08 2.48 16.87 0"/>
  <path fill="#00C1BF" d="M74.14 79.22a20.74 20.74 0 01-9 17.1 40 40 0 0019.18-7.89 17 17 0 00-2.79-8.67c-1.39-2-3.27-3.06-5.65-4.38-.78-.44-1.58-.89-2.4-1.39a20.48 20.48 0 01.66 5.23z" opacity=".2"/>
  <path stroke="#00C1BF" stroke-linecap="round" stroke-miterlimit="10" stroke-width="1.75" d="M70.85 74a15.59 15.59 0 01-21.7 0"/>
  <g>
    <path fill="#57B520" d="M85.92 102.98c7.903 0 14.31-6.407 14.31-14.31 0-7.903-6.407-14.31-14.31-14.31-7.903 0-14.31 6.407-14.31 14.31 0 7.903 6.407 14.31 14.31 14.31z"/>
    <path stroke="#fff" stroke-linecap="round" stroke-miterlimit="10" stroke-width="4" d="M85.92 81.81v13.71M92.77 88.67H79.06"/>
  </g>
</svg>
