<svg xmlns="http://www.w3.org/2000/svg" width="122" height="122" fill="none" viewBox="0 0 122 122">
  <path fill="#fff" stroke="#008481" stroke-linecap="round" stroke-linejoin="round" stroke-width="4" d="M102.54 33.68a40.072 40.072 0 00-21-5.5 40.131 40.131 0 00-21 5.5 40.072 40.072 0 00-21-5.5 40.131 40.131 0 00-21 5.5v59.23h84V33.68z"/>
  <path stroke="#00C1BF" stroke-linecap="round" stroke-linejoin="round" stroke-width="2" d="M60.54 87.79V37.02M98.63 87.79a36.41 36.41 0 00-19-5 36.4 36.4 0 00-19 5 36.37 36.37 0 00-19-5 36.37 36.37 0 00-19 5"/>
  <path fill="#00C1BF" d="M47.61 33v47.32a33.668 33.668 0 0112.11 4.4V37.36A33.67 33.67 0 0047.61 33zM87.06 33v47.32a33.668 33.668 0 0112.11 4.4V37.36A33.67 33.67 0 0087.06 33z" opacity=".15"/>
  <path stroke="#57B520" stroke-linecap="round" stroke-miterlimit="10" stroke-width="2" d="M92.48 51.06a22.35 22.35 0 00-21.88 0M92.48 62.89a22.35 22.35 0 00-21.88 0M52.26 51.06a21.001 21.001 0 00-10.94-2.86 21 21 0 00-10.95 2.86M52.26 62.89A21 21 0 0041.32 60a21 21 0 00-10.95 2.86"/>
</svg>
