<?xml version="1.0" encoding="UTF-8"?>
<svg id="Layer_1" data-name="Layer 1" xmlns="http://www.w3.org/2000/svg" viewBox="0 0 1363.22 576.47">
  <defs>
    <style>
      .cls-1 {
        fill: #fff;
      }

      .cls-2 {
        fill: #15aa97;
      }
    </style>
  </defs>
  <path class="cls-1" d="M922.49,575.91c-29.14-2.95-41.53-15.15-62.65-31.26-1.34-1.03-1.68-2.57-4.01-1.99v23.94h-61.32l2.69-495.42L852.08,2.24l3.75-2.24v331.18c6.24-2,10.26-9.2,15.36-13.27,49.93-39.92,125.42-21.6,163.24,25.94,61.15,76.87,24.04,221.27-82.62,232.06-7.31.74-22.02.74-29.33,0ZM922.23,351.52c-91.17,4.8-96.35,159.72-1.72,168.51,105.27,9.78,106.6-174.03,1.72-168.51Z"/>
  <path class="cls-1" d="M1235.77,575.91h-27.99c-181.43-19.17-164.52-289.57,23.39-279.38,175.02,9.49,175.56,264.85,4.6,279.38ZM1212.84,351.53c-93.08,8.04-93.02,161.34-1.78,168.57,67.25,5.32,97.31-43.43,87.21-105.63-6.87-42.33-43.39-66.57-85.43-62.94Z"/>
  <path class="cls-1" d="M379.92,102.41v465.52h-66.65v-57.19l-167.36-.06c-6.81,2.33-15.53-1.08-19.96,5.36l-45,54.89-79.26-.04-1.69-2.28L379.92,102.41ZM311.93,454.88v-166.26l-135.98,167.57,135.98-1.32Z"/>
  <polygon class="cls-1" points="677.2 303.25 511.9 510.74 669.2 510.74 669.2 566.6 395.92 566.6 561.22 360.44 434.58 360.44 434.58 303.25 677.2 303.25"/>
  <polygon class="cls-1" points="761.19 236.75 761.19 565.94 759.19 567.93 703.2 567.93 701.2 565.94 701.2 236.75 761.19 236.75"/>
  <polygon class="cls-1" points="761.19 191.53 701.18 189.52 761.19 117.04 761.19 191.53"/>
  <polygon class="cls-2" points="311.93 454.88 175.96 456.2 311.93 288.62 311.93 454.88"/>
</svg>