<?xml version="1.0" encoding="UTF-8"?>
<svg id="Layer_2" data-name="Layer 2" xmlns="http://www.w3.org/2000/svg" viewBox="0 0 270.01 45.92">
  <defs>
    <style>
      .cls-1 {
        fill: #fff;
      }
    </style>
  </defs>
  <g id="Layer_2-2" data-name="Layer 2">
    <g>
      <path class="cls-1" d="M14.85,33.1c0-.09-.04-.24-.11-.46-.07-.22-.13-.38-.16-.46-.03-.06-.1-.17-.2-.33-.1-.16-.18-.27-.24-.33,0,.03-.03.07-.09.13-.06.06-.1.09-.13.09-.03.03-.1.08-.22.15-.12.07-.19.11-.22.11-.06,0-.14.06-.24.18-.1.12-.18.19-.24.22l-.44-.4s-.1.1-.2.22c-.1.12-.18.18-.24.18l-.09.04-.13-.04c-.09-.03-.24-.1-.46-.22-.22-.12-.36-.18-.42-.18-.03,0-.07-.07-.11-.22s-.08-.24-.11-.27c-.09-.15-.18-.22-.26-.22-.06.06-.12.1-.18.13-.03.03-.07.04-.13.04-.03,0-.06.02-.09.04,0,.03-.01.04-.04.04h-.18s-.04-.01-.04-.04c-.03-.06-.13-.18-.29-.38-.16-.19-.27-.3-.33-.33-.03,0-.1.04-.22.13-.12.09-.19.13-.22.13h-.44c-.09,0-.25-.04-.49-.11-.24-.07-.38-.12-.44-.15s-.18-.1-.35-.2c-.18-.1-.28-.17-.31-.2-.03-.03-.05-.1-.07-.2-.02-.1-.03-.22-.04-.35-.01-.13-.03-.26-.04-.38-.02-.12-.02-.19-.02-.22-.06-.09-.21-.28-.44-.57-.24-.29-.4-.47-.49-.53-.03.03-.08.07-.15.11-.07.04-.11.08-.11.11s-.06.13-.18.31-.19.29-.22.35c0,.03-.02.04-.04.04h-.18s-.04-.01-.04-.04c-.03-.03-.13-.1-.31-.22-.18-.12-.28-.19-.31-.22-.06,0-.18-.03-.35-.09s-.28-.1-.31-.13c-.03-.03-.08-.18-.15-.46-.07-.28-.11-.49-.11-.64-.03-.06-.04-.12-.04-.18v-.27c0-.06,0-.15.02-.27.01-.12.02-.19.02-.22s.04-.07.11-.13c.07-.06.12-.09.15-.09h-.49l-.44-1.55h-.27c.03.09.02.24-.02.46-.04.22-.1.36-.15.42-.03.03-.08.05-.16.07-.07.02-.14.02-.2.02-.03,0-.08,0-.16-.02-.07-.01-.12-.04-.15-.07-.03-.12-.07-.38-.13-.77-.06-.4-.1-.66-.13-.77-.03-.09-.07-.25-.11-.49-.04-.24-.08-.37-.11-.4,0-.06-.06-.11-.18-.15-.12-.04-.21-.07-.26-.07v-2.92c-.06-.03-.14-.1-.24-.22-.1-.12-.17-.21-.2-.27,0-.03,0-.1-.02-.22-.01-.12-.02-.21-.02-.27,0-.09,0-.21.02-.35s.02-.24.02-.27c0-.06.04-.21.11-.46.07-.25.12-.38.16-.38,0-.06.02-.26.07-.6.04-.34.08-.54.11-.6,0-.03.01-.06.04-.09.03-.03.04-.05.04-.07s.01-.04.04-.07l.09-.18c.03-.06.07-.21.13-.46.06-.25.09-.4.09-.46,0-.03.01-.11.04-.24.03-.13.05-.27.07-.42.01-.15.04-.29.07-.42.03-.13.04-.21.04-.24.03-.09.07-.25.13-.49.06-.24.1-.38.13-.44.03,0,.07-.05.11-.15.04-.1.07-.18.07-.24.03-.06.11-.18.24-.35s.21-.29.24-.35c0-.03.03-.13.09-.31.06-.18.09-.29.09-.35.06-.03.1-.06.13-.09l.13-.13s.03-.1.09-.22c.06-.12.1-.19.13-.22.03-.12.17-.32.42-.6.25-.28.4-.45.46-.51l.09.09s.07.06.13.09c.06.03.1.04.13.04h.22s.06-.01.09-.04c.06-.03.14-.13.24-.31.1-.18.17-.29.2-.35.03-.03.11-.07.24-.11.13-.04.21-.08.24-.11.03-.03.1-.11.2-.24.1-.13.18-.21.24-.24.03,0,.1,0,.22.02.12.02.19,0,.22-.02.06,0,.11-.1.15-.29.04-.19.07-.32.07-.38.15.03.38,0,.71-.11.32-.1.54-.21.66-.33.06-.06.12-.23.18-.51.06-.28.07-.46.04-.55l.09-.04.13.04c.06.03.14.1.24.2.1.1.16.17.16.2v.49l.26.18v.44c-.03.06-.07.12-.13.18s-.1.09-.13.09c-.03.03-.12.02-.27-.02-.15-.04-.25-.07-.31-.07,0,.09-.01.29-.04.62s-.03.52,0,.57c0,.06.02.15.07.27s.1.19.15.22c.03,0,.07-.03.11-.09.04-.06.08-.12.11-.18.03-.06.09-.17.2-.33.1-.16.18-.27.24-.33-.06.09-.05.25.02.49.07.24.14.38.2.44.06.03.17.08.33.15.16.07.27.11.33.11v1.28l-.27.22s-.07-.03-.11-.09c-.04-.06-.07-.1-.07-.13-.03-.06-.07-.18-.13-.35-.06-.18-.09-.29-.09-.35-.03-.03-.07-.06-.11-.09-.04-.03-.08-.06-.11-.09-.03,0-.05,0-.07.02-.01.02-.04.02-.07.02h-.09s0,.09-.02.18c-.01.09-.02.16-.02.22s.04.17.13.33c.09.16.13.27.13.33-.03.03-.06.04-.09.04s-.07.02-.13.04c-.06.03-.13.06-.22.09-.06.06-.11.18-.16.38-.04.19-.07.3-.07.33-.06.06-.14.21-.24.44-.1.24-.17.38-.2.44l-.27.27c-.06.03-.15.02-.26-.02-.12-.04-.21-.07-.27-.07v1.02h-.13c-.12,0-.18-.01-.18-.04-.06-.03-.18-.1-.38-.22-.19-.12-.3-.19-.33-.22-.03,0-.04,0-.04.02,0,.02-.02.02-.04.02h-.09s-.01.06-.04.09-.03.06,0,.09c.03.06.1.2.2.42.1.22.18.38.24.46,0,.06-.03.11-.09.15-.06.04-.1.07-.13.07s-.13-.03-.31-.09-.29-.1-.35-.13c-.03,0-.07,0-.13.02-.06.02-.1.02-.13.02,0,.03,0,.06.02.09s.02.06.02.09c-.03.06-.08.18-.15.35-.07.18-.11.29-.11.35v.18s.04.07.13.13c.09.06.13.1.13.13v.66c-.03.06-.08.24-.15.55-.07.31-.11.49-.11.55v.93s-.03.13-.09.31c-.06.18-.09.29-.09.35-.03.06-.07.29-.13.69-.06.4-.1.69-.13.86v.22l.93-.4.18.4-.18.09s-.05.04-.07.04-.04.02-.07.04c-.03.03-.06.04-.09.04s-.08.02-.15.07c-.07.04-.11.1-.11.15v.09s0,.06.02.09.02.06.02.09h.49s-.04.06-.04.09v.09s-.07.1-.13.22c-.06.12-.09.21-.09.27-.03,0-.04.02-.04.04v.09l.04.04s.1.07.22.13c.12.06.18.1.18.13s-.03.1-.09.2c-.06.1-.09.18-.09.24v.22s.03.07.09.13c.06.06.09.1.09.13,0-.06.04-.12.11-.18.07-.06.12-.09.15-.09h.04s.04,0,.04-.02.01-.02.04-.02c.03,0,.06.02.09.04.03.03.07.1.11.2.04.1.08.18.11.24,0,.03.02.07.07.13.04.06.1.09.16.09.03,0,.09.03.2.09.1.06.18.12.24.18.03,0,.1.09.22.27.12.18.21.29.26.35,0,.03.02.1.07.22.04.12.08.19.11.22,0,.06.03.11.09.15.06.04.12.07.18.07,0-.03.02-.1.07-.22.04-.12.09-.19.15-.22h.22l.22.22c.06.06.12.13.18.22v.66c0,.06.03.11.09.15.06.04.12.07.18.07,0-.06.03-.13.09-.22.06-.09.1-.16.13-.22h.22c.06.06.27.18.64.38.37.19.58.3.64.33.06.03.18.07.35.11.18.04.29.07.35.07.03,0,.08,0,.15.02.07.02.14.02.2.02h.22s.06-.01.09-.04c.06,0,.18-.02.35-.07.18-.04.28-.08.31-.11h.71c.06.03.17.14.33.33.16.19.27.3.33.33l.13.04s.06-.01.09-.04c.06-.03.18-.1.35-.22.18-.12.29-.21.35-.27.06-.03.17-.07.33-.11.16-.04.27-.07.33-.07.03,0,.13.03.31.09.18.06.28.09.31.09.06.03.21.04.46.02.25-.01.4-.02.46-.02.06.03.14.12.24.27.1.15.17.22.2.22.06.06.17.1.33.13.16.03.27.04.33.04h.49c.09-.03.16-.06.22-.09.12-.06.19-.09.22-.09h.66c.06.03.13.11.22.24.09.13.16.2.22.2.09.06.26.05.51-.02.25-.07.4-.11.46-.11,0-.09-.01-.22-.04-.4-.03-.18-.03-.31,0-.4,0-.03.01-.06.04-.09.03-.03.05-.04.07-.04.01,0,.04-.01.07-.04.06-.03.15-.08.26-.15.12-.07.19-.11.22-.11h1.55s.12-.02.29-.07c.16-.04.33-.09.51-.13.18-.04.34-.1.49-.15s.25-.09.31-.09h1.33c.09-.03.16-.06.22-.09.06-.03.1-.06.13-.09.03-.03.06-.04.09-.04.06,0,.21,0,.44.02.24.02.38,0,.44-.02.03,0,.1-.07.22-.2.12-.13.21-.21.27-.24s.28-.1.66-.2c.38-.1.66-.18.84-.24h.27s.07.03.13.09c.06.06.09.1.09.13,0,.06.02.26.07.6.04.34.08.58.11.73,0,.06,0,.14.02.24.01.1.02.17.02.2h-.71c0,.12-.02.31-.07.57-.04.27-.1.54-.18.82-.07.28-.15.55-.22.8-.07.25-.14.42-.2.51-.06.09-.16.22-.31.4-.15.18-.32.37-.51.57-.19.21-.38.39-.55.55-.18.16-.31.26-.4.29-.06-.03-.21-.07-.44-.11-.24-.04-.38-.08-.44-.11h-.88c-.09.03-.24.1-.46.2-.22.1-.45.21-.69.33-.24.12-.46.24-.66.35-.21.12-.35.19-.44.22,0-.09-.02-.28-.07-.57-.04-.29-.1-.47-.16-.53-.03-.06-.13-.1-.31-.13-.18-.03-.29-.06-.35-.09-.03,0-.08-.04-.15-.11-.07-.07-.11-.12-.11-.15-.03,0-.1-.02-.2-.07-.1-.04-.17-.08-.2-.11h-.26s-.05.04-.07.04c-.02,0-.04.02-.07.04s-.04.06-.04.09c-.03.06-.04.18-.04.35s.01.29.04.35c-.03,0-.08-.03-.16-.09-.07-.06-.11-.1-.11-.13-.03-.06-.07-.17-.13-.33-.06-.16-.09-.27-.09-.33-.09-.15-.16-.22-.22-.22l-.88.4v1.5c-.06,0-.13.01-.22.04-.09.03-.16.04-.22.04-.03.03-.07.1-.13.22-.06.12-.1.19-.13.22-.06.09-.17.22-.33.4-.16.18-.27.28-.33.31-.06.03-.24.1-.55.22-.31.12-.49.18-.55.18l-.27.27h-.18c-.09-.03-.21-.07-.38-.13-.16-.06-.26-.1-.29-.13-.06,0-.15-.06-.26-.18-.12-.12-.18-.19-.18-.22-.03-.06-.07-.18-.13-.35-.06-.18-.1-.29-.13-.35l-.4.27ZM3.18,18.3s.04.07.11.13c.07.06.12.1.15.13h.18l.13-.13s.06-.07.09-.13l-.4-.84s-.08.09-.15.27c-.07.18-.11.29-.11.35v.22ZM10.34,9.15s.07-.14.11-.33c.04-.19.07-.32.07-.38v-.22c0-.09-.02-.21-.07-.38-.04-.16-.08-.26-.11-.29-.03-.03-.13-.14-.31-.33-.18-.19-.29-.32-.35-.38-.03-.06-.08-.13-.16-.22-.07-.09-.11-.16-.11-.22.06-.03.1-.06.13-.09l.13-.13h.18s.06.05.09.07c.03.02.06.04.09.07l.09.09c0,.06.03.15.09.27.06.12.1.18.13.18.06.06.14.06.24,0,.1-.06.17-.09.2-.09v-1.19c.06.03.13.1.22.22.09.12.16.19.22.22h.66c.06,0,.11-.03.15-.09.04-.06.07-.1.07-.13.06-.09.11-.28.15-.57.04-.29.07-.47.07-.53.06.06.17.13.33.22.16.09.27.16.33.22h.27c.03-.06.16-.17.4-.33.24-.16.4-.29.49-.38l.22-.22s.07-.1.13-.22c.06-.12.09-.19.09-.22l.58.66v-1.46c.21.03.4.04.57.04.15.03.3.04.46.04s.3.02.42.04c.03,0,.04.02.04.04,0,.06.01.09.04.09l.09.09s.11,0,.24-.02c.13-.01.21,0,.24.02s.07.14.11.33c.04.19.08.32.11.38.03.03.07.1.11.2.04.1.08.17.11.2l.26.27h.18c.09-.06.19-.21.31-.44.12-.24.18-.4.18-.49,0-.06-.07-.14-.22-.24-.15-.1-.24-.17-.27-.2l-.09-.22c-.03-.06-.04-.13-.04-.22h2.39c.03.06.07.17.11.33.04.16.08.27.11.33.06.06.14.18.24.35.1.18.18.28.24.31h.18c-.03-.06,0-.21.07-.44.07-.24.14-.38.2-.44.03-.03.17-.07.42-.11.25-.04.41-.08.46-.11,0-.03.03-.1.09-.22.06-.12.1-.19.13-.22l.09-.04.13.04s.1.1.22.2c.12.1.19.18.22.24h.22s.1-.07.22-.13c.12-.06.19-.09.22-.09.03,0,.07,0,.13-.02.06-.01.1-.02.13-.02v1.19s.1.02.2.07c.1.04.18.08.24.11.03.06.06.1.09.13.06.06.1.09.13.09h.18s.1.04.22.11c.12.07.21.13.27.15h.22c.03.06.07.2.11.42.04.22.08.38.11.46v.62l-.93-.4c-.06.03-.11.09-.15.18s-.05.16-.02.22c0,.06.07.18.2.35.13.18.21.28.24.31v1.37c0,.06-.04.11-.11.15-.07.04-.13.07-.16.07s-.1-.03-.22-.09c-.06-.03-.12-.07-.18-.13-.09,0-.25.02-.49.04-.24.03-.38.04-.44.04v.66c-.09,0-.16-.03-.22-.09l-.44-.44c-.09.06-.16.1-.22.13-.03.03-.07.04-.13.04-.03,0-.06.02-.09.04-.06,0-.18-.06-.35-.18-.18-.12-.29-.21-.35-.27-.03-.03-.06-.14-.09-.33-.03-.19-.06-.3-.09-.33-.06-.06-.2-.21-.42-.44-.22-.24-.39-.38-.51-.44-.03-.03-.1-.07-.2-.13-.1-.06-.18-.1-.24-.13-.03,0-.16-.03-.4-.09-.24-.06-.4-.1-.49-.13h-.22s-.11.07-.24.13c-.13.06-.21.09-.24.09s-.1-.02-.22-.07c-.12-.04-.18-.1-.18-.15-.09.06-.25.17-.49.33-.24.16-.38.27-.44.33s-.21.15-.44.27c-.24.12-.38.18-.44.18-.06.03-.21.08-.46.15-.25.07-.41.11-.46.11-.03.03-.1.07-.22.13-.12.06-.19.09-.22.09-.03.03-.17.04-.42.02-.25-.01-.41-.02-.46-.02-.03,0-.1.03-.2.09-.1.06-.18.09-.24.09,0,.03-.04.08-.11.15-.07.07-.12.11-.15.11,0,.03-.06.07-.18.13s-.19.09-.22.09c-.09.06-.27.18-.55.35-.28.18-.48.29-.6.35,0,.03-.1.1-.29.22-.19.12-.32.18-.38.18-.06.06-.13.12-.22.18-.09.06-.16.09-.22.09-.03.03-.06.04-.09.04h-.27s-.07-.01-.13-.04l-.09-.09c-.06-.06-.09-.12-.09-.18v-.4ZM15.03,28.15c-.06-.03-.09,0-.09.11s.03.14.09.11c.09-.03.13-.07.13-.11s-.04-.08-.13-.11ZM15.25,31.73c.03.06.1.18.22.35.12.18.19.28.22.31,0,.03.01.04.04.04h.18s.04-.02.04-.04c.03,0,.07-.03.11-.09.04-.06.07-.1.07-.13v-.04s0-.04.02-.04.02-.02.02-.04-.02-.04-.04-.04c0-.03-.06-.07-.18-.13-.12-.06-.21-.1-.26-.13h-.44ZM16.09,4.15s0,.11.02.24c.01.13.02.23.02.29.03.03.07.06.13.09.06.03.1.06.13.09h.22s.07-.06.11-.09c.04-.03.07-.06.07-.09,0-.06-.05-.15-.15-.27-.1-.12-.18-.19-.24-.22,0-.03-.04-.04-.13-.04h-.18ZM16.4,27.93h.22l-.22-.27v.27ZM17.77,32.04c-.09,0-.18.04-.26.13-.03.06-.07.17-.11.33-.04.16-.08.27-.11.33-.03.06-.04.14-.04.24v.2h.27s.07-.11.11-.33c.04-.22.08-.41.11-.55v-.18c0-.06,0-.1.02-.11.01-.02.02-.04.02-.07ZM17.28,29.97c0,.06.02.14.07.24.04.1.1.17.16.2.06-.03.15-.1.26-.2.12-.1.19-.18.22-.24.03-.03.04-.09.04-.18v-.18s-.11.02-.24.04c-.13.03-.23.04-.29.04-.15.09-.22.18-.22.27ZM17.99,5.13c-.15,0-.22.07-.22.22s.07.22.22.22c.09,0,.13-.07.13-.22s-.04-.22-.13-.22ZM19.31,30.41c-.12,0-.18.07-.18.2s.06.2.18.2.18-.07.18-.2-.06-.2-.18-.2ZM22.67,3.76s.03.07.09.13l.13.13v-.27c-.09-.15-.16-.22-.22-.22l-.04.09.04.13ZM23.87,30.54s-.08,0-.15.02c-.07.02-.13.04-.16.07s-.07.1-.13.2c-.06.1-.09.18-.09.24-.03.06-.05.18-.07.35-.02.18-.02.29-.02.35h.16c.07,0,.12-.02.15-.04.06,0,.11-.03.16-.09.04-.06.07-.1.07-.13,0-.06.01-.22.04-.49.03-.27.04-.43.04-.49ZM23.34,29.48s.07-.03.11-.09c.04-.06.08-.1.11-.13v-.22l-.22.44ZM24,28.82c-.12,0-.18.07-.18.22s.06.22.18.22c.15,0,.22-.07.22-.22s-.07-.22-.22-.22ZM24.26,5.35c-.09-.06-.13-.04-.13.07s.04.15.13.15c.15-.15.15-.22,0-.22ZM24.44,6.67c-.09,0-.13.07-.13.22s.04.22.13.22c.15,0,.22-.07.22-.22s-.07-.22-.22-.22ZM24.71,28.38c-.09-.03-.13,0-.13.11s.04.14.13.11c.15-.06.15-.13,0-.22ZM27.14,30.81c-.12,0-.18.08-.18.24s.06.24.18.24c.15,0,.22-.08.22-.24s-.07-.24-.22-.24ZM28.02,29.17s.01.06.04.09c0,.03.02.07.07.13.04.06.08.09.11.09.03,0,.07-.03.13-.09.06-.06.09-.1.09-.13v-.09s0-.05.02-.07c.01-.01.02-.04.02-.07,0-.06.01-.13.04-.22h-.31s-.07.03-.11.09c-.04.06-.07.1-.07.13l-.04.13Z"/>
      <path class="cls-1" d="M47.96,22.67l-.88-.75-.18-.71c-.21-.68-.43-1.02-.66-1.02-.32,0-.53.08-.62.24-.09.16-.14.36-.16.6-.01.24-.02.47-.02.71s-.06.41-.18.53c-.03.06-.13.15-.29.29-.16.13-.34.27-.53.42s-.38.27-.55.38c-.18.1-.29.17-.35.2l-.09-1.68c-.12.15-.24.28-.35.4-.06.06-.1.11-.13.15-.03.04-.07.08-.13.11-.06.06-.1.09-.13.09-.03,0-.03.04,0,.13.03.09.06.18.09.27.03.12.07.24.13.35-.03.03-.07.11-.11.24-.04.13-.07.23-.07.29h.62c-.03.24-.12.49-.27.75-.15.27-.4.4-.75.4-.12,0-.18-.07-.18-.22s-.1-.22-.31-.22c-.03,0-.06,0-.09.02-.03.02-.06.02-.09.02.12.12.17.21.15.29-.01.07-.05.14-.11.2s-.13.13-.2.2c-.07.07-.11.17-.11.29,0,.56-.04,1.13-.11,1.7-.07.57-.19,1.12-.35,1.64-.16.52-.39.98-.69,1.39-.29.41-.66.74-1.1.97-.15.12-.22.26-.22.42s-.1.24-.31.24c-.27,0-.43-.07-.49-.22.12-.38.24-.65.38-.8.13-.15.2-.38.2-.71.06.06.13.1.22.13.03.03.09.04.18.04.03,0,.04.02.04.04-.35,0-.66.12-.91.35-.25.24-.49.4-.73.49h-.18c-.06,0-.18-.04-.35-.11-.18-.07-.29-.12-.35-.15h-.22c-.06-.21-.12-.38-.18-.51-.06-.13-.12-.24-.18-.33-.06-.09-.12-.1-.18-.04-.03,0-.06.03-.09.09-.03.06-.06.1-.09.13.06,0,.14.06.24.18.1.12.17.21.2.27v.13l-.26.71s-.02-.07-.07-.13c-.04-.06-.08-.1-.11-.13h-.04s-.05,0-.07-.02c-.01-.01-.04-.02-.07-.02l-.04.04c-.06.03-.2.18-.42.44-.22.27-.36.4-.42.4-.03.03-.07.04-.13.04-.03,0-.07.01-.13.04,0-.32.04-.6.13-.82.09-.22.13-.48.13-.77,0-.44-.04-.88-.13-1.33-.09-.44-.13-.87-.13-1.28,0-.24.08-.44.24-.62.16-.18.24-.41.24-.71,0-.15-.08-.26-.24-.33-.16-.07-.24-.23-.24-.46,0-.56.11-1.16.33-1.81.22-.65.33-1.21.33-1.68,0-.09-.05-.21-.16-.38-.1-.16-.18-.26-.24-.29,0-.09-.01-.26-.04-.51-.03-.25-.06-.51-.09-.77-.03-.27-.06-.52-.09-.75-.03-.24-.04-.4-.04-.49v-11.09c-.24-1.06-.47-2.14-.71-3.23-.24-1.09-.35-2.17-.35-3.23,0-.32.12-.52.38-.6.25-.07.51-.15.77-.24v.71c.32-.12.53-.26.62-.42.09-.16.14-.32.15-.46.01-.15.02-.28.02-.4s.07-.19.22-.22l.4.44c.15-.06.44-.09.88-.09s.74.03.88.09c.35.06.53.2.53.42v.73c.06,0,.21-.04.44-.13.24-.09.37-.01.4.22.03.09.02.23-.02.42-.04.19-.1.4-.18.62-.07.22-.14.42-.2.6-.06.18-.09.31-.09.4-.24.32-.42.57-.55.75-.13.18-.26.34-.38.49-.12.15-.18.24-.18.27,0,.06.1.07.31.04.21-.03.43-.06.66-.09.24-.03.45-.05.64-.07.19-.01.29.04.29.15-.03.15-.1.35-.2.62s-.21.55-.33.84c-.12.29-.23.58-.33.86-.1.28-.17.51-.2.69-.03.15-.02.24.04.29.06.04.12.08.2.11.07.03.15.07.22.11.07.04.11.13.11.24s-.14.24-.42.35c-.28.12-.42.24-.42.35.15.09.32.21.51.38.19.16.39.36.6.6.24.24.43.48.6.73.16.25.24.49.24.73v.13s-.08.1-.24.2c-.16.1-.34.22-.53.35-.19.13-.45.3-.77.51,0,.03.05.11.16.24.1.13.21.27.31.42.1.15.21.29.31.42.1.13.15.21.15.24-.12.27-.3.46-.55.6-.25.13-.38.41-.38.82,0,.03.06.13.18.29.12.16.24.33.38.51s.26.34.38.49c.12.15.18.24.18.27s0,.04-.02.04-.02.02-.02.04v.09c0,.21-.06.52-.18.95-.12.43-.21.7-.27.82-.03.21-.1.28-.2.22-.1-.06-.23-.09-.38-.09l.09,2.74c.15-.12.32-.35.53-.71s.43-.72.66-1.1c.24-.38.46-.74.66-1.06.21-.32.38-.52.53-.57.47-.21.85-.41,1.15-.62.29-.21.55-.43.77-.69.22-.25.43-.53.62-.84.19-.31.43-.69.73-1.13.15-.21.24-.43.26-.66.03-.24.16-.43.4-.57.18.06.29.23.33.51.04.28.07.45.07.51l1.5-1.46c.12-.12.21-.27.29-.44.07-.18.16-.34.26-.49.1-.15.21-.28.33-.4s.28-.18.49-.18c.41,0,.81.13,1.19.38.38.25.71.56.99.93.28.37.51.77.68,1.19.18.43.27.82.27,1.17-.35,0-.58-.04-.68-.11-.1-.07-.3-.11-.6-.11,0,.35.01.55.04.6.03.04.08.04.15-.02.07-.06.18-.11.31-.15.13-.04.3,0,.51.15.21.18.33.35.38.53s.07.34.09.49c.01.15.07.28.15.4.09.12.31.21.66.27.03.09,0,.21-.09.35-.09.15-.18.3-.29.46-.1.16-.19.32-.26.46-.07.15-.07.24.02.27l.97.62-.66,1.02c-.06.09-.04.16.04.22.09.06.19.11.31.15s.24.1.35.15c.12.06.19.13.22.22,0,.06-.07.1-.2.13-.13.03-.28.06-.44.09-.16.03-.3.06-.42.09-.12.03-.16.07-.13.13.03.12.18.27.46.44.28.18.57.35.86.53s.57.35.82.53c.25.18.38.32.38.44s-.1.16-.29.13c-.19-.03-.41-.07-.64-.13-.24-.06-.46-.1-.69-.13-.22-.03-.36,0-.42.09l.44.88c.12.24.21.44.29.6.07.16.12.24.16.24l1.02-1.15s.06.07.09.31c.03.24.04.34.04.31h.09c.27,0,.48.06.64.18.16.12.31.26.44.42.13.16.26.31.4.44.13.13.32.21.55.24v2.78c-.24.18-.42.39-.55.64-.13.25-.26.49-.4.71-.13.22-.29.41-.46.57-.18.16-.41.24-.71.24h-.26c-.5-.21-.99-.38-1.48-.53s-.98-.35-1.48-.62c-.29-.15-.46-.38-.51-.69-.04-.31-.06-.65-.04-1.02.01-.37.02-.72.02-1.06s-.1-.61-.31-.82c-.06.06-.1.16-.13.31-.03.15-.07.29-.11.44-.04.15-.1.28-.16.4-.06.12-.15.18-.26.18h-.09c-.06,0-.09-.01-.09-.04s-.02-.21-.04-.55c-.03-.34-.05-.7-.07-1.08-.01-.38-.04-.73-.07-1.04-.03-.31-.06-.48-.09-.51,0-.03-.05.02-.15.15-.1.13-.21.29-.33.46-.12.18-.23.33-.33.46-.1.13-.17.18-.2.15-.06-.06-.11-.17-.15-.33-.04-.16-.1-.36-.16-.6l-.13-.75-.22-1.41.58-.97ZM34.65,31.69c-.15,0-.22.07-.22.22s.07.22.22.22c.12,0,.18-.07.18-.22s-.06-.22-.18-.22ZM35.05,28.46c-.09,0-.13.07-.13.22s.04.22.13.22c.12,0,.18-.07.18-.22s-.06-.22-.18-.22ZM35.89,1.86l.26-.18h-.26v.18ZM36.95,1.24c.03-.06,0-.09-.09-.09s-.13.03-.13.09c.03.06.07.09.13.09s.09-.03.09-.09ZM37.39,1.41c-.06-.03-.09,0-.09.11s.03.15.09.15c.06-.03.09-.07.09-.13s-.03-.1-.09-.13ZM38.89,26.3c-.09.15-.21.26-.35.33-.15.07-.29.14-.42.2-.13.06-.24.13-.33.22-.09.09-.13.22-.13.4.29,0,.58-.02.86-.07.28-.04.42-.26.42-.64v-.2c0-.1-.02-.18-.04-.24ZM38.41,18.39c0,.09.02.2.07.33.04.13.14.2.29.2.03,0,.05,0,.07-.02.01-.01.04-.02.07-.02-.06-.32-.22-.49-.49-.49ZM39.03,27.85c0,.12.09.29.27.51.18.22.32.33.44.33h.18l.62-.84v-.27c-.06-.06-.1-.12-.13-.18-.06-.12-.09-.19-.09-.22l.18-.27c.06-.06.1-.12.13-.2.03-.07.06-.14.09-.2l.27-.18c0-.06-.03-.17-.09-.33-.06-.16-.12-.27-.18-.33l-.04-.04h-.04l-.09.04c-.06.24-.21.47-.46.71-.25.24-.38.43-.38.57,0,.09,0,.18.02.27.01.09.08.16.2.22-.09,0-.21.02-.38.07-.16.04-.26.07-.29.07-.03.03-.07.07-.13.11-.06.04-.09.1-.09.15ZM40.79,23.96h.22v-.18l-.22.18ZM45.26,17.99l.22-.13h-.22v.13ZM47.2,15.25c-.09.15-.21.26-.35.33-.15.07-.29.14-.42.2-.13.06-.24.13-.33.22-.09.09-.13.22-.13.4.29,0,.58-.02.86-.07.28-.04.42-.26.42-.64v-.2c0-.1-.01-.18-.04-.24ZM47.38,23.65c0-.06,0-.11-.02-.15-.02-.04-.02-.1-.02-.15l.04.31ZM48.71,13.52c-.03.06-.07.11-.13.15-.06.04-.1.08-.13.11h.27c.06,0,.12-.09.18-.27h-.18ZM49.15,15.12c-.15,0-.22.06-.22.18s.07.18.22.18c.09,0,.13-.06.13-.18s-.04-.18-.13-.18ZM51.89,30.19c-.12,0-.18.06-.18.18s.06.18.18.18c.09,0,.13-.06.13-.18s-.04-.18-.13-.18ZM52.91,29.35c-.09,0-.13.07-.13.2s.04.2.13.2c.15,0,.22-.07.22-.2s-.07-.2-.22-.2ZM55.07,27.62c-.26,0-.42.1-.46.31-.04.21-.07.41-.07.62.24,0,.38-.12.44-.35.06-.24.09-.43.09-.57ZM55.69,27.4c-.12.06-.19.15-.22.29-.03.13-.04.26-.04.38h.27v-.66Z"/>
      <path class="cls-1" d="M79.51,31.65c-.24.03-.52.02-.86-.04-.34-.06-.68-.15-1.04-.29-.35-.13-.68-.29-.97-.46-.29-.18-.5-.37-.62-.57v-.22c-.09-.44-.23-.79-.42-1.04-.19-.25-.39-.46-.6-.62-.21-.16-.4-.31-.57-.44-.18-.13-.31-.3-.4-.51-.03-.06-.04-.14-.02-.24.01-.1.02-.21.02-.31s-.03-.18-.09-.22c-.06-.04-.18-.05-.35-.02-.03.03-.07.12-.11.27-.04.15-.08.25-.11.31-.06.18-.18.36-.35.55-.18.19-.38.38-.6.55-.22.18-.41.35-.58.53s-.24.37-.24.57v.22c.06-.03.17-.07.33-.13.16-.06.27-.09.33-.09.03,0,.07.03.11.09.04.06.08.1.11.13v.04s.01.06.04.09c0,.15-.03.23-.09.24-.06.02-.12.02-.2.02s-.14.02-.2.07c-.06.04-.09.15-.09.33-.03,0-.1.09-.2.27-.1.18-.17.27-.2.27,0-.06-.1-.07-.31-.04-.21.03-.32.03-.35,0-.15-.24-.26-.34-.33-.31-.07.03-.23.04-.46.04-.12.18-.29.3-.53.38-.24.07-.48.15-.73.24-.25.09-.46.19-.64.31s-.26.28-.26.49h-2.48c-.03.15-.1.22-.2.22h-.33c-.74,0-1.42-.15-2.05-.44-.63-.29-.95-.82-.95-1.59,0-.27,0-.5.02-.71.01-.21.1-.44.24-.71-.06-.06-.17-.11-.33-.15-.16-.04-.27-.07-.33-.07s-.17.02-.33.07c-.16.04-.27.1-.33.15.06.06.1.15.13.29.03.13.04.23.04.29,0,.03,0,.08.02.15.01.07.02.13.02.15-.35,0-.61-.1-.77-.31s-.28-.46-.35-.75c-.07-.29-.11-.6-.11-.91s-.03-.57-.09-.77c0-.03-.03-.1-.09-.22-.06-.12-.13-.24-.22-.38-.09-.13-.17-.26-.24-.38-.07-.12-.11-.19-.11-.22-.03-.09-.07-.24-.11-.44-.04-.21-.09-.43-.13-.69-.04-.25-.09-.48-.13-.69-.04-.21-.07-.35-.07-.44.06-.03.14-.09.24-.18s.17-.16.2-.22v-.04c0-.21-.04-.38-.11-.53-.07-.15-.11-.29-.11-.44s.04-.32.13-.51c.09-.19.22-.29.4-.29h.13c.06.03.11.09.16.18s.07.16.07.22l.4-.18c-.09-.18-.22-.29-.4-.35-.18-.06-.35-.11-.51-.15-.16-.04-.31-.1-.44-.18-.13-.07-.2-.2-.2-.38,0-.12.04-.2.13-.24.09-.04.19-.07.31-.09.12-.01.22-.04.31-.09s.13-.15.13-.33h1.37v-.4l-1.1-.44v-.27c0-.56.09-.96.29-1.19.19-.24.41-.4.66-.49.25-.09.49-.15.73-.18.24-.03.4-.13.49-.31-.03,0-.1-.02-.2-.07-.1-.04-.17-.1-.2-.15l-.04-.09c0-.27.08-.45.24-.55.16-.1.35-.18.57-.22.22-.04.44-.09.66-.13.22-.04.39-.11.51-.2.03,0,.04-.1.04-.31,0-.09-.02-.18-.04-.27.06-.06.18-.17.38-.33.19-.16.3-.27.33-.33v-.35l-.44-.62v-.22c.03-.06.1-.13.2-.22.1-.09.18-.15.24-.18l.09-.04.09.04c.06.03.12.07.18.13.06.06.09.1.09.13h1.72c0,.06.03.13.09.22.06.09.12.13.18.13.41.03.72-.04.93-.22s.4-.38.58-.6c.18-.22.39-.42.64-.6.25-.18.61-.25,1.08-.22.09,0,.29.11.62.33.32.22.68.47,1.06.75.38.28.75.55,1.1.82s.6.44.75.53c.15.09.28.23.4.42.12.19.22.41.31.66.09.25.15.49.2.71.04.22.05.39.02.51.18.03.32.11.42.24s.2.27.29.42c.09.15.18.27.27.38.09.1.22.15.4.15-.03.09-.01.22.04.4.06.18.12.37.2.57.07.21.15.4.22.57s.11.31.11.4v.27l.09.09s.07.04.13.04v.13s.01.07.04.13c-.29,0-.56-.06-.8-.18s-.49-.18-.75-.18c0,.03.04.21.11.53.07.32.17.49.29.49h1.72c.06,0,.07.06.04.18-.03.12-.08.25-.16.4-.07.15-.14.29-.2.42-.06.13-.07.23-.04.29l.44,1.46c.06.24.19.34.4.31.21-.03.32.09.35.35,0,.06-.07.18-.2.35s-.18.31-.16.4c.03.15.1.27.22.35.12.09.24.17.35.24.12.07.23.16.33.27.1.1.14.21.11.33l-.13.93c0,.06.06.13.18.22.12.09.26.17.42.24.16.07.32.15.46.24.15.09.24.16.26.22,0,.03,0,.05.02.07.01.02.02.05.02.11.06.18.12.41.18.71.06.29.12.47.18.53.03.06.19.15.49.27.29.12.62.25.99.4.37.15.73.31,1.08.49s.6.34.75.49c-.26.06-.42.15-.46.29-.04.13-.05.27-.02.42.03.15.06.3.09.46.03.16-.02.31-.13.44-.12.13-.36.24-.73.33s-.92.13-1.66.13c-.18,0-.31-.04-.4-.13-.09-.09-.16-.18-.22-.29-.06-.1-.12-.22-.18-.35-.06-.13-.15-.24-.26-.33ZM62.58,25.37c.15.15.29.41.42.77.13.37.29.6.46.69.29.09.53.16.71.22.18.06.34.1.49.11.15.02.29.03.44.04.15.02.34.02.58.02.29,0,.5-.02.62-.07.12-.04.22-.1.31-.18.09-.07.18-.15.29-.24s.29-.19.55-.31c.06-.03.24-.07.55-.11.31-.04.49-.08.55-.11.35-.15.66-.47.93-.97.26-.5.47-.91.62-1.24.06-.15.19-.24.4-.29.21-.04.37-.1.49-.15v-.18s-.12-.09-.27-.18-.22-.16-.22-.22.07-.17.22-.33c.15-.16.24-.24.27-.24.24-.77.43-1.66.6-2.67.16-1.02.24-1.89.24-2.63,0-.38-.09-.69-.27-.91s-.41-.38-.71-.49c-.29-.1-.61-.17-.95-.2-.34-.03-.69-.04-1.04-.04-.09,0-.3.09-.64.27-.34.18-.69.38-1.06.6-.37.22-.7.43-1,.62-.29.19-.46.3-.49.33,0,.06-.03.2-.09.42-.06.22-.1.36-.13.42-.09.03-.16.06-.22.09-.03.03-.07.04-.13.04-.03,0-.06.02-.09.04l-.84.8s-.04.02-.04.04v.09c0,.15.04.24.13.29.09.04.13.18.13.42,0,.21,0,.38-.02.51-.01.13-.04.27-.09.4-.04.13-.1.29-.16.46-.06.18-.13.4-.22.66-.12.38-.29.67-.53.86-.24.19-.48.33-.73.42s-.46.15-.64.2c-.18.04-.27.13-.27.24,0,.27.07.44.22.53.15.09.32.15.53.18.21.03.4.06.6.09.19.03.32.13.38.31-.09.12-.22.24-.4.35-.18.12-.34.19-.49.22ZM65.24,28.02c.06-.06.03-.09-.09-.09s-.16.03-.13.09c.03.06.07.09.13.09s.09-.03.09-.09ZM65.68,27.62c-.12,0-.18.07-.18.2s.06.2.18.2.18-.07.18-.2-.06-.2-.18-.2ZM65.9,16.09h.22v-.22h-.22v.22ZM67.67,27.62c.06-.06.16-.14.31-.24.15-.1.22-.23.22-.38h-.53v.62ZM69.83,11.85c.03-.06,0-.09-.09-.09s-.13.03-.13.09c.06.06.11.09.15.09s.07-.03.07-.09ZM69.61,27.01h.22v-.18h-.22v.18ZM69.83,27.62c-.12,0-.18.07-.18.2s.06.2.18.2c.15,0,.22-.07.22-.2s-.07-.2-.22-.2ZM70.28,24.49c0,.15.07.24.2.27.13.03.26.04.38.04h.35l-.22-.8c-.12.03-.27.08-.44.15-.18.07-.26.18-.26.33ZM70.5,12.02c-.09,0-.13.07-.13.2s.04.2.13.2c.12,0,.18-.07.18-.2s-.06-.2-.18-.2ZM72.97,26.43h.4v-.44h-.4v.44Z"/>
      <path class="cls-1" d="M90.83,32c.03-.29-.02-.49-.15-.57s-.32-.19-.55-.31c-.09-.06-.22-.14-.4-.24-.18-.1-.28-.15-.31-.15-.09,0-.19.1-.31.31-.12.21-.18.34-.18.4-.09-.09-.27-.19-.55-.31-.28-.12-.48-.18-.6-.18-.18,0-.28.09-.31.27-.03.18-.16.27-.4.27l.04-.18c0-.06.02-.27.07-.62.04-.35.07-.57.07-.66v-.18c-.03.06-.1.21-.22.44-.12.24-.21.38-.27.44-.15.15-.24.25-.26.31-.03.06-.12.09-.27.09h-.18c.24-.21.35-.5.35-.88,0-.27-.02-.42-.07-.46-.04-.04-.17-.07-.38-.07,0,.03.02.08.07.15.04.07.05.13.02.15-.03.03-.09.07-.18.13-.09.06-.16.09-.22.09-.09,0-.14-.07-.15-.2-.02-.13-.02-.23-.02-.29v-.22s.04-.01.04-.04.01-.06.04-.09l.09-.09s.04-.09.02-.18c-.02-.09-.02-.15-.02-.18.06-.06.22-.11.49-.15.26-.04.4-.17.4-.38v-1.59c0-.09-.04-.15-.11-.18-.07-.03-.15-.07-.24-.11s-.17-.1-.24-.15-.11-.15-.11-.27.01-.29.04-.51c.03-.22.13-.33.31-.33,0,.29.1.47.29.53.19.06.39.09.6.09,0-.21-.07-.4-.22-.57s-.31-.33-.49-.46c-.18-.13-.34-.26-.49-.38-.15-.12-.22-.22-.22-.31,0-.18.14-.29.42-.35.28-.06.49-.09.64-.09,0,.03,0,.07.02.11.01.04.02.08.02.11.06.09.12.23.2.42.07.19.12.29.16.29h.13v-1.1l-.13.04c-.06-.03-.13-.07-.2-.11-.07-.04-.13-.08-.16-.11v-.18s.09-.02.18-.07c.09-.04.15-.07.18-.07v-.18c-.06-.12-.16-.27-.31-.44-.15-.18-.24-.27-.27-.27-.03-.03-.1-.01-.22.04s-.19.09-.22.09c0,.06-.02.12-.04.18-.03.06-.03.12,0,.18,0,.06.02.18.07.35s.08.29.11.35h-.18c-.12,0-.32-.03-.62-.09-.29-.06-.46-.13-.49-.22-.06-.18-.02-.35.11-.53.13-.18.29-.35.46-.53s.35-.34.53-.49.28-.29.31-.44c.03-.03.04-.12.02-.27-.02-.15-.02-.25-.02-.31.03,0,.1-.02.2-.07.1-.04.17-.07.2-.07l.18-.18v-1.06c.15-.06.28-.12.4-.2.12-.07.18-.18.18-.33l-.04-.09v-.09c-.21.09-.41.18-.6.27-.19.09-.41.16-.64.22l-.04-.09.04-.09.35-.35c.18-.18.29-.29.35-.35.03-.03.15-.08.35-.15.21-.07.32-.12.35-.15v-.09s0-.05.02-.07c.01-.01.02-.04.02-.07l-.04-.09v-.09c-.18.21-.38.34-.62.4-.24.06-.47.09-.71.09,0-.18.05-.31.15-.4s.21-.17.33-.24c.12-.07.23-.15.33-.24s.16-.21.16-.35-.17-.34-.51-.57-.58-.38-.73-.44h-.71s-.07-.05-.11-.15c-.04-.1-.07-.18-.07-.24-.06-.06-.07-.21-.04-.44.03-.24.04-.38.04-.44,0-.03-.04-.12-.11-.27-.07-.15-.11-.24-.11-.27v-.49s.06.02.09.07c.03.04.07.07.13.07.03.09.09.27.18.55.09.28.13.45.13.51.03,0,.06.02.09.04.03,0,.06-.01.09-.04.06-.03.15-.08.29-.15.13-.07.23-.12.29-.15-.06-.03-.12-.1-.2-.2-.07-.1-.14-.17-.2-.2v-.18c0-.06.03-.18.09-.35.06-.18.1-.29.13-.35.03,0,.06.02.09.07.03.04.06.08.09.11,0,.06.01.12.04.18l.09.18c.06.03.17.02.33-.02.16-.04.26-.07.29-.07,0-.12-.02-.29-.04-.51-.03-.22-.03-.38,0-.46,0-.12.06-.18.18-.18.06.15.1.21.13.18s.1-.04.22-.04v-.71h-1.9c0-.06.01-.15.04-.27.03-.12.04-.19.04-.22.03-.03.1-.12.2-.27.1-.15.17-.24.2-.27,0-.06,0-.21-.02-.46-.02-.25,0-.39.02-.42,0-.15.06-.22.18-.22.15.06.21.18.2.35-.02.18-.04.29-.07.35l.75-.71c-.15-.24-.35-.38-.6-.44-.25-.06-.51-.09-.77-.09,0-.03.03-.1.09-.22.06,0,.15-.02.27-.07.12-.04.21-.07.26-.07.06-.03.18-.04.38-.02.19.02.32.02.38.02,0-.03.05-.12.15-.29.1-.16.17-.32.2-.46l.04-.04s-.02-.06-.04-.09c0-.03-.03-.07-.09-.11-.06-.04-.1-.07-.13-.07-.03-.06-.08-.21-.15-.44-.07-.24-.13-.38-.15-.44.06-.03.15-.09.29-.18.13-.09.21-.16.24-.22v-.09s0-.05.02-.07c.01-.01.02-.04.02-.07s0-.05-.02-.07c-.01-.01-.02-.05-.02-.11v-.13c0-.06-.06-.18-.18-.35-.12-.18-.18-.29-.18-.35-.03-.03-.04-.12-.02-.27.01-.15.02-.24.02-.27l-.09-.09c-.06-.06-.09-.1-.09-.13-.03-.06-.05-.21-.07-.44-.02-.24-.02-.38-.02-.44h.4c0-.15-.03-.28-.09-.4-.06-.12-.09-.28-.09-.49,0-.59.28-.88.84-.88.32,0,.52.11.58.33.06.22.21.41.44.55l.13-.13V.88s.02-.1.07-.2c.04-.1.08-.15.11-.15.09,0,.27-.02.55-.07.28-.04.46-.08.55-.11l.09-.09.09-.09c.06-.03.15-.07.26-.11.12-.04.19-.07.22-.07.15,0,.22.06.22.18v.88s.05.1.15.2c.1.1.17.17.2.2.03.06.09.2.18.42.09.22.15.38.18.46.03.03.04.07.04.13v.13s-.13,0-.31.02c-.18.02-.26.1-.26.24,0,.03.03.11.09.24.06.13.09.21.09.24,0,.09,0,.24.02.44.01.21.03.42.04.64.01.22.03.42.04.6.01.18.02.28.02.31,0,.32-.07.55-.22.69-.15.13-.22.38-.22.73l.09.04h.04s.08-.06.15-.09c.07-.03.12-.06.16-.09,0,.03.01.1.04.2.03.1.04.17.04.2,0,.06-.01.15-.04.27-.03.12-.04.19-.04.22l-.09.18c-.03.06-.04.1-.04.13,0,.06-.02.16-.04.31-.03.15-.05.31-.07.49-.02.18-.03.34-.04.49s-.02.27-.02.35v1.1c-.03.09-.06.16-.09.22-.06.18-.09.28-.09.31s-.04.09-.11.18c-.07.09-.11.15-.11.18v1.81l.22.13v1.46c-.21.06-.33.21-.35.44-.03.24-.04.44-.04.62,0,.29.06.59.18.88.12.29.19.6.22.93v1.02c.06.32.13.64.22.95s.13.63.13.95c0,.24-.03.46-.09.66-.06.21-.09.43-.09.66v.53c0,.09.01.24.04.44.03.21.07.43.11.66.04.24.08.45.11.64.03.19.04.33.04.42-.12.24-.18.47-.18.71,0,.15.08.32.24.53.16.21.35.4.58.57s.44.33.66.46c.22.13.4.2.55.2h3.18c.03-.09.1-.14.2-.15.1-.01.18-.02.24-.02s.15,0,.26.02c.12.02.18.07.18.15,0,.06-.03.13-.09.22-.06.09-.09.15-.09.18,0,.12.06.18.18.18.06,0,.16-.03.29-.09.13-.06.21-.09.24-.09h.31s-.02-.12-.07-.27c-.04-.15-.07-.25-.07-.31.03,0,.07-.02.11-.07.04-.04.08-.07.11-.07.41-.15.81-.27,1.19-.35.38-.09.8-.13,1.24-.13,0,.24-.07.43-.2.57-.13.15-.27.27-.42.35s-.29.15-.42.2c-.13.04-.2.11-.2.2,0,.24.09.37.29.4.19.03.29.1.29.22,0,.15-.01.3-.04.46-.03.16-.12.24-.27.24-.24,0-.37-.07-.4-.22-.09.27-.28.52-.57.75v1.41h-.13v-.4h-.57v.44c-.06,0-.24.02-.53.07-.29.04-.41.17-.35.38h-.6c-.25,0-.45.07-.6.22h.31v.53h-2.87c-.15-.15-.32-.22-.53-.22-.03,0-.05,0-.07.02-.01.01-.04.02-.07.02h-.04c-.06.06-.13.18-.2.35s-.12.29-.15.35h-.18s-.11-.13-.24-.29c-.13-.16-.23-.24-.29-.24-.06-.06-.24-.11-.53-.15-.29-.04-.49-.05-.58-.02ZM86.36,10.56c-.06,0-.09.05-.09.15s.03.15.09.15c.09,0,.13-.05.13-.15s-.04-.15-.13-.15ZM86.94,21.08c-.09.06-.16.14-.22.24-.06.1-.12.2-.18.29l.09.04h.04c.12,0,.19-.04.22-.13s.04-.16.04-.22v-.22ZM87.12,27.71c-.09,0-.13.06-.13.18s.04.18.13.18c.06,0,.09-.06.09-.18s-.03-.18-.09-.18ZM87.47,1.77c-.12,0-.18.07-.18.2s.06.2.18.2c.09,0,.13-.07.13-.2s-.04-.2-.13-.2ZM87.95,29.97c0,.24.07.38.22.44l.18-.18c-.06-.18-.19-.27-.4-.27ZM88.18,21.97c-.09,0-.13.06-.13.18s.04.18.13.18.13-.06.13-.18-.04-.18-.13-.18ZM88.35,10.39c-.09,0-.13.05-.13.15s.04.15.13.15.13-.05.13-.15-.04-.15-.13-.15ZM88.93,26.65h.13v-.18h-.13v.18ZM89.63,23.2c-.29,0-.44.13-.44.4h.44v-.4ZM89.63,2.48c-.09.09-.16.22-.22.4l-.04.18h.26c.06-.03.15-.06.27-.09.12-.03.19-.06.22-.09,0-.06-.04-.13-.13-.22-.09-.09-.15-.15-.18-.18h-.18ZM89.81,14.14c-.06,0-.11.04-.15.11-.04.07-.07.14-.07.2h.62c0-.09-.05-.16-.16-.22-.1-.06-.18-.09-.24-.09ZM89.63,1.94h.18l-.18-.18v.18ZM89.81,4.11c-.06-.03-.09,0-.09.07s.03.1.09.07c.06,0,.09-.02.09-.07s-.03-.07-.09-.07ZM89.81,15.73h.35c0-.09-.03-.18-.09-.27-.06-.09-.12-.13-.18-.13h-.09v.4ZM89.94,1.59s.1.09.22.18c.12.09.18.15.18.18.12.18.18.35.2.51.01.16.14.24.38.24,0-.24-.07-.49-.2-.77-.13-.28-.26-.51-.38-.69h-.04s-.06-.01-.09-.04l-.09.04-.09.09s-.04.06-.04.09-.01.04-.04.04v.13ZM90.12,19.62l.22-.13h-.22v.13ZM90.52,5.17l.18-.18h-.18v.18ZM91,20.73c.06-.06.04-.09-.04-.09s-.13.03-.13.09c.03.06.07.09.11.09s.07-.03.07-.09ZM91.4,3.36c-.09,0-.13.07-.13.2s.04.2.13.2.13-.07.13-.2-.04-.2-.13-.2ZM97.15,30.94h.13s.07-.03.11-.09c.04-.06.07-.1.07-.13l-.18-.18-.13.4ZM98.03,29.66c-.09,0-.13.06-.13.18s.04.18.13.18c.06,0,.09-.06.09-.18s-.03-.18-.09-.18Z"/>
      <path class="cls-1" d="M108.99,32c.03-.29-.02-.49-.15-.57s-.32-.19-.55-.31c-.09-.06-.22-.14-.4-.24-.18-.1-.28-.15-.31-.15-.09,0-.19.1-.31.31-.12.21-.18.34-.18.4-.09-.09-.27-.19-.55-.31-.28-.12-.48-.18-.6-.18-.18,0-.28.09-.31.27-.03.18-.16.27-.4.27l.04-.18c0-.06.02-.27.07-.62.04-.35.07-.57.07-.66v-.18c-.03.06-.1.21-.22.44-.12.24-.21.38-.27.44-.15.15-.24.25-.26.31-.03.06-.12.09-.27.09h-.18c.24-.21.35-.5.35-.88,0-.27-.02-.42-.07-.46-.04-.04-.17-.07-.38-.07,0,.03.02.08.07.15.04.07.05.13.02.15-.03.03-.09.07-.18.13-.09.06-.16.09-.22.09-.09,0-.14-.07-.15-.2-.02-.13-.02-.23-.02-.29v-.22s.04-.01.04-.04.01-.06.04-.09l.09-.09s.04-.09.02-.18c-.02-.09-.02-.15-.02-.18.06-.06.22-.11.49-.15.26-.04.4-.17.4-.38v-1.59c0-.09-.04-.15-.11-.18-.07-.03-.15-.07-.24-.11s-.17-.1-.24-.15-.11-.15-.11-.27.01-.29.04-.51c.03-.22.13-.33.31-.33,0,.29.1.47.29.53.19.06.39.09.6.09,0-.21-.07-.4-.22-.57s-.31-.33-.49-.46c-.18-.13-.34-.26-.49-.38-.15-.12-.22-.22-.22-.31,0-.18.14-.29.42-.35.28-.06.49-.09.64-.09,0,.03,0,.07.02.11.01.04.02.08.02.11.06.09.12.23.2.42.07.19.12.29.16.29h.13v-1.1l-.13.04c-.06-.03-.13-.07-.2-.11-.07-.04-.13-.08-.16-.11v-.18s.09-.02.18-.07c.09-.04.15-.07.18-.07v-.18c-.06-.12-.16-.27-.31-.44-.15-.18-.24-.27-.27-.27-.03-.03-.1-.01-.22.04s-.19.09-.22.09c0,.06-.02.12-.04.18-.03.06-.03.12,0,.18,0,.06.02.18.07.35s.08.29.11.35h-.18c-.12,0-.32-.03-.62-.09-.29-.06-.46-.13-.49-.22-.06-.18-.02-.35.11-.53.13-.18.29-.35.46-.53s.35-.34.53-.49.28-.29.31-.44c.03-.03.04-.12.02-.27-.02-.15-.02-.25-.02-.31.03,0,.1-.02.2-.07.1-.04.17-.07.2-.07l.18-.18v-1.06c.15-.06.28-.12.4-.2.12-.07.18-.18.18-.33l-.04-.09v-.09c-.21.09-.41.18-.6.27-.19.09-.41.16-.64.22l-.04-.09.04-.09.35-.35c.18-.18.29-.29.35-.35.03-.03.15-.08.35-.15.21-.07.32-.12.35-.15v-.09s0-.05.02-.07c.01-.01.02-.04.02-.07l-.04-.09v-.09c-.18.21-.38.34-.62.4-.24.06-.47.09-.71.09,0-.18.05-.31.15-.4s.21-.17.33-.24c.12-.07.23-.15.33-.24s.16-.21.16-.35-.17-.34-.51-.57-.58-.38-.73-.44h-.71s-.07-.05-.11-.15c-.04-.1-.07-.18-.07-.24-.06-.06-.07-.21-.04-.44.03-.24.04-.38.04-.44,0-.03-.04-.12-.11-.27-.07-.15-.11-.24-.11-.27v-.49s.06.02.09.07c.03.04.07.07.13.07.03.09.09.27.18.55.09.28.13.45.13.51.03,0,.06.02.09.04.03,0,.06-.01.09-.04.06-.03.15-.08.29-.15.13-.07.23-.12.29-.15-.06-.03-.12-.1-.2-.2-.07-.1-.14-.17-.2-.2v-.18c0-.06.03-.18.09-.35.06-.18.1-.29.13-.35.03,0,.06.02.09.07.03.04.06.08.09.11,0,.06.01.12.04.18l.09.18c.06.03.17.02.33-.02.16-.04.26-.07.29-.07,0-.12-.02-.29-.04-.51-.03-.22-.03-.38,0-.46,0-.12.06-.18.18-.18.06.15.1.21.13.18s.1-.04.22-.04v-.71h-1.9c0-.06.01-.15.04-.27.03-.12.04-.19.04-.22.03-.03.1-.12.2-.27.1-.15.17-.24.2-.27,0-.06,0-.21-.02-.46-.02-.25,0-.39.02-.42,0-.15.06-.22.18-.22.15.06.21.18.2.35-.02.18-.04.29-.07.35l.75-.71c-.15-.24-.35-.38-.6-.44-.25-.06-.51-.09-.77-.09,0-.03.03-.1.09-.22.06,0,.15-.02.27-.07.12-.04.21-.07.26-.07.06-.03.18-.04.38-.02.19.02.32.02.38.02,0-.03.05-.12.15-.29.1-.16.17-.32.2-.46l.04-.04s-.02-.06-.04-.09c0-.03-.03-.07-.09-.11-.06-.04-.1-.07-.13-.07-.03-.06-.08-.21-.15-.44-.07-.24-.13-.38-.15-.44.06-.03.15-.09.29-.18.13-.09.21-.16.24-.22v-.09s0-.05.02-.07c.01-.01.02-.04.02-.07s0-.05-.02-.07c-.01-.01-.02-.05-.02-.11v-.13c0-.06-.06-.18-.18-.35-.12-.18-.18-.29-.18-.35-.03-.03-.04-.12-.02-.27.01-.15.02-.24.02-.27l-.09-.09c-.06-.06-.09-.1-.09-.13-.03-.06-.05-.21-.07-.44-.02-.24-.02-.38-.02-.44h.4c0-.15-.03-.28-.09-.4-.06-.12-.09-.28-.09-.49,0-.59.28-.88.84-.88.32,0,.52.11.58.33.06.22.21.41.44.55l.13-.13V.88s.02-.1.07-.2c.04-.1.08-.15.11-.15.09,0,.27-.02.55-.07.28-.04.46-.08.55-.11l.09-.09.09-.09c.06-.03.15-.07.26-.11.12-.04.19-.07.22-.07.15,0,.22.06.22.18v.88s.05.1.15.2c.1.1.17.17.2.2.03.06.09.2.18.42.09.22.15.38.18.46.03.03.04.07.04.13v.13s-.13,0-.31.02c-.18.02-.26.1-.26.24,0,.03.03.11.09.24.06.13.09.21.09.24,0,.09,0,.24.02.44.01.21.03.42.04.64.01.22.03.42.04.6.01.18.02.28.02.31,0,.32-.07.55-.22.69-.15.13-.22.38-.22.73l.09.04h.04s.08-.06.15-.09c.07-.03.12-.06.16-.09,0,.03.01.1.04.2.03.1.04.17.04.2,0,.06-.01.15-.04.27-.03.12-.04.19-.04.22l-.09.18c-.03.06-.04.1-.04.13,0,.06-.02.16-.04.31-.03.15-.05.31-.07.49-.02.18-.03.34-.04.49s-.02.27-.02.35v1.1c-.03.09-.06.16-.09.22-.06.18-.09.28-.09.31s-.04.09-.11.18c-.07.09-.11.15-.11.18v1.81l.22.13v1.46c-.21.06-.33.21-.35.44-.03.24-.04.44-.04.62,0,.29.06.59.18.88.12.29.19.6.22.93v1.02c.06.32.13.64.22.95s.13.63.13.95c0,.24-.03.46-.09.66-.06.21-.09.43-.09.66v.53c0,.09.01.24.04.44.03.21.07.43.11.66.04.24.08.45.11.64.03.19.04.33.04.42-.12.24-.18.47-.18.71,0,.15.08.32.24.53.16.21.35.4.58.57s.44.33.66.46c.22.13.4.2.55.2h3.18c.03-.09.1-.14.2-.15.1-.01.18-.02.24-.02s.15,0,.26.02c.12.02.18.07.18.15,0,.06-.03.13-.09.22-.06.09-.09.15-.09.18,0,.12.06.18.18.18.06,0,.16-.03.29-.09.13-.06.21-.09.24-.09h.31s-.02-.12-.07-.27c-.04-.15-.07-.25-.07-.31.03,0,.07-.02.11-.07.04-.04.08-.07.11-.07.41-.15.81-.27,1.19-.35.38-.09.8-.13,1.24-.13,0,.24-.07.43-.2.57-.13.15-.27.27-.42.35s-.29.15-.42.2c-.13.04-.2.11-.2.2,0,.24.09.37.29.4.19.03.29.1.29.22,0,.15-.01.3-.04.46-.03.16-.12.24-.27.24-.24,0-.37-.07-.4-.22-.09.27-.28.52-.57.75v1.41h-.13v-.4h-.57v.44c-.06,0-.24.02-.53.07-.29.04-.41.17-.35.38h-.6c-.25,0-.45.07-.6.22h.31v.53h-2.87c-.15-.15-.32-.22-.53-.22-.03,0-.05,0-.07.02-.01.01-.04.02-.07.02h-.04c-.06.06-.13.18-.2.35s-.12.29-.15.35h-.18s-.11-.13-.24-.29c-.13-.16-.23-.24-.29-.24-.06-.06-.24-.11-.53-.15-.29-.04-.49-.05-.58-.02ZM104.53,10.56c-.06,0-.09.05-.09.15s.03.15.09.15c.09,0,.13-.05.13-.15s-.04-.15-.13-.15ZM105.1,21.08c-.09.06-.16.14-.22.24-.06.1-.12.2-.18.29l.09.04h.04c.12,0,.19-.04.22-.13s.04-.16.04-.22v-.22ZM105.28,27.71c-.09,0-.13.06-.13.18s.04.18.13.18c.06,0,.09-.06.09-.18s-.03-.18-.09-.18ZM105.63,1.77c-.12,0-.18.07-.18.2s.06.2.18.2c.09,0,.13-.07.13-.2s-.04-.2-.13-.2ZM106.12,29.97c0,.24.07.38.22.44l.18-.18c-.06-.18-.19-.27-.4-.27ZM106.34,21.97c-.09,0-.13.06-.13.18s.04.18.13.18.13-.06.13-.18-.04-.18-.13-.18ZM106.52,10.39c-.09,0-.13.05-.13.15s.04.15.13.15.13-.05.13-.15-.04-.15-.13-.15ZM107.09,26.65h.13v-.18h-.13v.18ZM107.8,23.2c-.29,0-.44.13-.44.4h.44v-.4ZM107.8,2.48c-.09.09-.16.22-.22.4l-.04.18h.26c.06-.03.15-.06.27-.09.12-.03.19-.06.22-.09,0-.06-.04-.13-.13-.22-.09-.09-.15-.15-.18-.18h-.18ZM107.98,14.14c-.06,0-.11.04-.15.11-.04.07-.07.14-.07.2h.62c0-.09-.05-.16-.16-.22-.1-.06-.18-.09-.24-.09ZM107.8,1.94h.18l-.18-.18v.18ZM107.98,4.11c-.06-.03-.09,0-.09.07s.03.1.09.07c.06,0,.09-.02.09-.07s-.03-.07-.09-.07ZM107.98,15.73h.35c0-.09-.03-.18-.09-.27-.06-.09-.12-.13-.18-.13h-.09v.4ZM108.11,1.59s.1.09.22.18c.12.09.18.15.18.18.12.18.18.35.2.51.01.16.14.24.38.24,0-.24-.07-.49-.2-.77-.13-.28-.26-.51-.38-.69h-.04s-.06-.01-.09-.04l-.09.04-.09.09s-.04.06-.04.09-.01.04-.04.04v.13ZM108.29,19.62l.22-.13h-.22v.13ZM108.68,5.17l.18-.18h-.18v.18ZM109.17,20.73c.06-.06.04-.09-.04-.09s-.13.03-.13.09c.03.06.07.09.11.09s.07-.03.07-.09ZM109.57,3.36c-.09,0-.13.07-.13.2s.04.2.13.2.13-.07.13-.2-.04-.2-.13-.2ZM115.31,30.94h.13s.07-.03.11-.09c.04-.06.07-.1.07-.13l-.18-.18-.13.4ZM116.2,29.66c-.09,0-.13.06-.13.18s.04.18.13.18c.06,0,.09-.06.09-.18s-.03-.18-.09-.18Z"/>
      <path class="cls-1" d="M131.62,32.44c-.06.06-.11.15-.15.29-.04.13-.07.21-.07.24,0-.12-.04-.18-.13-.18-.06,0-.21,0-.44.02-.24.01-.38,0-.44-.02-.03,0-.18-.04-.44-.13-.27-.09-.47-.16-.62-.22-.03,0-.07-.02-.13-.04l-.18-.09h-.18l-.09.09s-.06.04-.09.04l-.09.04-.04-.04c.03-.06.01-.17-.04-.33-.06-.16-.12-.27-.18-.33s-.2-.12-.42-.18c-.22-.06-.36-.09-.42-.09v-.4l-.71.49s-.04,0-.13-.11c-.09-.1-.15-.18-.18-.24-.06-.06-.07-.18-.02-.35.04-.18,0-.28-.15-.31-.15.06-.22.13-.22.22v.27c0,.09-.03.17-.09.24-.06.07-.21.11-.44.11-.53,0-.87-.07-1.02-.22-.15-.15-.22-.32-.22-.53s0-.4.02-.6c.01-.19-.08-.32-.29-.38-.06-.03-.22-.06-.49-.09-.27-.03-.46-.04-.57-.04l.22-.4c-.29-.03-.55-.12-.75-.27-.21-.15-.38-.33-.53-.55-.15-.22-.29-.46-.42-.71-.13-.25-.26-.48-.38-.69-.03-.03-.1-.13-.22-.31s-.21-.31-.26-.4c-.38-.47-.62-.87-.71-1.19-.09-.32-.21-.72-.35-1.19l-.09-.09-.09-.09c-.03-.12-.07-.35-.11-.71-.04-.35-.07-.57-.07-.66v-.31c0-.21.03-.4.09-.57.06-.18.09-.38.09-.62v-.22s-.03-.09-.09-.18c-.06-.09-.09-.15-.09-.18v-.8c0-.12.01-.33.04-.64.03-.31.07-.63.13-.97.06-.34.15-.63.26-.88.12-.25.27-.38.44-.38,0,.15-.03.27-.09.38-.06.1-.09.21-.09.33.12,0,.29.02.53.04.24.03.4-.03.49-.18.03-.06.07-.18.13-.35s.09-.28.09-.31h.13v.4c.06,0,.15.02.26.07.12.04.19.05.22.02l.09-.09.09-.09c.06,0,.18-.02.38-.07.19-.04.3-.08.33-.11v-.22c0-.32-.07-.63-.22-.91-.15-.28-.22-.6-.22-.95.18,0,.34.03.49.09s.31.09.49.09.28-.06.31-.18c-.06-.15-.16-.22-.29-.22s-.26-.03-.38-.09l-.04-.09c0-.12.06-.27.18-.46.12-.19.19-.35.22-.46.03,0,.11,0,.24-.02.13-.01.23-.02.29-.02s.24.02.55.04c.31.03.46.13.46.31,0,.03-.03.09-.09.18-.06.09-.09.15-.09.18v.13c.24,0,.51-.03.84-.09.32-.06.56-.19.71-.4.06-.06.11-.23.15-.51.04-.28.14-.42.29-.42,0,.29.16.44.49.44.09,0,.2,0,.33-.02.13-.01.23-.07.29-.15.03-.09.03-.18,0-.27l-.09-.18h-.62c.06,0,.1-.04.13-.11.03-.07.04-.12.04-.15,0-.06-.02-.15-.04-.29-.03-.13-.07-.2-.13-.2.03,0,.06-.01.09-.04l.09.04s.11.04.24.13.23.15.29.18c.06.03.21.07.44.11.24.04.38.13.44.24.06.24.1.47.13.71.03.24.15.46.35.66.03,0,.06,0,.09-.02.03-.01.06-.02.09-.02v-.35l.09.04h.04s.1.1.2.2c.1.1.17.15.2.15h.13c.09,0,.24-.02.46-.07.22-.04.36-.08.42-.11v-.09c0-.15-.1-.24-.29-.29-.19-.04-.32-.1-.38-.15l-.04-.04s.01-.06.04-.09c.03-.06.08-.14.16-.24.07-.1.12-.15.15-.15.06,0,.18.06.35.18.18.12.29.19.35.22h.04c.32,0,.51-.11.57-.33.06-.22.19-.4.4-.55.06.06.15.18.27.35.12.18.21.29.26.35.03,0,.06.04.09.13s.06.15.09.18l.09.04.04-.04s.07-.03.13-.09c.03-.03.06-.04.09-.04v-1.41l.31-.13c-.06.32-.05.66.02,1.02.07.35.18.69.33,1.02l.27-.13v-1.64s.06.04.09.04c.03,0,.06,0,.09.02.03.02.06.02.09.02.09,0,.13.04.13.13.06.06.11.23.16.51.04.28.07.46.07.55h.18s.09-.09.18-.18c.09-.09.15-.16.18-.22h1.5c-.06.06-.13.18-.2.38-.07.19-.11.32-.11.38-.03.03-.02.08.02.15.04.07.08.13.11.15.06.06.2.1.42.13.22.03.38.04.46.04-.03.09-.1.13-.2.13s-.21,0-.33.02c-.12.02-.24.05-.38.11-.13.06-.23.21-.29.44,0-.09-.03-.24-.09-.46-.06-.22-.1-.36-.13-.42,0-.06-.01-.15-.04-.27-.03-.12-.06-.21-.09-.27-.09-.15-.16-.2-.2-.15-.04.04-.14.07-.29.07,0,.41.06.72.18.93.12.21.18.5.18.88h-.31l-.09.18.53.53s.05.03.07,0c.01-.03.04-.04.07-.04v-.13l-.09-.18c-.03-.06-.04-.12-.04-.18,0-.03.01-.06.04-.09l.09-.09h.13c.21,0,.34.11.4.33.06.22.06.41,0,.55.09-.29.21-.47.35-.53.15-.06.38-.09.71-.09v.84c.32,0,.54-.01.64-.04.1-.03.29.03.55.18-.03,0-.08.02-.16.04s-.14.06-.2.09v.13c0,.24.15.38.44.44.29.06.52.09.66.09,0,.03-.01.04-.04.04-.03.06-.07.13-.11.22s-.08.13-.11.13c-.06,0-.12-.01-.18-.04-.06-.03-.12-.05-.18-.07-.06-.01-.1-.04-.13-.07l-.18-.09-.18-.09s-.09.02-.18.07c-.09.04-.15.08-.18.11.32.29.62.65.88,1.06-.18.15-.33.2-.46.15-.13-.04-.3-.07-.51-.07-.03.06-.04.1-.04.13v.09c.03.06.08.15.15.27.07.12.12.19.16.22.03.06.12.15.29.29.16.13.24.21.24.24,0,.09-.04.22-.13.4s-.16.28-.22.31c-.03-.15-.15-.22-.35-.22-.06,0-.12,0-.18.02-.06.02-.1.08-.13.2.12.03.18.1.18.22v.31c0,.21-.04.35-.13.42-.09.07-.2.13-.33.15-.13.03-.29.04-.46.04s-.34.02-.49.04c-.18.06-.23.18-.16.35.07.18.02.29-.15.35-.09-.18-.17-.28-.24-.31-.07-.03-.18-.04-.33-.04-.32,0-.52.07-.6.22-.07.15-.2.25-.38.31l-.35-.18c-.06-.03-.15-.09-.27-.18-.12-.09-.21-.15-.27-.18l-.13.18.13.18c-.12.18-.19.35-.22.51-.03.16-.06.32-.09.46-.03.15-.08.29-.16.42-.07.13-.21.24-.42.33.09-.21.09-.4,0-.6-.09-.19-.25-.29-.49-.29-.15,0-.26.05-.33.15-.07.1-.14.23-.2.38,0-.03,0-.07-.02-.13-.02-.06-.02-.1-.02-.13,0-.06,0-.11.02-.15.01-.04.02-.08.02-.11s.03-.11.09-.24c.06-.13.09-.21.09-.24,0-.12-.06-.18-.18-.18h-.26c-.15,0-.35.06-.6.18-.25.12-.38.25-.38.4,0,.03.01.06.04.09.03.06.12.13.27.2.15.07.24.14.26.2.03.03.03.19,0,.49-.03.29-.03.47,0,.53,0,.03.01.07.04.13l.09.18v.04s.01.06.04.09c-.24.15-.43.27-.57.35s-.29.16-.44.22c-.15.06-.24.09-.26.09,0-.24.07-.41.22-.53.15-.12.22-.29.22-.53s-.05-.35-.15-.35h-.46c0,.06.01.14.04.24.03.1.04.18.04.24-.03.12-.1.32-.22.62-.06.12-.1.25-.13.4h-.09c0-.09-.02-.24-.07-.44-.04-.21-.17-.28-.38-.22-.12,0-.35.04-.68.11-.34.07-.58.14-.73.2-.03.03-.07.06-.13.09l-.18.09h-.27c0-.32-.15-.6-.44-.84,0,.03-.06.04-.18.04v.84c-.21,0-.33-.12-.38-.35s-.17-.35-.38-.35c0,.09-.01.23-.04.42-.03.19-.04.33-.04.42,0,.06.04.18.13.35.09.18.16.28.22.31l.27.09c.18.06.31.09.4.09.41.09.8.17,1.17.24.37.07.73.17,1.08.29.32.12.67.2,1.04.24.37.04.71.14,1.04.29.09.03.22.08.4.15.18.07.26.13.26.15.03.03.06.12.09.27.03.15.06.24.09.27.03,0,.13.03.31.09.18.06.31.09.4.09h.18c.18,0,.33-.03.46-.09.13-.06.29-.09.46-.09.32,0,.6.04.84.11.24.07.53.11.88.11,0,.24.06.38.18.42.12.04.25.07.4.07.24,0,.38-.04.42-.11.04-.07.14-.11.29-.11.12,0,.19.03.22.09.03.06.04.13.04.2s.01.14.04.2c.03.06.1.09.22.09.21,0,.29-.1.24-.29-.04-.19.04-.29.24-.29.03,0,.07,0,.11.02.04.02.08.02.11.02.06.03.13.04.22.04s.18.02.27.04c.12.03.24.04.35.04.12.06.18.16.18.31s.09.22.26.22h.04l.88-.84h1.55l-.13.18c.09.21.27.32.55.33.28.02.49.13.64.33l-.4.22c0,.21-.02.4-.04.57-.03.15-.05.32-.07.51-.02.19-.02.35-.02.46-.03.15-.06.23-.09.24-.03.02-.12.02-.27.02v.22h.49v.88h-.04c-.06,0-.09-.02-.09-.04-.03,0-.06-.02-.09-.07-.03-.04-.06-.07-.09-.07-.06-.06-.18-.13-.35-.22s-.29-.15-.35-.18l-.09.04c0,.15.01.24.04.27.03.03.07.04.11.04s.08,0,.11.02.04.07.04.15c0,.15-.05.27-.15.38-.1.1-.23.15-.38.15h-.22s-.19-.06-.49-.09c-.29-.03-.47-.06-.53-.09h-.18l-.09.09s-.04.06-.04.09c-.06,0-.15.01-.27.04-.12.03-.21.04-.26.04v-.62c-.59.06-1.11.24-1.55.53v-.8s-.06-.04-.09-.04h-.09s-.07.11-.11.24c-.04.13-.07.23-.07.29h-.84l-.22.31s-.04-.09-.13-.18c-.06,0-.18-.03-.35-.09-.12-.03-.22-.04-.31-.04-.06-.06-.04-.14.04-.24.09-.1.13-.18.13-.24-.03,0-.12,0-.27-.02-.15-.02-.24-.02-.26-.02l-.09.09-.09.09c-.06,0-.18,0-.35.02-.18.01-.29.02-.35.02v-.44s-.06.07-.09.13c-.03.06-.06.09-.09.09h-.13s-.07-.03-.13-.09c-.06-.06-.09-.1-.09-.13h-.18c-.15.09-.25.21-.31.38-.06.16-.11.32-.15.49-.04.16-.1.29-.15.4-.06.1-.13.15-.22.15-.15,0-.24-.04-.26-.13-.03-.09-.05-.19-.07-.31-.02-.12-.04-.22-.07-.31s-.13-.13-.31-.13h-.13ZM119.73,17.5c-.09,0-.13.05-.13.15s.04.15.13.15c.06,0,.09-.05.09-.15s-.03-.15-.09-.15ZM121.28,19.05c-.09,0-.13.05-.13.15s.04.15.13.15c.06,0,.09-.05.09-.15s-.03-.15-.09-.15ZM121.41,18.17c-.12.09-.18.22-.18.4.18,0,.31-.07.4-.22l-.22-.18ZM121.41,21.13c.03-.06,0-.09-.07-.09s-.1.03-.07.09c.03.06.06.09.09.09s.04-.03.04-.09ZM122.17,16.97c-.15,0-.25.1-.31.31-.06.21-.09.34-.09.4.06,0,.19-.06.4-.18.21-.12.31-.21.31-.27v-.09c-.06-.06-.12-.1-.18-.13-.06-.03-.1-.04-.13-.04ZM122.3,17.64c-.06-.03-.09.04-.09.2s.03.23.09.2c.06-.06.09-.12.09-.2s-.03-.14-.09-.2ZM123.45,22.85c0,.06-.02.12-.07.18-.04.06-.05.12-.02.18.03,0,.08.04.15.13s.14.15.2.18c.12-.03.18-.14.18-.33v-.38c0-.21-.04-.38-.11-.51-.07-.13-.11-.3-.11-.51,0-.15.04-.27.11-.38.07-.1.18-.15.33-.15h.09s.05.1.15.2c.1.1.17.15.2.15h.18s.07-.06.13-.09l.18-.09c.06-.03.18-.05.38-.07.19-.01.3-.05.33-.11.03-.03.06-.14.09-.33.03-.19.06-.3.09-.33.03,0,.12-.03.29-.09s.29-.09.38-.09h.18s.12.03.26.09.24.09.27.09c.21,0,.45-.1.73-.31.28-.21.49-.34.64-.4.06.27.12.46.2.57.07.12.23.18.46.18.06,0,.18,0,.38-.02.19-.01.32-.08.38-.2l.31-1.37c.15-.06.36-.13.64-.22s.49-.13.64-.13h.09c.06.03.16.09.29.18.13.09.21.15.24.18h.18s.07-.03.11-.09c.04-.06.07-.1.07-.13.03-.06.07-.22.11-.49.04-.27.07-.44.07-.53.09,0,.29-.02.6-.07.31-.04.51-.08.6-.11.12,0,.29-.03.53-.09.12-.03.24-.04.35-.04v-1.41c0,.12.04.18.13.18.12.12.27.24.44.35.09.09.18.15.27.18l.18-.18c-.24-.38-.4-.71-.49-.99-.09-.28-.33-.58-.71-.91-.15-.12-.39-.29-.73-.51-.34-.22-.6-.33-.77-.33-.33,0-.6.08-.84.24-.24.16-.47.34-.71.53-.24.19-.49.37-.77.53-.28.16-.63.24-1.04.24h-.13c-.06,0-.18-.05-.38-.15-.19-.1-.3-.17-.33-.2h-.18s-.02.11-.07.24c-.04.13-.08.23-.11.29l-.35.35s-.07.06-.13.09c-.03.03-.07.04-.13.04h-.04s-.09.1-.18.2c-.09.1-.15.17-.18.2-.06,0-.18,0-.35-.02-.18-.01-.29,0-.35.02-.03,0-.07.07-.11.22-.04.15-.07.24-.07.27s-.02.06-.07.09c-.04.03-.08.06-.11.09l-.13-.18c-.85.56-1.37,1.31-1.55,2.25-.18-.12-.32-.09-.44.09s-.21.31-.26.4c0,.06-.03.18-.09.35-.06.18-.09.29-.09.35h-.31l-.35-.84s0,.09-.02.18-.02.16-.02.22c0,.24.04.43.11.57.07.15.11.34.11.57,0,.03,0,.06-.02.09-.01.03-.02.06-.02.09v.13c-.03.06-.12.11-.27.15-.15.04-.25.05-.31.02v1.19h-.44v.22c.18,0,.33-.03.46-.09.13-.06.3-.09.51-.09ZM122.96,23.87c.03-.06,0-.09-.07-.09s-.1.03-.07.09c.03.06.06.09.09.09s.04-.03.04-.09ZM122.83,15.43s.02.06.07.09c.04.03.07.06.07.09.06,0,.18.02.38.04.19.03.32.04.38.04,0-.29-.09-.44-.27-.44h-.09c-.06,0-.15.02-.27.07-.12.04-.21.08-.26.11ZM123.36,15.96c-.09,0-.13.05-.13.15s.04.15.13.15c.06,0,.09-.05.09-.15s-.03-.15-.09-.15ZM123.45,13.44c0,.24.09.41.27.53.18.12.35.18.53.18,0-.32-.06-.52-.18-.6-.12-.07-.32-.11-.62-.11ZM123.84,24.88c-.06,0-.09.06-.09.18s.03.18.09.18c.09,0,.13-.06.13-.18s-.04-.18-.13-.18ZM124.2,22.81c-.09,0-.13.07-.13.2s.04.2.13.2.13-.07.13-.2-.04-.2-.13-.2ZM124.2,14.72c0,.12.06.18.18.18.12-.03.18-.11.2-.24.01-.13.02-.23.02-.29-.09,0-.18.02-.26.07s-.13.13-.13.24v.04ZM124.2,17.5c0,.09.06.13.18.13v-.13s-.03-.07-.09-.11-.09-.08-.09-.11v.22ZM124.91,29.88c-.12,0-.18.06-.18.18v.18c.15-.06.3-.11.46-.15.16-.04.24-.17.24-.38,0-.03,0-.04-.02-.04s-.02-.01-.02-.04v-.04c-.06-.06-.17-.13-.33-.22-.16-.09-.27-.15-.33-.18l-.18.18-.04.09v.09s.01.04.04.04c0,.03.04.09.13.18.09.09.16.13.22.13ZM124.73,30.59c-.09,0-.13.05-.13.15s.04.15.13.15.13-.05.13-.15-.04-.15-.13-.15ZM124.73,15.96h.18v-.53h-.18v.53ZM124.91,22.14c.03-.06,0-.09-.07-.09s-.11.03-.11.09.02.09.07.09.08-.03.11-.09ZM124.91,30.9c-.06,0-.09.04-.09.11s.03.11.09.11c.15-.06.15-.13,0-.22ZM125.04,14.9c.03-.06,0-.09-.07-.09s-.1.03-.07.09.06.09.09.09.04-.03.04-.09ZM124.91,28.82h.31v-.13h-.31v.13ZM125.39,31.12c.03-.06,0-.09-.07-.09s-.11.03-.11.09c.03.03.07.04.11.04s.07-.01.07-.04ZM125.57,30.36c-.09,0-.13.07-.13.2s.04.2.13.2.13-.07.13-.2-.04-.2-.13-.2ZM125.57,26.25h.18v-.18h-.18v.18ZM125.75,13.88c-.09,0-.13.06-.13.18s.04.18.13.18.13-.06.13-.18-.04-.18-.13-.18ZM125.92,14.06c-.09,0-.13.06-.13.18s.04.18.13.18.13-.06.13-.18-.04-.18-.13-.18ZM126.1,16.27c-.09,0-.13.06-.13.18s.04.18.13.18.13-.06.13-.18-.04-.18-.13-.18ZM126.1,29.7h.35l-.09-.09s-.06-.04-.09-.04l-.09-.04s-.06.02-.09.04v.13ZM126.45,13.88c-.03.06-.02.15.02.27.04.12.08.21.11.27h.18l.53-.18v-.09c0-.15-.05-.3-.15-.46-.1-.16-.23-.27-.38-.33-.03.06-.09.15-.18.27-.09.12-.13.21-.13.27ZM127.29,29.66c-.15,0-.27.03-.38.09-.1.06-.15.16-.15.31h.53v-.4ZM127.65,29.57v.2c0,.07.01.14.04.2l.09.27h.22v-1.1c-.24,0-.35.15-.35.44ZM127.78,13.88c-.06,0-.09.06-.09.18s.03.18.09.18c.12,0,.18-.06.18-.18s-.06-.18-.18-.18ZM127.78,15.78c-.06,0-.09.05-.09.15s.03.15.09.15c.12,0,.18-.05.18-.15s-.06-.15-.18-.15ZM128.13,12.95c-.15,0-.27.09-.35.27h.35v-.27ZM128,15.6c.06-.18.1-.32.13-.44.03-.12.04-.27.04-.44v-.27c0-.12-.06-.19-.18-.22v1.37ZM128.53,24l.13-.13h-.35l.22.13ZM129.02,28.33c-.09,0-.13.06-.13.18s.04.18.13.18.13-.06.13-.18-.04-.18-.13-.18ZM129.19,23.34c.03-.06,0-.09-.07-.09s-.11.03-.11.09c.06.18.12.18.18,0ZM129.19,31.43c.03-.06,0-.09-.07-.09s-.11.03-.11.09c.06.18.12.18.18,0ZM129.19,14.41c.12.18.22.33.31.46.09.13.24.2.44.2h.26c.09,0,.15-.06.18-.18-.03,0-.06-.03-.09-.09-.03-.06-.06-.09-.09-.09s-.11-.02-.24-.07c-.13-.04-.21-.08-.24-.11-.03,0-.06-.05-.09-.15-.03-.1-.06-.15-.09-.15h-.22l-.09.09s-.04.06-.04.09ZM129.86,29.04c.03-.06-.02-.09-.15-.09s-.18.03-.16.09c.03.06.09.09.18.09s.13-.03.13-.09ZM130.39,29.22c.12,0,.24-.06.35-.18h-.35v.18ZM130.92,20.42h.18v-.18h-.18v.18ZM131.27,21.61v-.18h-.18l.18.18ZM131.14,19.14c0,.09.01.21.04.38.03.16.07.32.13.49.06.16.13.31.22.44.09.13.21.2.35.2l.04-.04.09-.09.09-.09c.03-.06.04-.21.04-.44v-.44c-.15,0-.28.06-.4.18-.06-.15-.13-.28-.22-.4-.09-.12-.22-.18-.4-.18ZM131.89,13.17c0,.06,0,.15.02.29.01.13.08.21.2.24.12,0,.18-.06.18-.18v-.09c0-.12-.04-.19-.13-.22-.09-.03-.18-.04-.27-.04ZM131.93,21.13h.18v-.22h-.18v.22ZM132.29,29.17c.32.18.54.35.66.53.06,0,.1-.01.13-.04l.09-.09c0-.06,0-.18.02-.38.01-.19.02-.32.02-.38-.15,0-.3.04-.46.13-.16.09-.32.16-.46.22ZM132.29,32.13h.22c0-.15-.07-.27-.22-.35v.35ZM132.77,30.01c0,.15.01.31.04.49s.15.27.35.27h.13c-.03-.18-.07-.35-.13-.51-.06-.16-.19-.24-.4-.24ZM132.91,21.26c0,.06,0,.18.02.38.01.19.09.3.24.33.15-.03.22-.14.22-.33v-.38h-.49ZM133.17,22.67v-.35l-.22.13.22.22ZM133.13,18.25s.01.06.04.09c0,.03.01.06.04.09l.09.09c.06-.24.21-.37.44-.4.24-.03.44-.01.62.04-.06-.12-.15-.18-.27-.18h-.27c-.06,0-.19,0-.4.02-.21.02-.31.1-.31.24ZM134.5,18.52c-.06.03-.14.07-.24.11-.1.04-.15.11-.15.2h.62l-.22-.31ZM134.19,13.88h.31v-.18h-.31v.18ZM134.5,31.91c-.06,0-.09.07-.09.2s.03.2.09.2c.12,0,.18-.07.18-.2s-.06-.2-.18-.2ZM135.03,21.44l.22-.18h-.35l.13.18ZM135.03,19.36c-.06,0-.09.06-.09.18s.03.18.09.18c.12,0,.18-.06.18-.18s-.06-.18-.18-.18ZM135.25,18.7c0-.06-.04-.09-.11-.09s-.11.03-.11.09c.03.06.07.09.11.09s.08-.03.11-.09ZM135.03,20.77h.22v-.18h-.22v.18ZM135.73,21.26c0-.06-.04-.09-.11-.09s-.1.03-.07.09c.03.06.07.09.11.09s.07-.03.07-.09ZM135.56,20.24h.18v-.18l-.18.18ZM135.73,17.5c-.09,0-.13.05-.13.15s.04.15.13.15.13-.05.13-.15-.04-.15-.13-.15ZM135.87,18.12c0,.32.07.58.22.77.15.19.26.42.35.69.09-.09.13-.16.13-.22v-.13c0-.06-.02-.15-.07-.29-.04-.13-.07-.21-.07-.24-.06-.21-.1-.35-.11-.44-.02-.09-.17-.13-.46-.13ZM136.44,20.6c-.09,0-.13.05-.13.15s.04.15.13.15c.06,0,.09-.05.09-.15s-.03-.15-.09-.15ZM136.57,16.27c-.06,0-.09.07-.09.2s.03.18.09.15c.06-.03.09-.09.09-.18s-.03-.15-.09-.18ZM136.75,15.6c-.09,0-.13.06-.13.18s.04.18.13.18.13-.06.13-.18-.04-.18-.13-.18ZM137.46,18.7v-.18h-.53l.53.18ZM137.72,29.57c-.32,0-.49.12-.49.35.21,0,.4-.12.58-.35h-.09ZM137.63,16.09c-.09,0-.13.07-.13.2s.04.2.13.2.13-.07.13-.2-.04-.2-.13-.2ZM137.81,16.27c-.09,0-.13.06-.13.18s.04.18.13.18.13-.06.13-.18-.04-.18-.13-.18ZM138.47,30.36s.03.07.09.13l.09.09c.09,0,.18-.04.29-.13.1-.09.18-.16.24-.22l-.18-.18h-.18s-.09.06-.18.09c-.09.03-.15.06-.18.09v.13ZM138.83,31.91v-.13h-.18l.18.13ZM139,29.57c-.09,0-.13.05-.13.15s.04.15.13.15.13-.05.13-.15-.04-.15-.13-.15ZM139.54,29.7c-.12,0-.18.06-.18.18s.06.18.18.18c.06,0,.09-.06.09-.18s-.03-.18-.09-.18ZM140.73,32.13c-.21,0-.32.06-.35.18h.18s.09-.06.18-.09c.09-.03.13-.06.13-.09h-.13Z"/>
      <path class="cls-1" d="M172.15,31.6c-.09.03-.27.1-.55.2-.28.1-.46.18-.55.24-.15.06-.24.2-.29.42-.04.22-.14.33-.29.33,0-.62-.08-1-.24-1.15-.16-.15-.37-.21-.62-.2-.25.02-.52.05-.8.11-.28.06-.55,0-.82-.18-.18-.12-.27-.24-.29-.38-.02-.13-.02-.26-.02-.38s-.02-.21-.07-.29c-.04-.07-.2-.11-.46-.11s-.45.13-.55.38c-.1.25-.33.38-.68.38,0-.24.09-.43.26-.57.18-.15.27-.34.27-.57,0-.18-.05-.29-.16-.33-.1-.04-.23-.07-.38-.07s-.29,0-.44.02c-.15.02-.26,0-.35-.07-.06-.03-.17-.14-.33-.33-.16-.19-.27-.29-.33-.29h-.09s-.05,0-.07-.02c-.02-.01-.04-.02-.07-.02-.24,0-.41.08-.53.24-.12.16-.28.24-.49.24-.03,0-.1-.09-.2-.27s-.21-.38-.33-.6c-.12-.22-.22-.43-.31-.64-.09-.21-.13-.34-.13-.4v-.13s.08-.06.16-.18c.07-.12.09-.19.07-.22-.03-.06-.14-.18-.33-.35-.19-.18-.29-.28-.29-.31-.06-.06-.11-.17-.16-.33-.04-.16-.08-.29-.11-.38l-.62-5.26c-.03-.12-.1-.29-.2-.53-.1-.24-.2-.43-.29-.57-.06,0-.2.03-.42.09-.22.06-.36.1-.42.13-.06.06-.1.18-.13.38-.03.19-.07.29-.13.29-.03.06-.11.04-.24-.04-.13-.09-.23-.13-.29-.13,0,.06.03.21.09.44.06.24.07.38.04.44-.03.03-.07.07-.11.11-.04.04-.08.07-.11.07h-1.77c-.06.09-.17.21-.33.38-.16.16-.27.27-.33.33-.03,0-.09-.03-.18-.09-.09-.06-.16-.09-.22-.09,0,.27-.02.44-.04.53-.03.09.04.25.22.49-.27.06-.46.13-.57.22-.12.09-.21.2-.29.33-.07.13-.14.28-.2.44-.06.16-.15.35-.27.55-.03-.03-.1-.07-.2-.13-.1-.06-.17-.09-.2-.09-.03-.03-.04-.03-.02,0,.01.03,0,.04-.07.04,0,.32.04.51.11.55.07.04.16.07.26.07s.19.04.27.11c.07.07.11.3.11.69-.29,0-.52.06-.66.18-.15.12-.27.27-.38.46-.1.19-.21.4-.31.62s-.26.42-.46.6c-.09.09-.21.13-.38.13h-.46c-.15,0-.29,0-.42.02-.13.02-.21.1-.24.24-.06.24-.1.6-.11,1.1s-.13.87-.33,1.1c-.44,0-.78.05-1.02.15-.24.1-.44.24-.6.42-.16.18-.32.39-.46.64-.15.25-.34.51-.58.77-.12-.15-.19-.31-.22-.49-.03-.18-.07-.34-.11-.49-.04-.15-.13-.26-.24-.33-.12-.07-.35-.08-.71-.02-.06.03-.15.1-.27.2-.12.1-.19.18-.22.24.03.03.07.07.11.11.04.04.1.08.15.11h.22s.06-.07.18-.13c.12-.06.19-.09.22-.09s.07.03.13.09c.06.06.09.1.09.13v.04s.01.06.04.09l-.04.09s-.1.1-.22.2c-.12.1-.19.18-.22.24-.06.09-.13.3-.22.64-.09.34-.15.57-.18.69-.24-.12-.47-.49-.71-1.1-.24-.62-.45-1.32-.64-2.1-.19-.78-.35-1.52-.46-2.23-.12-.71-.18-1.21-.18-1.5v-.31s.09.07.2.11c.1.04.18.08.24.11h.18c.06-.03.14-.1.24-.22.1-.12.18-.21.24-.27v-.09c-.26-.12-.49-.24-.66-.35-.41-.21-.65-.34-.71-.4-.09-.5-.14-.89-.15-1.17-.02-.28-.02-.63-.02-1.04s.04-.81.11-1.19c.07-.38.11-.78.11-1.19,0-.47-.04-.93-.11-1.37s-.11-.91-.11-1.41v-.09s.06-.1.18-.22.21-.19.27-.22v-.09c-.15-.32-.27-.6-.35-.84-.09-.24-.17-.49-.24-.75-.07-.27-.11-.52-.11-.75,0-.21.04-.38.13-.51.09-.13.13-.29.13-.46v-.09c0-.06-.04-.18-.11-.35-.07-.18-.11-.28-.11-.31,0-.12.05-.18.15-.2.1-.01.22-.03.35-.04.13-.01.27-.07.42-.18.15-.1.27-.33.35-.69.06-.06.06-.19,0-.4-.06-.21-.09-.34-.09-.4-.15,0-.32-.02-.51-.07-.19-.04-.29.05-.29.29v.09l.49.49v.22c-.06.03-.17.07-.33.11-.16.04-.27.07-.33.07v-1.59c.35,0,.61-.13.77-.4s.24-.56.24-.88c.09,0,.24.04.46.13.22.09.46.21.71.35.25.15.48.3.69.46.21.16.34.3.4.42-.18.06-.35.18-.51.35-.16.18-.32.27-.46.27h-.13s-.1-.03-.2-.09c-.1-.06-.17-.09-.2-.09v.44s.14,0,.33.02c.19.02.4.04.62.09.22.04.41.11.57.2.16.09.24.19.24.31,0,.35-.12.66-.35.91-.24.25-.35.55-.35.91,0,.18.07.31.22.4s.3.18.46.27.32.2.46.33c.15.13.22.32.22.55,0,.06,0,.17-.02.33-.01.16-.02.26-.02.29,0,.06-.04.18-.11.35s-.11.28-.11.31c0,.32.12.53.38.62.25.09.48.13.68.13,0,.32.03.76.09,1.3.06.55.12.89.18,1.04.03.03.1.17.22.42.12.25.19.41.22.46v.22s-.13.1-.31.2c-.18.1-.29.17-.35.2v.22c.21.68.37,1.1.49,1.28.12.18.24.27.35.29.12.02.24.03.38.04.13.02.32.21.55.6l.22-.22c-.09-.88-.07-1.5.04-1.83.12-.34.29-.57.51-.69.22-.12.48-.24.77-.35.29-.12.57-.4.84-.84.29-.56.53-1.03.71-1.41.18-.38.53-.8,1.06-1.24.03.12.07.28.13.49.06.21.16.34.31.4.03-.06.1-.15.2-.27.1-.12.18-.18.24-.18.03-.03.1,0,.22.09.12.09.19.13.22.13.06,0,.2-.01.42-.04.22-.03.36-.04.42-.04,0-.06-.04-.19-.11-.4-.07-.21-.1-.34-.07-.4,0-.03.07-.07.2-.13.13-.06.21-.09.24-.09.03-.03.07-.07.13-.11.06-.04.09-.08.09-.11s-.02-.12-.07-.29c-.04-.16-.1-.35-.15-.55-.06-.21-.11-.4-.16-.6-.04-.19-.07-.33-.07-.42,0-.15.08-.37.24-.66.16-.29.3-.47.42-.53.15.03.23.1.24.22.01.12,0,.25-.02.4-.03.15-.04.29-.02.42.01.13.1.21.24.24.03-.03.07-.1.13-.2.06-.1.09-.18.09-.24,0-.15.03-.44.09-.88.06-.44.09-.72.09-.84,0-.06.03-.11.09-.15.06-.04.12-.07.18-.07.03,0,.09.02.2.07.1.04.18.1.24.15v.09c0,.18-.03.29-.09.35s-.09.24-.09.53c.03,0,.06.02.09.07.03.04.06.07.09.07.03-.06.1-.18.2-.35.1-.18.17-.29.2-.35h.13c.18,0,.36.05.55.15.19.1.39.21.6.33.21.12.41.24.62.38.21.13.38.21.53.24.06.03.18.03.35,0s.28-.03.31,0c.03.06.07.21.11.46.04.25.08.39.11.42.09.21.22.38.4.51s.35.27.53.4c.18.13.33.29.46.46s.2.41.2.71c0,.18-.04.33-.13.46-.09.13-.13.27-.13.42,0,.18.07.29.22.35.15.06.22.19.22.4v.27c0,.06-.03.24-.09.55-.06.31-.1.49-.13.55v.09c0,.18.03.31.09.4.06.09.13.15.22.2.09.04.18.09.29.13.1.04.2.13.29.24.03.06.03.18,0,.35s-.03.29,0,.35c.03,0,.1.09.22.27.12.18.18.29.18.35.03.09.07.24.13.44.06.21.11.43.15.66.04.24.09.46.13.66s.07.35.07.44l.4.57.49,2.21,1.1,1.02,1.06.8.88.62.79,1.1.31.27v.66ZM145.77,14.28l.71-.71.04-.18h-.75v.88ZM145.99,14.28c-.12,0-.18.07-.18.2s.06.2.18.2c.15,0,.22-.07.22-.2s-.07-.2-.22-.2ZM145.99,23.91h.26v-.22l-.26.22ZM146.47,26.3h.18v-.18l-.18.18ZM146.87,12.91c.06-.06.04-.09-.07-.09s-.16.03-.16.09c.03.06.07.09.13.09s.09-.03.09-.09ZM146.87,12.07c-.06-.06-.09-.04-.09.07s.03.15.09.15c.06-.06.09-.11.09-.15s-.03-.07-.09-.07ZM147.36,29.39h.18v-.22h-.18v.22ZM147.71,23.47c0,.29.1.67.31,1.13.21.46.34.73.4.82,0,.03.01.04.04.04h.09c.21,0,.35-.18.42-.53.07-.35.26-.69.55-1.02v-.22s-.07-.07-.11-.13c-.04-.06-.08-.09-.11-.09h-1.59ZM147.98,21.61c0,.24.04.49.11.77.07.28.24.42.51.42.18,0,.33-.04.46-.13s.29-.13.46-.13v-.18h-.66l-.09-.53c-.03-.15-.05-.29-.07-.42-.02-.13-.04-.26-.07-.38v-.13c0-.09.02-.15.07-.18.04-.03.1-.06.18-.09.07-.03.13-.07.18-.13s.07-.16.07-.31c0-.12-.02-.27-.04-.46-.03-.19-.15-.29-.35-.29,0,.44-.13.8-.38,1.08-.25.28-.38.64-.38,1.08ZM148.64,18.65h.66c-.06-.15-.13-.23-.2-.24-.07-.01-.15-.02-.24-.02-.03,0-.07,0-.11.02-.04.02-.08.02-.11.02v.22ZM152.13,23.91h.26v-.22h-.26v.22ZM155.89,19.54c.03-.06.07-.17.11-.33.04-.16.08-.27.11-.33.03-.03.07-.1.13-.22.06-.12.09-.19.09-.22,0-.09-.07-.18-.22-.27h-.22c-.03.06-.07.11-.13.15-.06.04-.09.08-.09.11l.22,1.1ZM158.1,19.76c-.12,0-.18.07-.18.2s.06.2.18.2.18-.07.18-.2-.06-.2-.18-.2ZM158.32,17.55c.18-.09.27-.24.27-.44h-.27v.44ZM158.98,19.05l.22-.18h-.22v.18ZM159.2,16.35c0,.21.03.35.09.44.06.09.21.13.44.13,0-.38-.18-.69-.53-.93v.35ZM160.04,17.64c0,.15.06.24.18.29.12.04.25.07.4.07,0-.15-.05-.25-.16-.31-.1-.06-.23-.1-.38-.13l-.04.09ZM164.24,18.43c-.12,0-.18.07-.18.22s.06.22.18.22.18-.07.18-.22-.06-.22-.18-.22ZM164.68,25.24c-.06-.03-.09,0-.09.09s.03.12.09.09c.06,0,.09-.03.09-.09s-.03-.09-.09-.09ZM165.13,22.94c.03.06.12.2.29.42.16.22.32.39.46.51l.22-.27c-.06-.24-.19-.46-.4-.66-.21-.21-.43-.38-.66-.53l-.18-.18c-.06-.06-.1-.12-.13-.18-.03.15-.04.28-.04.4-.03.09-.04.19-.04.31v.13l.49.04ZM165.13,21.26h.22v-.22h-.22v.22ZM166.01,21.04c-.15,0-.22.08-.22.24s.07.24.22.24c.12,0,.18-.08.18-.24s-.06-.24-.18-.24ZM165.83,25.86l.22.22c.06-.06.14-.12.24-.18.1-.06.18-.16.24-.31v-.22s-.07-.03-.11-.09-.1-.09-.15-.09-.14.06-.24.18c-.1.12-.17.19-.2.22v.27ZM166.63,26.78c-.09,0-.13.07-.13.2s.04.2.13.2c.15,0,.22-.07.22-.2s-.07-.2-.22-.2ZM166.89,27.89c-.15,0-.22.07-.22.2s.07.2.22.2c.12,0,.18-.07.18-.2s-.06-.2-.18-.2ZM168.04,28.86c0,.35.18.53.53.53,0-.24-.03-.4-.09-.49-.06-.09-.21-.1-.44-.04ZM168.22,30.72h.4c.18-.03.4-.07.68-.11.28-.04.42-.08.42-.11v-.22c-.18-.06-.35-.12-.53-.18-.15-.06-.3-.11-.46-.15-.16-.04-.29-.08-.38-.11l.09.18s0,.05.02.07c.01.02.02.04.02.07v.04c-.06,0-.1-.01-.13-.04-.03-.03-.07-.06-.13-.09v.66Z"/>
      <path class="cls-1" d="M181.57,43.62h-.57v.71c0,.18-.21.27-.62.27-.15,0-.42-.07-.82-.2-.4-.13-.81-.29-1.24-.46-.43-.18-.81-.36-1.15-.55-.34-.19-.51-.36-.51-.51-.03.06-.1.11-.22.15-.12.04-.19.08-.22.11h-.13c-.03-.06-.07-.13-.13-.22-.06-.09-.09-.15-.09-.18.03-.09.12-.26.27-.51.15-.25.25-.41.31-.46.24-.35.5-.59.8-.71.29-.12.56-.35.8-.71h-.04s-.06-.02-.09-.04c-.12,0-.31.04-.57.13,0-.32.12-.62.38-.88.25-.27.51-.47.77-.62h.13c.12.03.24.1.38.2.13.1.24.18.33.24v.09c-.06.03-.12.07-.18.13-.03.03-.06.07-.09.13v1.24l.26.13.31-.4c.03.15.07.29.13.42.06.13.18.26.35.38.15-.12.19-.27.13-.46-.06-.19-.02-.36.13-.51l.35-.09v.97s.06.01.09.04c.06.06.1.07.13.04,0-.06.08-.16.24-.31.16-.15.26-.22.29-.22h.35c.24,0,.37.07.4.2.03.13.04.27.04.42s.02.29.07.42c.04.13.2.2.46.2l.18.53c.06-.06.12-.22.2-.49s.14-.43.2-.49c0-.03.02-.13.07-.29.04-.16.08-.26.11-.29l.09-.04.09.04s.07.1.11.22c.04.12.08.19.11.22h.18c.03-.06.07-.14.11-.24.04-.1.07-.17.07-.2.06.15.19.22.4.22.03-.03.08-.12.15-.27.07-.15.12-.22.16-.22l.04-.04.09-.04c.18,0,.28.06.31.18.03.12.04.26.02.42-.02.16-.02.33-.02.51s.04.31.13.4h.13c.12,0,.23-.06.33-.18.1-.12.21-.26.31-.42.1-.16.22-.3.35-.42.13-.12.29-.18.46-.18l.09.04c.06.03.12.12.2.29.07.16.14.26.2.29.06.06.21.22.44.49.24.27.4.43.49.49.06-.21.12-.4.18-.57.06-.18.09-.34.09-.49.21,0,.46-.02.75-.04.29-.03.57-.09.84-.18.26-.09.49-.21.68-.38.19-.16.29-.38.29-.64l-.09-.18c-.03-.06-.04-.13-.04-.22,0-.38.01-.84.04-1.37.03-.53.12-1.02.26-1.46.09.12.14.26.16.42.01.16.04.32.09.46.04.15.1.27.18.38.07.1.23.15.46.15h.13v-.09s0-.06.02-.09c.01-.03.02-.06.02-.09v-.13c0-.09-.03-.22-.09-.4-.06-.18-.12-.35-.18-.53-.06-.18-.12-.33-.18-.46-.06-.13-.09-.23-.09-.29,0-.03-.04-.13-.13-.31-.09-.18-.15-.27-.18-.27-.03,0-.06-.02-.09-.04-.03,0-.04-.03-.04-.09,0-.15.07-.22.22-.22s.22-.13.22-.4c0-.03-.04-.12-.11-.27s-.16-.32-.26-.51c-.1-.19-.2-.37-.29-.53-.09-.16-.15-.29-.18-.38v-4.95h-.16c-.07,0-.11-.03-.11-.09-.06-.09-.1-.26-.13-.51-.03-.25-.04-.4-.04-.46,0-.03.02-.09.07-.18s.08-.13.11-.13v-.31c0-.15-.04-.27-.11-.35-.07-.09-.15-.18-.22-.27-.07-.09-.15-.18-.22-.27-.07-.09-.11-.22-.11-.4.24,0,.35.07.35.22s.1.22.31.22h.27c-.03-.09-.08-.23-.16-.42-.07-.19-.11-.32-.11-.38v-.09c0-.32.04-.64.13-.95.09-.31.37-.46.84-.46-.56-.09-.94-.25-1.15-.49-.21-.24-.34-.49-.4-.75-.06-.27-.11-.5-.16-.71-.04-.21-.18-.31-.42-.31.06-.18.07-.46.02-.84-.04-.38-.12-.79-.22-1.22-.1-.43-.21-.82-.33-1.17-.12-.35-.24-.59-.35-.71h-.57l-.18-.13c-.06-.03-.13-.07-.2-.13-.07-.06-.14-.09-.2-.09h-.09c-.12,0-.22.04-.31.11-.09.07-.19.11-.31.11-.32,0-.65-.08-.97-.24-.32-.16-.65-.27-.97-.33-.12-.03-.37-.01-.75.04s-.68-.03-.88-.27c-.09.06-.28.19-.57.4-.29.21-.49.34-.58.4-.09.06-.2.1-.33.11-.13.02-.21.02-.24.02-.35-.09-.53-.32-.53-.71,0-.15.03-.29.09-.42.06-.13.09-.27.09-.42-.24,0-.36.13-.38.38-.01.25-.08.49-.2.73-.09.15-.2.35-.33.62-.13.27-.23.4-.29.4h-.13v-1.02c-.15,0-.27.13-.38.38-.1.25-.21.52-.31.8-.1.28-.21.55-.33.8-.12.25-.28.38-.49.38-.12,0-.22-.03-.31-.09-.09-.06-.21-.09-.35-.09-.18.27-.31.47-.4.62-.09.15-.18.29-.26.42-.09.13-.13.21-.13.24-.03.18.04.45.22.82.18.37.39.76.64,1.17.25.41.51.8.77,1.15.27.35.47.57.62.66.29.15.6.25.93.31.32.06.63.21.93.44,0,.03.08.13.24.31.16.18.26.27.29.27h.22c.18,0,.35-.04.51-.13.16-.09.36-.13.6-.13.21,0,.48,0,.82.02.34.02.58.1.73.24.03,0,.06.08.09.24.03.16.06.27.09.33h.09c.21,0,.41-.04.6-.13s.38-.19.55-.31c.18-.12.35-.22.51-.31.16-.09.35-.13.55-.13,0,.06.01.22.04.49.03.27.04.43.04.49,0,.03.04.1.11.22.07.12.11.19.11.22v.04c0,.18-.06.34-.18.49-.12.15-.24.25-.35.31-.21-.06-.38-.05-.51.02-.13.07-.3.07-.51-.02-.03,0-.04-.05-.04-.15v-.33c0-.12.01-.28.04-.49,0-.06.04-.14.11-.24.07-.1.12-.15.16-.15v-.22l-1.19,1.15s-.04.03-.04.09v.13c0,.24.04.41.13.51.09.1.25.23.49.38-.06,0-.13.04-.2.13s-.14.13-.2.13v.31c.06,0,.1.04.13.11.03.07.07.14.13.2l.13.22s-.02.12-.07.27-.07.24-.07.27c-.53-.21-.91-.38-1.15-.53-.24-.15-.39-.3-.46-.46-.07-.16-.09-.32-.04-.46s.1-.32.15-.53h-.13c-.38.27-.75.44-1.08.51-.34.07-.77.11-1.3.11-.27,0-.52-.06-.77-.18-.25-.12-.49-.25-.71-.4-.22-.15-.43-.28-.62-.4-.19-.12-.38-.18-.55-.18-.15,0-.25,0-.31.02-.06.02-.16.07-.31.15v-.18s.08-.15.16-.35c.07-.21.11-.34.11-.4v-.18c-.24,0-.44.04-.6.11-.16.07-.35.11-.55.11v-.49c-.24.06-.42.1-.55.11-.13.02-.26,0-.38-.02-.12-.03-.18-.12-.18-.27v-.13s.08-.11.15-.24c.07-.13.14-.23.2-.29,0-.06-.02-.06-.04,0-.03.06-.04.07-.04.04-.06,0-.17-.05-.33-.15-.16-.1-.27-.15-.33-.15s-.12.08-.18.24c-.06.16-.06.27,0,.33-.09-.18-.15-.32-.18-.44-.03-.12-.04-.23-.02-.33.01-.1.03-.22.04-.35.01-.13.02-.32.02-.55h-.4v.97c-.32-.18-.56-.42-.71-.73s-.25-.63-.31-.95h-.18l-.09.09s-.06.04-.09.04h-.13s-.1-.04-.22-.11c-.12-.07-.19-.14-.22-.2,0-.12,0-.28-.02-.49-.01-.21-.02-.34-.02-.4v-.84c0-.41.02-.84.07-1.28.04-.44.12-.83.22-1.17.1-.34.24-.54.42-.6.29-.03.5-.02.62.02.12.04.18-.15.18-.6,0-.03-.03-.12-.09-.29-.06-.16-.09-.26-.09-.29s.07-.12.22-.27c.15-.15.25-.25.31-.31h.22s.08.1.15.22c.07.12.14.21.2.27-.06-.09-.06-.2,0-.33.06-.13.1-.23.13-.29.06,0,.16.02.31.04.15.03.24.02.27-.04.18-.18.31-.45.4-.82.09-.37.22-.64.4-.82.06-.15.17-.32.33-.51.16-.19.24-.36.24-.51,0-.09,0-.18-.02-.27s-.1-.19-.24-.31c.32-.06.59-.1.79-.13.21-.03.32-.22.35-.57h1.11s-.02.12-.07.27c-.04.15-.07.25-.07.31v.13c.12-.06.22-.15.31-.29.09-.13.18-.27.26-.42.03.03.08.08.16.15.07.07.11.14.11.2h.31c.03-.06.07-.1.13-.13.06-.03.12-.06.18-.09-.06-.03-.13-.08-.2-.15-.07-.07-.11-.12-.11-.15v-.18c0-.09.07-.17.2-.24.13-.07.26-.14.38-.2v.62c0,.21-.03.38-.09.51-.06.13-.09.29-.09.46.18,0,.3-.07.38-.2.07-.13.12-.28.15-.44.03-.16.08-.32.16-.46.07-.15.2-.22.38-.22.27-.06.44-.06.53,0,.09.06.17.14.24.24.07.1.15.2.22.29.07.09.23.13.46.13h.04l.09-.18c.03-.06.06-.1.09-.13l.09-.04.09.04h.04l.22.22c.06.06.11.12.15.18.04.06.08.1.11.13l.09.04h.09s.06-.01.09-.04c.03-.06.08-.11.15-.15s.12-.07.16-.07c.03,0,.07,0,.11-.02.04-.01.08-.02.11-.02h.09v.71l.09.09c.09.09.15.07.18-.04l.04-.04.09-.09s.06-.07.09-.13h.09c.15,0,.28.1.4.31.12.21.21.34.27.4.12-.09.2-.22.24-.4.04-.18.15-.28.33-.31.03-.03.14-.07.33-.11.19-.04.32-.08.38-.11.03-.06.07-.12.11-.2.04-.07.08-.12.11-.15h.04c.21,0,.31.12.31.35v.22l-.18.13c0,.06.02.15.07.29.04.13.08.23.11.29,0-.03.03-.06.09-.09.06-.03.09-.06.09-.09h.18c.06.06.1.16.13.31.03.15.06.25.09.31,0,.03.03.04.09.04h.09c.15,0,.3-.08.46-.24.16-.16.24-.3.24-.42,0-.03,0-.1-.02-.2-.02-.1-.05-.17-.11-.2h.09c.5,0,.78.19.84.57.06.38.04.75-.04,1.1.29-.41.62-.62.97-.62v.22s-.06.07-.09.13l-.09.18c0,.18.04.28.11.31.07.03.18.04.33.04s.26-.04.33-.13.13-.19.18-.31c.04-.12.08-.22.11-.31.03-.09.09-.13.18-.13.12,0,.22.1.31.29.09.19.16.41.2.66.04.25.07.49.09.73.01.24.02.4.02.49.27-.06.59-.1.97-.11.38-.01.68.14.88.46.06.65.18,1.27.35,1.86.18.59.27,1.19.27,1.81,0,.32-.06.56-.18.71-.12.15-.18.34-.18.57v.13c0,.06.01.21.04.44.03.24.04.4.04.49h.22c.06-.06.13-.1.22-.13.09-.03.15-.06.18-.09v.22c0,.15-.03.27-.09.35s-.09.19-.09.31h.57c0,.32-.07.65-.22.97-.15.32-.22.65-.22.97s.05.53.15.62c.1.09.21.15.31.18.1.03.21.07.31.13.1.06.15.19.15.4,0,.27-.09.39-.26.38-.18-.01-.27.07-.27.24s.16.43.49.75c.32.32.49.72.49,1.19,0,.41-.08.71-.24.91-.16.19-.35.35-.55.46-.21.12-.39.24-.55.35-.16.12-.24.31-.24.57,0,.09.02.18.07.27s.17.13.38.13c-.12.12-.18.28-.18.49v.22c0,.06,0,.18.02.38.01.19.04.38.07.57.03.19.05.38.07.55s.02.29.02.35c-.03.03-.1.09-.2.18s-.17.15-.2.18v.27l.09.18c.03.09.07.13.13.13v.13c0,.47-.02,1.06-.04,1.77-.03.71-.07,1.31-.13,1.81-.06.09-.2.31-.42.66s-.35.57-.38.66c-.03.21-.17.44-.42.71-.25.27-.41.47-.46.62-.15.21-.31.27-.49.2-.18-.07-.34,0-.49.2-.03,0-.09.12-.18.35-.09.24-.16.38-.22.44-.06,0-.1.01-.13.04-.09.06-.13.1-.13.13-.03.03-.07.05-.11.07-.04.01-.1.05-.15.11-.09.06-.16.1-.22.13-.15-.09-.25-.25-.31-.49-.06,0-.15.07-.27.2-.12.13-.24.27-.38.42-.13.15-.26.28-.4.4s-.24.19-.33.22c-.06.03-.24.1-.55.2-.31.1-.49.17-.55.2-.03.03-.06.1-.09.2-.03.1-.06.17-.09.2-.06.06-.18.12-.35.2-.18.07-.36.15-.55.24s-.37.16-.53.22c-.16.06-.26.09-.29.09h-.18s-.05-.1-.07-.2c-.01-.1-.04-.18-.07-.24-.09.24-.2.37-.33.4-.13.03-.27.04-.42.04-.33,0-.74,0-1.24-.02-.5-.02-.9-.07-1.19-.15-.26-.09-.46-.19-.57-.31s-.24-.24-.35-.38c-.12-.13-.28-.24-.49-.33s-.53-.13-.97-.13v-.97ZM174.41,20.6c-.12,0-.18.07-.18.2s.06.2.18.2c.09,0,.13-.07.13-.2s-.04-.2-.13-.2ZM174.41,42.25c0-.24.04-.42.11-.55.07-.13.21-.3.42-.51.29.09.53.06.71-.09.18-.15.33-.32.46-.53.13-.21.26-.4.4-.57s.32-.27.55-.27c-.03.03-.04.06-.04.09v.13c-.06.18-.17.35-.33.53s-.33.35-.51.53-.35.33-.51.46-.29.23-.38.29c.03,0,.07.02.13.07.06.04.09.08.09.11v.18c0,.15-.07.29-.2.42-.13.13-.3.2-.51.2-.18,0-.29-.04-.33-.13-.04-.09-.07-.21-.07-.35ZM177.55,42.25c0,.32.07.62.22.88.06-.06.12-.13.18-.22.06-.09.09-.15.09-.18l.09-.04c0-.18-.07-.29-.22-.35-.15-.06-.27-.09-.35-.09ZM178.61,18.12c0,.15.03.27.09.35.06.09.12.18.18.27.06,0,.1-.04.13-.13s.04-.16.04-.22c0-.18-.15-.27-.44-.27ZM179.45,15.78l.13.18.09.04s.06,0,.09-.02c.03-.01.06-.02.09-.02.24-.38.35-.75.35-1.1-.18,0-.35.09-.51.27-.16.18-.24.34-.24.49v.18ZM179.67,27.27c-.06,0-.09.06-.09.18s.03.18.09.18c.15,0,.22-.06.22-.18s-.07-.18-.22-.18ZM179.8,13.79c.24,0,.46.12.66.35.21.24.35.49.44.75.06-.03.12-.11.18-.24.06-.13.09-.23.09-.29-.06-.06-.2-.23-.42-.51-.22-.28-.42-.42-.6-.42-.06,0-.13.04-.22.13-.09.09-.13.16-.13.22ZM180.6,43.62c.18,0,.28-.04.31-.13.03-.09.06-.18.09-.27s.08-.18.15-.27.23-.13.46-.13c0-.12-.05-.23-.16-.33-.1-.1-.2-.15-.29-.15-.12,0-.24.05-.35.15-.12.1-.22.22-.31.35-.09.13-.21.32-.35.55.06.15.21.22.44.22ZM181.83,14.23c-.12,0-.22.04-.31.13h.31v-.13ZM181.83,43.4c0,.21.07.37.22.49v-.49h-.22ZM182.19,12.73v.29c0,.13.07.23.22.29v-.35c0-.09,0-.2.02-.33.01-.13-.05-.2-.2-.2-.03.03-.04.07-.04.13v.18ZM182.98,27.23c-.21,0-.34.06-.4.18h.4v-.18ZM183.78,13.92c-.24,0-.37.13-.4.38-.03.25-.04.45-.04.6,0,.03,0,.07.02.13.01.06.02.1.02.13.15-.15.25-.33.31-.55.06-.22.09-.45.09-.69ZM183.73,14.98c-.09,0-.13.07-.13.2s.04.2.13.2c.12,0,.18-.07.18-.2s-.06-.2-.18-.2ZM184.71,26.39c-.15,0-.22.07-.22.22s.07.22.22.22c.09,0,.13-.07.13-.22s-.04-.22-.13-.22ZM185.02,15.56c-.33.18-.49.44-.49.8.18,0,.33-.06.46-.18.13-.12.2-.25.2-.4s-.06-.22-.18-.22ZM184.75,14.36c0,.15.04.29.11.44s.18.21.33.18c.06-.03.11-.1.15-.2.04-.1.08-.17.11-.2v-.22h-.71ZM185.46,27.85c.44.21.87.2,1.28-.02.41-.22.78-.36,1.1-.42.12,0,.25.04.4.13v.09c0,.21-.13.38-.4.53-.26.15-.46.29-.57.44,0,.06-.02.17-.04.33-.03.16-.06.26-.09.29-.09.09-.25.15-.49.2-.24.04-.38.05-.44.02-.12-.15-.26-.41-.42-.8-.16-.38-.27-.65-.33-.8ZM185.81,16.53v-.44l-.22.27.22.18ZM185.94,15.38v-.22h-.13l.13.22ZM185.81,43.4h.13v-.53h-.13v.53ZM186.39,14.32c-.06-.06-.09-.02-.09.11s.03.18.09.15c.06-.03.09-.07.09-.13s-.03-.1-.09-.13ZM186.7,15.16s-.04,0-.04.09.01.13.04.13c.06,0,.09-.02.09-.07s-.03-.1-.09-.15ZM187.71,15.12c-.21,0-.35.07-.42.22-.07.15-.11.29-.11.44.35,0,.53-.22.53-.66ZM188.07,15.96c-.15.09-.29.23-.42.42-.13.19-.2.38-.2.55.15,0,.32-.06.51-.18.19-.12.29-.25.29-.4,0-.21-.06-.34-.18-.4ZM187.58,13.79c0,.09.03.2.09.33.06.13.16.2.31.2h.09c-.06-.35-.22-.53-.49-.53ZM189.52,15.16c-.06.09-.11.16-.15.22-.04.06-.07.12-.07.18h.22v-.4ZM189.35,16.88c.06.12.17.26.33.42.16.16.33.24.51.24,0-.18-.07-.45-.22-.82-.15-.37-.29-.58-.44-.64-.03.06-.07.16-.11.31-.04.15-.07.24-.07.27v.22ZM190.85,15.78c-.03-.06-.04-.04-.04.07s.01.14.04.11c.06-.03.09-.07.09-.11s-.03-.07-.09-.07ZM190.85,17.46h.18v-.31h-.18v.31ZM191.42,23.25h.18v-.18h-.18v.18ZM191.6,30.19c-.09,0-.13.06-.13.18s.04.18.13.18c.12,0,.18-.06.18-.18s-.06-.18-.18-.18ZM191.6,19.05c0,.09.04.16.13.22.09.06.18.09.27.09v-.62c-.09,0-.18.02-.27.07s-.13.13-.13.24ZM192,17.15c-.09,0-.13.05-.13.15s.04.15.13.15c.06,0,.09-.05.09-.15s-.03-.15-.09-.15ZM192.62,39.73c-.24.06-.41.12-.51.2-.1.07-.16.23-.16.46.09,0,.18-.06.29-.18.1-.12.23-.21.38-.27v-.22ZM192.35,29.79c0-.06-.04-.09-.11-.09s-.11.03-.11.09.04.09.11.09.11-.03.11-.09ZM193.63,17.15h.18v-.27l-.18.27ZM193.63,19.89h.18l-.18-.18v.18ZM194.56,17.59c-.09,0-.13.07-.13.22s.04.22.13.22c.15,0,.22-.07.22-.22s-.07-.22-.22-.22ZM194.92,31.12c-.06,0-.09.05-.09.15s.03.15.09.15c.12,0,.18-.05.18-.15s-.06-.15-.18-.15ZM194.92,30.54h.22v-.18l-.22.18ZM195.4,26.83c0,.09.01.24.04.46.03.22.04.35.04.38,0,.06.03.12.09.18.03.03.07.06.13.09v-.18c0-.06,0-.1.02-.13.01-.03.02-.06.02-.09,0-.15-.02-.3-.07-.46-.04-.16-.14-.29-.29-.38v.13ZM195.84,28.38c0,.06.01.1.04.13,0,.06.03.16.09.31.06.15.1.24.13.27.09-.03.22-.08.4-.15.18-.07.28-.18.31-.33-.06-.09-.18-.18-.38-.27-.19-.09-.39-.13-.6-.13v.18ZM195.89,30.19h.22v-.4h-.22v.4ZM196.11,26.96s.03.07.09.13c.03.03.06.07.09.13.03-.06.06-.1.09-.13.06-.06.09-.1.09-.13,0-.06-.03-.11-.09-.15-.06-.04-.09-.08-.09-.11-.03,0-.06.02-.09.04l-.09.09-.04.04.04.09Z"/>
      <path class="cls-1" d="M208.97,32.66c-.06-.24-.18-.46-.35-.66-.18-.21-.37-.29-.58-.27-.21.03-.38.12-.51.27-.13.15-.32.24-.55.27-.29.06-.52.03-.68-.09-.16-.12-.27-.27-.33-.46-.06-.19-.1-.42-.13-.69s-.06-.52-.09-.75c-.21.06-.42.1-.64.13-.22.03-.32.21-.29.53-.15-.29-.44-.59-.86-.88-.43-.29-.82-.43-1.17-.4,0-.15-.04-.46-.11-.95s-.14-.8-.2-.95c0-.12-.02-.29-.04-.51-.03-.22-.06-.43-.09-.62-.03-.19-.06-.45-.09-.77,0-.24,0-.68-.02-1.33-.02-.65-.02-1.33-.02-2.06s0-1.41.02-2.06c.01-.65.02-1.1.02-1.37.06-.38.09-.82.09-1.3s.04-.89.13-1.22c-.03-.06.02-.15.15-.29.13-.13.2-.21.2-.24.03-.32.04-.61.02-.86-.01-.25-.01-.49,0-.71.01-.22.07-.45.18-.69.1-.24.29-.49.55-.75v-.04s0-.04.02-.04c.01,0,.02-.01.02-.04l.18.09c.06,0,.12.05.2.15.07.1.14.14.2.11.06.03.19.04.4.02.21-.01.32-.04.35-.07l.66,1.28c.09.03.16.04.22.04.06.03.1.04.13.04s.06.02.09.04l.04.04s.01.06.04.09l-.04.04s0,.1-.02.2c-.01.1-.02.18-.02.24.18-.09.39-.13.64-.13s.49.04.71.11c.22.07.42.19.6.35.18.16.28.38.31.64.03.18-.05.34-.24.49-.19.15-.41.29-.66.44-.25.15-.49.29-.71.44-.22.15-.35.28-.38.4-.09.18-.07.32.07.44.13.12.31.23.53.33.22.1.43.21.62.33.19.12.29.27.29.44s-.07.3-.2.38c-.13.07-.27.13-.42.15-.15.03-.31.07-.49.11-.18.04-.31.15-.4.33-.06.15-.04.3.07.46.1.16.21.32.33.46.12.15.22.29.31.42.09.13.12.24.09.33-.06.18-.15.29-.27.33-.12.04-.24.08-.35.11-.12.03-.22.09-.31.18-.09.09-.12.25-.09.49,0,.15.05.29.15.42.1.13.23.2.38.2.21-.03.28-.1.22-.2-.06-.1-.03-.27.09-.51h.09l.09-.04s.06.03.09.09c.03.06.04.1.04.13.03.35,0,.58-.07.69-.07.1-.16.19-.27.27-.1.07-.19.17-.26.29-.07.12-.08.35-.02.71.27-.03.44-.03.53,0,.09.03.21-.03.35-.18v.04c.06.38.03.74-.09,1.06-.12.32-.15.66-.09,1.02.03.29.09.49.18.6.09.1.31.21.66.33.24-.15.52-.24.84-.29.32-.04.64-.1.95-.18.31-.07.59-.18.84-.31.25-.13.42-.35.51-.64.06.03.14.07.24.13.1.06.18.09.24.09h.04c.24-.03.4-.08.51-.15.1-.07.23-.12.38-.15l.18.04s.06,0,.09.02c.03.02.07.02.13.02.06.03.12.04.18.04.03,0,.04-.02.02-.07-.02-.04.18-.1.6-.15-.09.03-.18.04-.27.04h-.26l.04-.04c.06,0,.12.02.2.07.07.04.12.07.15.07.03-.06.08-.19.16-.4.07-.21.12-.34.15-.4.06,0,.15-.04.29-.13s.21-.13.24-.13c.03-.06.07-.17.11-.33.04-.16.07-.26.07-.29h.09c.29,0,.44.1.44.31,0,.03,0,.05-.02.07-.02.02-.02.04-.02.07v.13s-.1.13-.2.29c-.1.16-.14.27-.11.33,0,.06,0,.15.02.29.01.13.03.29.04.46.01.18.04.34.07.49.03.15.06.27.09.35-.06.18-.16.29-.29.33-.13.04-.26.08-.4.11-.13.03-.24.07-.33.13-.09.06-.12.18-.09.35.03.21.15.29.35.27.03,0,.04-.01.04-.04.15-.06.36-.18.64-.35.28-.18.46-.29.55-.35l.13.22c-.06.09-.18.27-.35.55-.18.28-.37.57-.57.88-.21.31-.41.59-.6.84-.19.25-.33.38-.42.38-.09.03-.18.04-.27.04-.18,0-.26-.04-.26-.13,0-.03.01-.1.04-.22.03-.12.04-.21.04-.27v-.09s0-.06-.02-.09c-.02-.03-.02-.07-.02-.13,0-.15-.05-.29-.16-.44s-.21-.25-.33-.31l-.53.66.49.35c-.03.15-.13.26-.31.33-.18.07-.32.18-.44.33-.15.29-.24.54-.29.73-.04.19-.09.35-.13.46-.04.12-.14.21-.29.29-.15.07-.41.12-.79.15-.29.06-.55.08-.75.07-.21-.02-.5-.08-.88-.2ZM205.04,9.94s-.11.04-.24.11c-.13.07-.21.11-.24.11h-.13c-.06.03-.11.03-.15,0-.04-.03-.07-.06-.07-.09-.32-.53-.61-1.13-.86-1.81-.25-.68-.41-1.3-.46-1.86,0-.06.06-.23.18-.51.12-.28.26-.57.42-.86.16-.29.33-.57.51-.82.18-.25.31-.38.4-.38.03,0,.16.02.4.07.24.04.49.1.77.15.28.06.56.11.84.15.28.04.46.07.55.07.06.06.12.12.18.18.06.06.12.12.18.18.06.09.12.16.18.22.06-.15.14-.23.24-.24.1-.01.23-.05.38-.11.12,0,.21.04.26.11.06.07.11.16.16.27.04.1.09.19.13.27.04.07.12.11.24.11.03-.03.09-.08.18-.15.09-.07.15-.11.18-.11s.06-.01.09-.04c.03,0,.05,0,.07-.02.01-.01.04-.02.07-.02.06.41.03.72-.09.93l.35-.04c0,.06-.01.21-.04.46-.03.25-.04.42-.04.51.03.09.1.24.22.44.12.21.21.34.27.4-.03.06-.07.19-.13.4-.06.21-.13.42-.22.64-.09.22-.19.43-.31.62-.12.19-.25.29-.4.29-.03,0-.1,0-.2-.02-.1-.01-.18-.02-.24-.02s-.18-.03-.35-.09c-.09-.03-.16-.04-.22-.04-.21.09-.38.18-.51.29-.13.1-.27.21-.4.31-.13.1-.28.19-.44.27-.16.07-.38.13-.64.15-.27.06-.44,0-.53-.2-.09-.19-.25-.27-.49-.24ZM204.51,5.26c-.06.03-.08.1-.07.22.01.12.05.16.11.13.09,0,.12-.06.11-.18s-.07-.18-.15-.18ZM206.54,14.32c.09,0,.14.07.15.2.01.13-.02.2-.11.2-.12,0-.18-.07-.2-.2-.01-.13.04-.2.16-.2ZM208.75,6.28c.06-.06.04-.09-.04-.09s-.12.03-.09.09c0,.09.02.13.07.13s.07-.04.07-.13ZM208.79,31.03c-.06,0-.09.04-.09.13s.03.12.09.09c.06-.06.06-.13,0-.22ZM209.01,28.6v-.27l-.22.09.22.18ZM210.3,32.09c0-.06-.04-.09-.11-.09s-.11.03-.11.09c.15.15.22.15.22,0ZM211.31,29.66c-.27.03-.49.1-.66.22-.18.12-.28.26-.31.42-.03.16.02.32.15.46.13.15.36.27.69.35.03,0,.07-.08.11-.24.04-.16.07-.34.09-.53.01-.19.01-.36,0-.51-.02-.15-.04-.21-.07-.18ZM215.29,24.53c.06-.03.1-.02.11.02.01.04,0,.08-.02.11-.06.06-.1.05-.13-.02-.03-.07-.02-.11.04-.11Z"/>
      <path class="cls-1" d="M244.73,31.6c-.09.03-.27.1-.55.2-.28.1-.46.18-.55.24-.15.06-.24.2-.29.42s-.14.33-.29.33c0-.62-.08-1-.24-1.15-.16-.15-.37-.21-.62-.2-.25.02-.52.05-.79.11-.28.06-.55,0-.82-.18-.18-.12-.27-.24-.29-.38s-.02-.26-.02-.38-.02-.21-.07-.29c-.04-.07-.2-.11-.46-.11s-.45.13-.55.38c-.1.25-.33.38-.69.38,0-.24.09-.43.27-.57.18-.15.26-.34.26-.57,0-.18-.05-.29-.15-.33-.1-.04-.23-.07-.38-.07s-.29,0-.44.02c-.15.02-.27,0-.35-.07-.06-.03-.17-.14-.33-.33-.16-.19-.27-.29-.33-.29h-.09s-.05,0-.07-.02c-.01-.01-.04-.02-.07-.02-.24,0-.41.08-.53.24-.12.16-.28.24-.49.24-.03,0-.1-.09-.2-.27-.1-.18-.21-.38-.33-.6-.12-.22-.22-.43-.31-.64-.09-.21-.13-.34-.13-.4v-.13s.08-.06.15-.18c.07-.12.1-.19.07-.22-.03-.06-.14-.18-.33-.35s-.29-.28-.29-.31c-.06-.06-.11-.17-.15-.33-.04-.16-.08-.29-.11-.38l-.62-5.26c-.03-.12-.1-.29-.2-.53-.1-.24-.2-.43-.29-.57-.06,0-.2.03-.42.09-.22.06-.36.1-.42.13-.06.06-.1.18-.13.38-.03.19-.07.29-.13.29-.03.06-.11.04-.24-.04s-.23-.13-.29-.13c0,.06.03.21.09.44.06.24.07.38.04.44-.03.03-.07.07-.11.11-.04.04-.08.07-.11.07h-1.77c-.06.09-.17.21-.33.38-.16.16-.27.27-.33.33-.03,0-.09-.03-.18-.09-.09-.06-.16-.09-.22-.09,0,.27-.01.44-.04.53s.04.25.22.49c-.27.06-.46.13-.58.22-.12.09-.21.2-.29.33-.07.13-.14.28-.2.44-.06.16-.15.35-.26.55-.03-.03-.1-.07-.2-.13-.1-.06-.17-.09-.2-.09-.03-.03-.04-.03-.02,0,.01.03,0,.04-.07.04,0,.32.04.51.11.55.07.04.16.07.27.07s.19.04.26.11c.07.07.11.3.11.69-.29,0-.52.06-.66.18-.15.12-.27.27-.38.46-.1.19-.21.4-.31.62-.1.22-.26.42-.46.6-.09.09-.21.13-.38.13h-.46c-.15,0-.29,0-.42.02-.13.02-.21.1-.24.24-.06.24-.1.6-.11,1.1-.02.5-.13.87-.33,1.1-.44,0-.78.05-1.02.15-.24.1-.43.24-.6.42s-.32.39-.46.64c-.15.25-.34.51-.57.77-.12-.15-.19-.31-.22-.49s-.07-.34-.11-.49-.13-.26-.24-.33c-.12-.07-.35-.08-.71-.02-.06.03-.15.1-.26.2-.12.1-.19.18-.22.24.03.03.07.07.11.11.04.04.1.08.16.11h.22s.06-.07.18-.13c.12-.06.19-.09.22-.09s.07.03.13.09c.06.06.09.1.09.13v.04s.01.06.04.09l-.04.09s-.1.1-.22.2c-.12.1-.19.18-.22.24-.06.09-.13.3-.22.64-.09.34-.15.57-.18.69-.24-.12-.47-.49-.71-1.1-.24-.62-.45-1.32-.64-2.1-.19-.78-.35-1.52-.46-2.23-.12-.71-.18-1.21-.18-1.5v-.31s.1.07.2.11c.1.04.18.08.24.11h.18c.06-.03.14-.1.24-.22.1-.12.18-.21.24-.27v-.09c-.27-.12-.49-.24-.66-.35-.41-.21-.65-.34-.71-.4-.09-.5-.14-.89-.16-1.17-.01-.28-.02-.63-.02-1.04s.04-.81.11-1.19c.07-.38.11-.78.11-1.19,0-.47-.04-.93-.11-1.37-.07-.44-.11-.91-.11-1.41v-.09s.06-.1.18-.22.21-.19.26-.22v-.09c-.15-.32-.26-.6-.35-.84-.09-.24-.17-.49-.24-.75-.07-.27-.11-.52-.11-.75,0-.21.04-.38.13-.51.09-.13.13-.29.13-.46v-.09c0-.06-.04-.18-.11-.35s-.11-.28-.11-.31c0-.12.05-.18.16-.2.1-.01.22-.03.35-.04.13-.01.27-.07.42-.18.15-.1.26-.33.35-.69.06-.06.06-.19,0-.4-.06-.21-.09-.34-.09-.4-.15,0-.32-.02-.51-.07-.19-.04-.29.05-.29.29v.09l.49.49v.22c-.06.03-.17.07-.33.11-.16.04-.27.07-.33.07v-1.59c.35,0,.61-.13.77-.4.16-.27.24-.56.24-.88.09,0,.24.04.46.13.22.09.46.21.71.35.25.15.48.3.68.46.21.16.34.3.4.42-.18.06-.35.18-.51.35s-.32.27-.46.27h-.13s-.1-.03-.2-.09c-.1-.06-.17-.09-.2-.09v.44s.14,0,.33.02c.19.02.4.04.62.09.22.04.41.11.57.2s.24.19.24.31c0,.35-.12.66-.35.91-.24.25-.35.55-.35.91,0,.18.07.31.22.4s.3.18.46.27c.16.09.32.2.46.33.15.13.22.32.22.55,0,.06,0,.17-.02.33-.02.16-.02.26-.02.29,0,.06-.04.18-.11.35-.07.18-.11.28-.11.31,0,.32.12.53.38.62s.48.13.69.13c0,.32.03.76.09,1.3.06.55.12.89.18,1.04.03.03.1.17.22.42.12.25.19.41.22.46v.22s-.13.1-.31.2c-.18.1-.29.17-.35.2v.22c.21.68.37,1.1.49,1.28.12.18.24.27.35.29.12.02.24.03.38.04.13.02.32.21.55.6l.22-.22c-.09-.88-.07-1.5.04-1.83.12-.34.29-.57.51-.69.22-.12.48-.24.77-.35.29-.12.57-.4.84-.84.29-.56.53-1.03.71-1.41.18-.38.53-.8,1.06-1.24.03.12.07.28.13.49.06.21.16.34.31.4.03-.06.09-.15.2-.27.1-.12.18-.18.24-.18.03-.03.1,0,.22.09.12.09.19.13.22.13.06,0,.2-.01.42-.04.22-.03.36-.04.42-.04,0-.06-.04-.19-.11-.4-.07-.21-.1-.34-.07-.4,0-.03.07-.07.2-.13.13-.06.21-.09.24-.09.03-.03.07-.07.13-.11.06-.04.09-.08.09-.11s-.02-.12-.07-.29c-.04-.16-.1-.35-.16-.55-.06-.21-.11-.4-.15-.6-.04-.19-.07-.33-.07-.42,0-.15.08-.37.24-.66.16-.29.3-.47.42-.53.15.03.23.1.24.22.01.12,0,.25-.02.4s-.04.29-.02.42c.01.13.1.21.24.24.03-.03.07-.1.13-.2.06-.1.09-.18.09-.24,0-.15.03-.44.09-.88.06-.44.09-.72.09-.84,0-.06.03-.11.09-.15.06-.04.12-.07.18-.07.03,0,.1.02.2.07.1.04.18.1.24.15v.09c0,.18-.03.29-.09.35-.06.06-.09.24-.09.53.03,0,.06.02.09.07.03.04.06.07.09.07.03-.06.09-.18.2-.35.1-.18.17-.29.2-.35h.13c.18,0,.36.05.55.15.19.1.39.21.6.33.21.12.41.24.62.38.21.13.38.21.53.24.06.03.18.03.35,0s.28-.03.31,0c.03.06.07.21.11.46.04.25.08.39.11.42.09.21.22.38.4.51s.35.27.53.4c.18.13.33.29.46.46.13.18.2.41.2.71,0,.18-.04.33-.13.46-.09.13-.13.27-.13.42,0,.18.07.29.22.35.15.06.22.19.22.4v.27c0,.06-.03.24-.09.55-.06.31-.1.49-.13.55v.09c0,.18.03.31.09.4.06.09.13.15.22.2s.18.09.29.13c.1.04.2.13.29.24.03.06.03.18,0,.35s-.03.29,0,.35c.03,0,.1.09.22.27s.18.29.18.35c.03.09.07.24.13.44.06.21.11.43.16.66.04.24.09.46.13.66.04.21.07.35.07.44l.4.57.49,2.21,1.11,1.02,1.06.8.88.62.8,1.1.31.27v.66ZM218.34,14.28l.71-.71.04-.18h-.75v.88ZM218.56,14.28c-.12,0-.18.07-.18.2s.06.2.18.2c.15,0,.22-.07.22-.2s-.07-.2-.22-.2ZM218.56,23.91h.27v-.22l-.27.22ZM219.05,26.3h.18v-.18l-.18.18ZM219.45,12.91c.06-.06.04-.09-.07-.09s-.15.03-.15.09c.03.06.07.09.13.09s.09-.03.09-.09ZM219.45,12.07c-.06-.06-.09-.04-.09.07s.03.15.09.15c.06-.06.09-.11.09-.15s-.03-.07-.09-.07ZM219.93,29.39h.18v-.22h-.18v.22ZM220.29,23.47c0,.29.1.67.31,1.13.21.46.34.73.4.82,0,.03.01.04.04.04h.09c.21,0,.35-.18.42-.53.07-.35.26-.69.55-1.02v-.22s-.07-.07-.11-.13c-.04-.06-.08-.09-.11-.09h-1.59ZM220.55,21.61c0,.24.04.49.11.77.07.28.24.42.51.42.18,0,.33-.04.46-.13.13-.09.29-.13.46-.13v-.18h-.66l-.09-.53c-.03-.15-.05-.29-.07-.42-.02-.13-.04-.26-.07-.38v-.13c0-.09.02-.15.07-.18.04-.03.1-.06.18-.09.07-.03.13-.07.18-.13.04-.06.07-.16.07-.31,0-.12-.02-.27-.04-.46-.03-.19-.15-.29-.35-.29,0,.44-.13.8-.38,1.08-.25.28-.38.64-.38,1.08ZM221.21,18.65h.66c-.06-.15-.13-.23-.2-.24-.07-.01-.16-.02-.24-.02-.03,0-.07,0-.11.02-.04.02-.08.02-.11.02v.22ZM224.71,23.91h.27v-.22h-.27v.22ZM228.46,19.54c.03-.06.07-.17.11-.33.04-.16.08-.27.11-.33.03-.03.07-.1.13-.22.06-.12.09-.19.09-.22,0-.09-.07-.18-.22-.27h-.22c-.03.06-.07.11-.13.15-.06.04-.09.08-.09.11l.22,1.1ZM230.67,19.76c-.12,0-.18.07-.18.2s.06.2.18.2.18-.07.18-.2-.06-.2-.18-.2ZM230.89,17.55c.18-.09.26-.24.26-.44h-.26v.44ZM231.56,19.05l.22-.18h-.22v.18ZM231.78,16.35c0,.21.03.35.09.44.06.09.21.13.44.13,0-.38-.18-.69-.53-.93v.35ZM232.62,17.64c0,.15.06.24.18.29.12.04.25.07.4.07,0-.15-.05-.25-.15-.31-.1-.06-.23-.1-.38-.13l-.04.09ZM236.82,18.43c-.12,0-.18.07-.18.22s.06.22.18.22.18-.07.18-.22-.06-.22-.18-.22ZM237.26,25.24c-.06-.03-.09,0-.09.09s.03.12.09.09c.06,0,.09-.03.09-.09s-.03-.09-.09-.09ZM237.7,22.94c.03.06.12.2.29.42.16.22.32.39.46.51l.22-.27c-.06-.24-.19-.46-.4-.66-.21-.21-.43-.38-.66-.53l-.18-.18c-.06-.06-.1-.12-.13-.18-.03.15-.04.28-.04.4-.03.09-.04.19-.04.31v.13l.49.04ZM237.7,21.26h.22v-.22h-.22v.22ZM238.58,21.04c-.15,0-.22.08-.22.24s.07.24.22.24c.12,0,.18-.08.18-.24s-.06-.24-.18-.24ZM238.41,25.86l.22.22c.06-.06.14-.12.24-.18.1-.06.18-.16.24-.31v-.22s-.07-.03-.11-.09c-.04-.06-.1-.09-.16-.09s-.14.06-.24.18c-.1.12-.17.19-.2.22v.27ZM239.2,26.78c-.09,0-.13.07-.13.2s.04.2.13.2c.15,0,.22-.07.22-.2s-.07-.2-.22-.2ZM239.47,27.89c-.15,0-.22.07-.22.2s.07.2.22.2c.12,0,.18-.07.18-.2s-.06-.2-.18-.2ZM240.62,28.86c0,.35.18.53.53.53,0-.24-.03-.4-.09-.49-.06-.09-.21-.1-.44-.04ZM240.79,30.72h.4c.18-.03.4-.07.69-.11.28-.04.42-.08.42-.11v-.22c-.18-.06-.35-.12-.53-.18-.15-.06-.3-.11-.46-.15-.16-.04-.29-.08-.38-.11l.09.18s0,.05.02.07c.01.02.02.04.02.07v.04c-.06,0-.1-.01-.13-.04-.03-.03-.07-.06-.13-.09v.66Z"/>
      <path class="cls-1" d="M254.14,43.62h-.57v.71c0,.18-.21.27-.62.27-.15,0-.42-.07-.82-.2-.4-.13-.81-.29-1.24-.46s-.81-.36-1.15-.55c-.34-.19-.51-.36-.51-.51-.03.06-.1.11-.22.15-.12.04-.19.08-.22.11h-.13c-.03-.06-.07-.13-.13-.22-.06-.09-.09-.15-.09-.18.03-.09.12-.26.27-.51.15-.25.25-.41.31-.46.24-.35.5-.59.8-.71.29-.12.56-.35.79-.71h-.04s-.06-.02-.09-.04c-.12,0-.31.04-.57.13,0-.32.12-.62.38-.88.25-.27.51-.47.77-.62h.13c.12.03.24.1.38.2.13.1.24.18.33.24v.09c-.06.03-.12.07-.18.13-.03.03-.06.07-.09.13v1.24l.27.13.31-.4c.03.15.07.29.13.42.06.13.18.26.35.38.15-.12.19-.27.13-.46-.06-.19-.01-.36.13-.51l.35-.09v.97s.06.01.09.04c.06.06.1.07.13.04,0-.06.08-.16.24-.31.16-.15.26-.22.29-.22h.35c.24,0,.37.07.4.2.03.13.04.27.04.42s.02.29.07.42c.04.13.2.2.46.2l.18.53c.06-.06.12-.22.2-.49.07-.27.14-.43.2-.49,0-.03.02-.13.07-.29.04-.16.08-.26.11-.29l.09-.04.09.04s.07.1.11.22c.04.12.08.19.11.22h.18c.03-.06.07-.14.11-.24.04-.1.07-.17.07-.2.06.15.19.22.4.22.03-.03.08-.12.16-.27.07-.15.12-.22.15-.22l.04-.04.09-.04c.18,0,.28.06.31.18.03.12.04.26.02.42-.01.16-.02.33-.02.51s.04.31.13.4h.13c.12,0,.23-.06.33-.18.1-.12.21-.26.31-.42.1-.16.22-.3.35-.42.13-.12.29-.18.46-.18l.09.04c.06.03.12.12.2.29.07.16.14.26.2.29.06.06.21.22.44.49.24.27.4.43.49.49.06-.21.12-.4.18-.57.06-.18.09-.34.09-.49.21,0,.46-.02.75-.04.29-.03.58-.09.84-.18.27-.09.49-.21.69-.38.19-.16.29-.38.29-.64l-.09-.18c-.03-.06-.04-.13-.04-.22,0-.38.01-.84.04-1.37s.12-1.02.27-1.46c.09.12.14.26.15.42.01.16.04.32.09.46s.1.27.18.38c.07.1.23.15.46.15h.13v-.09s0-.06.02-.09c.01-.03.02-.06.02-.09v-.13c0-.09-.03-.22-.09-.4-.06-.18-.12-.35-.18-.53-.06-.18-.12-.33-.18-.46-.06-.13-.09-.23-.09-.29,0-.03-.04-.13-.13-.31-.09-.18-.15-.27-.18-.27s-.06-.02-.09-.04c-.03,0-.04-.03-.04-.09,0-.15.07-.22.22-.22s.22-.13.22-.4c0-.03-.04-.12-.11-.27-.07-.15-.16-.32-.27-.51-.1-.19-.2-.37-.29-.53-.09-.16-.15-.29-.18-.38v-4.95h-.15c-.07,0-.11-.03-.11-.09-.06-.09-.1-.26-.13-.51-.03-.25-.04-.4-.04-.46,0-.03.02-.09.07-.18.04-.09.08-.13.11-.13v-.31c0-.15-.04-.27-.11-.35s-.15-.18-.22-.27c-.07-.09-.15-.18-.22-.27-.07-.09-.11-.22-.11-.4.24,0,.35.07.35.22s.1.22.31.22h.26c-.03-.09-.08-.23-.15-.42-.07-.19-.11-.32-.11-.38v-.09c0-.32.04-.64.13-.95.09-.31.37-.46.84-.46-.56-.09-.94-.25-1.15-.49-.21-.24-.34-.49-.4-.75-.06-.27-.11-.5-.15-.71-.04-.21-.18-.31-.42-.31.06-.18.07-.46.02-.84-.04-.38-.12-.79-.22-1.22-.1-.43-.21-.82-.33-1.17-.12-.35-.24-.59-.35-.71h-.58l-.18-.13c-.06-.03-.13-.07-.2-.13-.07-.06-.14-.09-.2-.09h-.09c-.12,0-.22.04-.31.11-.09.07-.19.11-.31.11-.33,0-.65-.08-.97-.24-.32-.16-.65-.27-.97-.33-.12-.03-.37-.01-.75.04-.38.06-.68-.03-.88-.27-.09.06-.28.19-.58.4-.29.21-.49.34-.57.4-.09.06-.2.1-.33.11-.13.02-.21.02-.24.02-.35-.09-.53-.32-.53-.71,0-.15.03-.29.09-.42.06-.13.09-.27.09-.42-.24,0-.36.13-.38.38-.02.25-.08.49-.2.73-.09.15-.2.35-.33.62-.13.27-.23.4-.29.4h-.13v-1.02c-.15,0-.27.13-.38.38-.1.25-.21.52-.31.8-.1.28-.21.55-.33.8-.12.25-.28.38-.49.38-.12,0-.22-.03-.31-.09s-.21-.09-.35-.09c-.18.27-.31.47-.4.62-.09.15-.18.29-.27.42-.09.13-.13.21-.13.24-.03.18.04.45.22.82.18.37.39.76.64,1.17.25.41.51.8.77,1.15.26.35.47.57.62.66.29.15.6.25.93.31.32.06.63.21.93.44,0,.03.08.13.24.31s.26.27.29.27h.22c.18,0,.35-.04.51-.13s.36-.13.6-.13c.21,0,.48,0,.82.02.34.02.58.1.73.24.03,0,.06.08.09.24.03.16.06.27.09.33h.09c.21,0,.4-.04.6-.13.19-.09.38-.19.55-.31.18-.12.35-.22.51-.31s.35-.13.55-.13c0,.06.01.22.04.49s.04.43.04.49c0,.03.04.1.11.22.07.12.11.19.11.22v.04c0,.18-.06.34-.18.49-.12.15-.24.25-.35.31-.21-.06-.38-.05-.51.02-.13.07-.3.07-.51-.02-.03,0-.04-.05-.04-.15v-.33c0-.12.01-.28.04-.49,0-.06.04-.14.11-.24.07-.1.12-.15.15-.15v-.22l-1.19,1.15s-.04.03-.04.09v.13c0,.24.04.41.13.51.09.1.25.23.49.38-.06,0-.13.04-.2.13-.07.09-.14.13-.2.13v.31c.06,0,.1.04.13.11.03.07.07.14.13.2l.13.22s-.02.12-.07.27c-.04.15-.07.24-.07.27-.53-.21-.91-.38-1.15-.53-.24-.15-.39-.3-.46-.46-.07-.16-.09-.32-.04-.46.04-.15.09-.32.15-.53h-.13c-.38.27-.74.44-1.08.51-.34.07-.77.11-1.3.11-.26,0-.52-.06-.77-.18-.25-.12-.49-.25-.71-.4-.22-.15-.43-.28-.62-.4-.19-.12-.38-.18-.55-.18-.15,0-.25,0-.31.02-.06.02-.16.07-.31.15v-.18s.08-.15.15-.35c.07-.21.11-.34.11-.4v-.18c-.24,0-.44.04-.6.11-.16.07-.35.11-.55.11v-.49c-.24.06-.42.1-.55.11-.13.02-.26,0-.38-.02-.12-.03-.18-.12-.18-.27v-.13s.08-.11.16-.24c.07-.13.14-.23.2-.29,0-.06-.01-.06-.04,0-.03.06-.04.07-.04.04-.06,0-.17-.05-.33-.15-.16-.1-.27-.15-.33-.15s-.12.08-.18.24c-.06.16-.06.27,0,.33-.09-.18-.15-.32-.18-.44-.03-.12-.04-.23-.02-.33.01-.1.03-.22.04-.35.01-.13.02-.32.02-.55h-.4v.97c-.33-.18-.56-.42-.71-.73-.15-.31-.25-.63-.31-.95h-.18l-.09.09s-.06.04-.09.04h-.13s-.1-.04-.22-.11c-.12-.07-.19-.14-.22-.2,0-.12,0-.28-.02-.49-.02-.21-.02-.34-.02-.4v-.84c0-.41.02-.84.07-1.28.04-.44.12-.83.22-1.17.1-.34.24-.54.42-.6.29-.03.5-.02.62.02.12.04.18-.15.18-.6,0-.03-.03-.12-.09-.29-.06-.16-.09-.26-.09-.29s.07-.12.22-.27c.15-.15.25-.25.31-.31h.22s.08.1.16.22c.07.12.14.21.2.27-.06-.09-.06-.2,0-.33.06-.13.1-.23.13-.29.06,0,.16.02.31.04.15.03.24.02.27-.04.18-.18.31-.45.4-.82.09-.37.22-.64.4-.82.06-.15.17-.32.33-.51.16-.19.24-.36.24-.51,0-.09,0-.18-.02-.27-.02-.09-.1-.19-.24-.31.32-.06.59-.1.8-.13.21-.03.32-.22.35-.57h1.1s-.02.12-.07.27c-.04.15-.07.25-.07.31v.13c.12-.06.22-.15.31-.29.09-.13.18-.27.27-.42.03.03.08.08.15.15.07.07.11.14.11.2h.31c.03-.06.07-.1.13-.13.06-.03.12-.06.18-.09-.06-.03-.13-.08-.2-.15-.07-.07-.11-.12-.11-.15v-.18c0-.09.07-.17.2-.24.13-.07.26-.14.38-.2v.62c0,.21-.03.38-.09.51-.06.13-.09.29-.09.46.18,0,.3-.07.38-.2.07-.13.12-.28.16-.44.03-.16.08-.32.15-.46.07-.15.2-.22.38-.22.26-.06.44-.06.53,0,.09.06.17.14.24.24.07.1.15.2.22.29.07.09.23.13.46.13h.04l.09-.18c.03-.06.06-.1.09-.13l.09-.04.09.04h.04l.22.22c.06.06.11.12.16.18.04.06.08.1.11.13l.09.04h.09s.06-.01.09-.04c.03-.06.08-.11.16-.15.07-.04.12-.07.15-.07s.07,0,.11-.02c.04-.01.08-.02.11-.02h.09v.71l.09.09c.09.09.15.07.18-.04l.04-.04.09-.09s.06-.07.09-.13h.09c.15,0,.28.1.4.31.12.21.21.34.26.4.12-.09.2-.22.24-.4s.16-.28.33-.31c.03-.03.14-.07.33-.11.19-.04.32-.08.38-.11.03-.06.07-.12.11-.2.04-.07.08-.12.11-.15h.04c.21,0,.31.12.31.35v.22l-.18.13c0,.06.02.15.07.29.04.13.08.23.11.29,0-.03.03-.06.09-.09.06-.03.09-.06.09-.09h.18c.06.06.1.16.13.31.03.15.06.25.09.31,0,.03.03.04.09.04h.09c.15,0,.3-.08.46-.24.16-.16.24-.3.24-.42,0-.03,0-.1-.02-.2-.01-.1-.05-.17-.11-.2h.09c.5,0,.78.19.84.57.06.38.04.75-.04,1.1.29-.41.62-.62.97-.62v.22s-.06.07-.09.13l-.09.18c0,.18.04.28.11.31.07.03.18.04.33.04s.26-.04.33-.13c.07-.09.13-.19.18-.31s.08-.22.11-.31.09-.13.18-.13c.12,0,.22.1.31.29.09.19.15.41.2.66.04.25.07.49.09.73.01.24.02.4.02.49.26-.06.59-.1.97-.11.38-.01.68.14.88.46.06.65.18,1.27.35,1.86.18.59.26,1.19.26,1.81,0,.32-.06.56-.18.71-.12.15-.18.34-.18.57v.13c0,.06.01.21.04.44.03.24.04.4.04.49h.22c.06-.06.13-.1.22-.13.09-.03.15-.06.18-.09v.22c0,.15-.03.27-.09.35-.06.09-.09.19-.09.31h.58c0,.32-.07.65-.22.97-.15.32-.22.65-.22.97s.05.53.16.62c.1.09.21.15.31.18s.21.07.31.13c.1.06.16.19.16.4,0,.27-.09.39-.27.38-.18-.01-.27.07-.27.24s.16.43.49.75c.32.32.49.72.49,1.19,0,.41-.08.71-.24.91-.16.19-.35.35-.55.46-.21.12-.39.24-.55.35-.16.12-.24.31-.24.57,0,.09.02.18.07.27.04.09.17.13.38.13-.12.12-.18.28-.18.49v.22c0,.06,0,.18.02.38.01.19.04.38.07.57.03.19.05.38.07.55.01.18.02.29.02.35-.03.03-.1.09-.2.18-.1.09-.17.15-.2.18v.27l.09.18c.03.09.07.13.13.13v.13c0,.47-.01,1.06-.04,1.77s-.07,1.31-.13,1.81c-.06.09-.2.31-.42.66-.22.35-.35.57-.38.66-.03.21-.17.44-.42.71-.25.27-.41.47-.46.62-.15.21-.31.27-.49.2-.18-.07-.34,0-.49.2-.03,0-.09.12-.18.35-.09.24-.16.38-.22.44-.06,0-.1.01-.13.04-.09.06-.13.1-.13.13-.03.03-.07.05-.11.07-.04.01-.1.05-.16.11-.09.06-.16.1-.22.13-.15-.09-.25-.25-.31-.49-.06,0-.15.07-.26.2-.12.13-.24.27-.38.42-.13.15-.27.28-.4.4-.13.12-.24.19-.33.22-.06.03-.24.1-.55.2-.31.1-.49.17-.55.2-.03.03-.06.1-.09.2-.03.1-.06.17-.09.2-.06.06-.18.12-.35.2-.18.07-.36.15-.55.24-.19.09-.37.16-.53.22-.16.06-.26.09-.29.09h-.18s-.05-.1-.07-.2c-.02-.1-.04-.18-.07-.24-.09.24-.2.37-.33.4-.13.03-.27.04-.42.04-.32,0-.74,0-1.24-.02-.5-.02-.9-.07-1.19-.15-.27-.09-.46-.19-.57-.31s-.24-.24-.35-.38c-.12-.13-.28-.24-.49-.33-.21-.09-.53-.13-.97-.13v-.97ZM246.98,20.6c-.12,0-.18.07-.18.2s.06.2.18.2c.09,0,.13-.07.13-.2s-.04-.2-.13-.2ZM246.98,42.25c0-.24.04-.42.11-.55.07-.13.21-.3.42-.51.29.09.53.06.71-.09.18-.15.33-.32.46-.53.13-.21.27-.4.4-.57s.32-.27.55-.27c-.03.03-.04.06-.04.09v.13c-.06.18-.17.35-.33.53-.16.18-.33.35-.51.53s-.35.33-.51.46c-.16.13-.29.23-.38.29.03,0,.07.02.13.07.06.04.09.08.09.11v.18c0,.15-.07.29-.2.42-.13.13-.3.2-.51.2-.18,0-.29-.04-.33-.13s-.07-.21-.07-.35ZM250.12,42.25c0,.32.07.62.22.88.06-.06.12-.13.18-.22.06-.09.09-.15.09-.18l.09-.04c0-.18-.07-.29-.22-.35-.15-.06-.26-.09-.35-.09ZM251.18,18.12c0,.15.03.27.09.35.06.09.12.18.18.27.06,0,.1-.04.13-.13.03-.09.04-.16.04-.22,0-.18-.15-.27-.44-.27ZM252.02,15.78l.13.18.09.04s.06,0,.09-.02c.03-.01.06-.02.09-.02.24-.38.35-.75.35-1.1-.18,0-.35.09-.51.27s-.24.34-.24.49v.18ZM252.24,27.27c-.06,0-.09.06-.09.18s.03.18.09.18c.15,0,.22-.06.22-.18s-.07-.18-.22-.18ZM252.37,13.79c.24,0,.46.12.66.35.21.24.35.49.44.75.06-.03.12-.11.18-.24.06-.13.09-.23.09-.29-.06-.06-.2-.23-.42-.51-.22-.28-.42-.42-.6-.42-.06,0-.13.04-.22.13-.09.09-.13.16-.13.22ZM253.17,43.62c.18,0,.28-.04.31-.13s.06-.18.09-.27c.03-.09.08-.18.15-.27.07-.09.23-.13.46-.13,0-.12-.05-.23-.15-.33-.1-.1-.2-.15-.29-.15-.12,0-.24.05-.35.15-.12.1-.22.22-.31.35-.09.13-.21.32-.35.55.06.15.21.22.44.22ZM254.41,14.23c-.12,0-.22.04-.31.13h.31v-.13ZM254.41,43.4c0,.21.07.37.22.49v-.49h-.22ZM254.76,12.73v.29c0,.13.07.23.22.29v-.35c0-.09,0-.2.02-.33.01-.13-.05-.2-.2-.2-.03.03-.04.07-.04.13v.18ZM255.56,27.23c-.21,0-.34.06-.4.18h.4v-.18ZM256.35,13.92c-.24,0-.37.13-.4.38-.03.25-.04.45-.04.6,0,.03,0,.07.02.13.01.06.02.1.02.13.15-.15.25-.33.31-.55.06-.22.09-.45.09-.69ZM256.31,14.98c-.09,0-.13.07-.13.2s.04.2.13.2c.12,0,.18-.07.18-.2s-.06-.2-.18-.2ZM257.28,26.39c-.15,0-.22.07-.22.22s.07.22.22.22c.09,0,.13-.07.13-.22s-.04-.22-.13-.22ZM257.59,15.56c-.32.18-.49.44-.49.8.18,0,.33-.06.46-.18.13-.12.2-.25.2-.4s-.06-.22-.18-.22ZM257.32,14.36c0,.15.04.29.11.44.07.15.18.21.33.18.06-.03.11-.1.16-.2.04-.1.08-.17.11-.2v-.22h-.71ZM258.03,27.85c.44.21.87.2,1.28-.02.41-.22.78-.36,1.11-.42.12,0,.25.04.4.13v.09c0,.21-.13.38-.4.53-.27.15-.46.29-.58.44,0,.06-.01.17-.04.33-.03.16-.06.26-.09.29-.09.09-.25.15-.49.2-.24.04-.38.05-.44.02-.12-.15-.26-.41-.42-.8-.16-.38-.27-.65-.33-.8ZM258.38,16.53v-.44l-.22.27.22.18ZM258.52,15.38v-.22h-.13l.13.22ZM258.38,43.4h.13v-.53h-.13v.53ZM258.96,14.32c-.06-.06-.09-.02-.09.11s.03.18.09.15c.06-.03.09-.07.09-.13s-.03-.1-.09-.13ZM259.27,15.16s-.04,0-.04.09.01.13.04.13c.06,0,.09-.02.09-.07s-.03-.1-.09-.15ZM260.29,15.12c-.21,0-.35.07-.42.22-.07.15-.11.29-.11.44.35,0,.53-.22.53-.66ZM260.64,15.96c-.15.09-.29.23-.42.42-.13.19-.2.38-.2.55.15,0,.32-.06.51-.18.19-.12.29-.25.29-.4,0-.21-.06-.34-.18-.4ZM260.15,13.79c0,.09.03.2.09.33.06.13.16.2.31.2h.09c-.06-.35-.22-.53-.49-.53ZM262.1,15.16c-.06.09-.11.16-.16.22-.04.06-.07.12-.07.18h.22v-.4ZM261.92,16.88c.06.12.17.26.33.42.16.16.33.24.51.24,0-.18-.07-.45-.22-.82-.15-.37-.29-.58-.44-.64-.03.06-.07.16-.11.31-.04.15-.07.24-.07.27v.22ZM263.42,15.78c-.03-.06-.04-.04-.04.07s.01.14.04.11c.06-.03.09-.07.09-.11s-.03-.07-.09-.07ZM263.42,17.46h.18v-.31h-.18v.31ZM264,23.25h.18v-.18h-.18v.18ZM264.17,30.19c-.09,0-.13.06-.13.18s.04.18.13.18c.12,0,.18-.06.18-.18s-.06-.18-.18-.18ZM264.17,19.05c0,.09.04.16.13.22.09.06.18.09.26.09v-.62c-.09,0-.18.02-.26.07-.09.04-.13.13-.13.24ZM264.57,17.15c-.09,0-.13.05-.13.15s.04.15.13.15c.06,0,.09-.05.09-.15s-.03-.15-.09-.15ZM265.19,39.73c-.24.06-.41.12-.51.2-.1.07-.15.23-.15.46.09,0,.18-.06.29-.18.1-.12.23-.21.38-.27v-.22ZM264.93,29.79c0-.06-.04-.09-.11-.09s-.11.03-.11.09.04.09.11.09.11-.03.11-.09ZM266.21,17.15h.18v-.27l-.18.27ZM266.21,19.89h.18l-.18-.18v.18ZM267.14,17.59c-.09,0-.13.07-.13.22s.04.22.13.22c.15,0,.22-.07.22-.22s-.07-.22-.22-.22ZM267.49,31.12c-.06,0-.09.05-.09.15s.03.15.09.15c.12,0,.18-.05.18-.15s-.06-.15-.18-.15ZM267.49,30.54h.22v-.18l-.22.18ZM267.98,26.83c0,.09.01.24.04.46.03.22.04.35.04.38,0,.06.03.12.09.18.03.03.07.06.13.09v-.18c0-.06,0-.1.02-.13.01-.03.02-.06.02-.09,0-.15-.02-.3-.07-.46-.04-.16-.14-.29-.29-.38v.13ZM268.42,28.38c0,.06.01.1.04.13,0,.06.03.16.09.31.06.15.1.24.13.27.09-.03.22-.08.4-.15.18-.07.28-.18.31-.33-.06-.09-.18-.18-.38-.27-.19-.09-.39-.13-.6-.13v.18ZM268.46,30.19h.22v-.4h-.22v.4ZM268.68,26.96s.03.07.09.13c.03.03.06.07.09.13.03-.06.06-.1.09-.13.06-.06.09-.1.09-.13,0-.06-.03-.11-.09-.15-.06-.04-.09-.08-.09-.11-.03,0-.06.02-.09.04l-.09.09-.04.04.04.09Z"/>
    </g>
  </g>
</svg>