<?xml version="1.0" encoding="UTF-8"?>
<svg id="Layer_2" data-name="Layer 2" xmlns="http://www.w3.org/2000/svg" viewBox="0 0 162.21 41.21">
  <defs>
    <style>
      .cls-1 {
        fill: #fff;
      }
    </style>
  </defs>
  <g id="Layer_2-2" data-name="Layer 2">
    <g>
      <path class="cls-1" d="M0,31.48v-3.71c3.12,1.5,5.95,2.25,8.49,2.25,1.06,0,2.08-.21,3.06-.62.97-.41,1.71-1,2.21-1.77s.75-1.6.75-2.5c0-1.06-.34-2.04-1.03-2.96-.69-.92-1.98-1.93-3.87-3.04l-1.98-1.15-2.01-1.16C2.07,14.72.29,12.11.29,9c0-2.28.79-4.2,2.37-5.76S6.72.9,10.08.9c2.16,0,4.25.31,6.27.92v3.38c-2.22-.85-4.39-1.27-6.49-1.27-1.68,0-3.03.44-4.07,1.33-1.03.89-1.55,1.96-1.55,3.21s.4,2.27,1.19,3.09c.79.82,1.8,1.58,3.03,2.27l1.54.92,1.9,1.14,1.56.94c3.33,2.03,5,4.59,5,7.66,0,2.34-.85,4.35-2.56,6.03-1.7,1.68-4.44,2.52-8.19,2.52-1.2,0-2.34-.1-3.42-.3-1.09-.2-2.51-.62-4.28-1.26Z"/>
      <path class="cls-1" d="M42.32,31.5c-2.43.82-4.75,1.23-6.95,1.23s-4.13-.5-5.83-1.51-3.02-2.38-3.97-4.1c-.95-1.72-1.43-3.69-1.43-5.89,0-3.31,1.08-6.05,3.23-8.24s4.76-3.28,7.8-3.28c2.25,0,4.64.42,7.15,1.27v3.5c-2.54-1.16-4.81-1.74-6.82-1.74-1.33,0-2.58.33-3.75.99-1.17.66-2.08,1.68-2.71,3.08-.64,1.39-.96,2.83-.96,4.3,0,1.97.62,3.84,1.85,5.62,1.23,1.78,3.16,2.68,5.79,2.68.79,0,1.58-.05,2.34-.17.77-.11,2.19-.52,4.26-1.22v3.5Z"/>
      <path class="cls-1" d="M62.31,27.25c-1.11,1.82-2.44,3.18-4,4.11-1.56.92-2.99,1.38-4.29,1.38-1.82,0-3.46-.79-4.91-2.36-1.45-1.58-2.18-3.96-2.18-7.17,0-2.53.48-4.78,1.45-6.77.96-1.99,2.25-3.55,3.87-4.71s3.62-1.73,6-1.73c.69,0,1.73.07,3.12.21.21.03.52.06.94.1h3.64v15.41c0,2.63.28,4.77.84,6.41h-3.79c-.29-1.19-.53-2.82-.7-4.88ZM62.32,22.9v-9.37c-1.29-.34-2.49-.51-3.6-.51-2.24,0-4.11.87-5.61,2.6-1.49,1.73-2.24,4.09-2.24,7.08,0,2.16.41,3.8,1.22,4.9s1.75,1.65,2.79,1.65c1.13,0,2.39-.57,3.76-1.72,1.37-1.15,2.59-2.69,3.68-4.63Z"/>
      <path class="cls-1" d="M77.83,32.13V3.63h-6.52V.61h10.16v28.5h6.82v3.03h-10.45Z"/>
      <path class="cls-1" d="M102.09,32.13V13.34h-6.05v-3.03h9.69v18.79h6.07v3.03h-9.71ZM101.5,2.43c0-.82.28-1.43.84-1.83s1.08-.6,1.58-.6,1.04.2,1.6.6c.56.4.84,1.01.84,1.83s-.28,1.41-.84,1.81c-.56.4-1.09.6-1.6.6s-1.02-.2-1.58-.6-.84-1-.84-1.81Z"/>
      <path class="cls-1" d="M119.98,32.13V10.31h3.63v4.77c1.04-1.68,2.3-2.99,3.77-3.95,1.47-.95,2.94-1.43,4.41-1.43,1.29,0,2.46.34,3.52,1.03s1.79,1.58,2.22,2.69c.42,1.11.63,3.28.63,6.52v12.19h-3.63v-12.64c0-2.1-.1-3.48-.3-4.15-.2-.67-.57-1.22-1.11-1.65s-1.13-.64-1.77-.64c-1.28,0-2.65.61-4.11,1.82s-2.67,2.73-3.62,4.55v12.71h-3.63Z"/>
      <path class="cls-1" d="M158.57,27.22c-1.11,1.82-2.44,3.2-4,4.12-1.56.92-2.99,1.39-4.29,1.39-1.83,0-3.47-.79-4.92-2.36-1.45-1.58-2.18-3.96-2.18-7.17,0-2.53.48-4.78,1.45-6.77.96-1.99,2.25-3.55,3.87-4.71s3.62-1.73,6-1.73c.69,0,1.73.07,3.12.21.21.03.52.06.94.1h3.64v15.43c0,3.67-.05,5.92-.14,6.73s-.25,1.64-.47,2.47c-.52,1.94-1.71,3.47-3.57,4.59s-4.1,1.68-6.74,1.68-5.33-.68-8.04-2.03v-3.67c1.03.7,2.3,1.33,3.8,1.87s2.96.81,4.37.81c1.11,0,2.16-.18,3.15-.53s1.79-.86,2.41-1.52c.61-.66,1.03-1.44,1.25-2.32.22-.88.33-2.05.33-3.51v-3.09ZM158.57,22.9v-9.37c-1.29-.34-2.49-.51-3.6-.51-2.24,0-4.11.87-5.61,2.6-1.49,1.73-2.24,4.09-2.24,7.08,0,2.16.41,3.8,1.22,4.9s1.75,1.65,2.79,1.65c1.13,0,2.39-.57,3.76-1.72,1.37-1.15,2.59-2.69,3.68-4.63Z"/>
    </g>
  </g>
</svg>