<?xml version="1.0" encoding="UTF-8"?>
<svg id="Layer_2" data-name="Layer 2" xmlns="http://www.w3.org/2000/svg" viewBox="0 0 97.05 27.81">
  <defs>
    <style>
      .cls-1 {
        fill: #fff;
      }
    </style>
  </defs>
  <g id="Layer_2-2" data-name="Layer 2">
    <g>
      <path class="cls-1" d="M32.81,0c.87,0,1.31.3,1.31.9,0,.79-.61,2.01-1.82,3.63-.98,1.3-2.38,2.17-4.2,2.62-.55.14-1.04.21-1.49.21s-.93-.03-1.46-.1c-1.34-.17-3.02-.28-5.04-.33-1.59,2.81-2.76,4.96-3.52,6.45l3.03-.08c.61.03,1.36,0,2.25-.1l1.95-.18c.39-.04.65-.06.78-.08.53-.05.87.02,1,.21.25.35.37.76.37,1.23s-.03.87-.1,1.2-.16.65-.27.95c-.26.66-.55,1.13-.88,1.39-.7.56-1.88.84-3.52.84-.31,0-.61-.01-.9-.04l-5.96-.47c-1,2.38-1.79,4.71-2.36,6.97-.44,1.72-2.12,2.58-5.02,2.58-2.4,0-3.93-.56-4.59-1.68-.22-.38-.31-.74-.25-1.07.05-.34.18-.72.38-1.14.2-.42.47-.95.81-1.57l2.77-4.75c-.05,0-.22-.01-.52-.04-.29-.03-.51-.06-.65-.1-.35-.12-.64-.33-.86-.64s-.33-.64-.33-.98c0-.66.2-1.17.59-1.5.39-.34.8-.53,1.22-.59.42-.05.88-.08,1.38-.1l1.64-.04c2-3.11,3.46-5.31,4.36-6.6-3.23.23-6.04,1-8.42,2.29-.66.36-1.2.72-1.61,1.07s-.76.53-1.04.53-.53-.04-.73-.13c-.2-.08-.39-.2-.56-.34-.36-.33-.55-.68-.55-1.06s.1-.74.31-1.06C2.8,4.46,5.57,2.11,8.63,1.25c1.08-.3,2.27-.45,3.55-.45,5.36,0,9.63-.06,12.78-.2,3.16-.13,4.88-.21,5.17-.25l1.82-.27c.3-.05.59-.08.86-.08Z"/>
      <path class="cls-1" d="M53.69,17.52c0,1.32.58,1.97,1.74,1.97s3.16-1.11,6.02-3.34l1.72-1.41c1.13-.94,2.21-1.41,3.24-1.41.38,0,.62.1.74.3.12.2.18.46.18.76s-.06.62-.17.96-.26.68-.46,1.04c-.43.82-.85,1.46-1.25,1.91-.4.46-.88.93-1.42,1.42s-1.18,1.04-1.92,1.64-1.56,1.22-2.46,1.86c-.9.63-1.8,1.21-2.71,1.73-2.06,1.2-3.75,1.8-5.08,1.8-1.59,0-2.83-.56-3.73-1.68-.85-1.04-1.32-2.43-1.43-4.18-2.34,2.41-4.82,4.26-7.44,5.57-1.6.79-2.96,1.19-4.06,1.19s-2.08-.13-2.91-.4-1.56-.67-2.19-1.2c-1.35-1.13-2.03-2.71-2.03-4.73,0-2.89,1.04-5.68,3.11-8.36.65-.83,1.38-1.56,2.19-2.19,1.75-1.09,3.59-1.64,5.55-1.64.86,0,1.47.27,1.84.8.14.21.21.48.21.81s-.09.72-.28,1.15c-.19.44-.42.89-.69,1.37-.27.48-.58.97-.91,1.47s-.63,1-.91,1.48c-.65,1.15-.98,1.97-.98,2.47s.14.87.43,1.1.64.35,1.05.35c.92,0,1.71-.22,2.36-.67s1.3-.97,1.93-1.55l1.84-1.8,1.78-1.84c1.26-1.29,2.22-2.09,2.88-2.41.66-.32,1.14-.44,1.44-.36s.61.22.92.42c.31.2.62.45.92.73.7.68,1.09,1.29,1.17,1.84.03.35,0,.88-.09,1.57-.08.7-.13,1.18-.13,1.44Z"/>
      <path class="cls-1" d="M84.8,16.86c0,1.19.34,1.78,1.04,1.78,1.69,0,3.89-1.15,6.6-3.44l.53-.45c1.05-.7,1.91-1.05,2.57-1.05s1.07.1,1.25.29.26.51.26.94c0,.96-.49,1.99-1.46,3.07-1.46,1.77-3.46,3.45-6,5.04-2.94,1.85-5.58,2.77-7.91,2.77-1.63,0-2.65-.9-3.07-2.71-.12-.47-.2-.92-.25-1.35-.13-1.04-.27-1.62-.41-1.74s-.43-.11-.85.03-.92.36-1.5.68c-.58.32-1.22.71-1.92,1.16-3.72,2.47-5.87,3.89-6.43,4.24-1.34.83-2.25,1.25-2.71,1.25s-.93-.1-1.38-.29-.84-.44-1.18-.74c-.7-.66-1.05-1.34-1.05-2.03,0-3.95.86-7.4,2.58-10.35,1.15-1.99,2.55-3.37,4.22-4.14.85-.4,1.76-.61,2.73-.61,1.78,0,2.68.59,2.68,1.76,0,.72-.42,1.89-1.27,3.52l-.59,1.15c-.42.79-.62,1.24-.61,1.35.08.39.25.59.53.59.3,0,.74-.22,1.33-.66l3.59-2.68,1.8-1.25c2.07-1.35,3.59-2.03,4.57-2.03.52,0,1,.21,1.43.62.79.76,1.19,1.41,1.19,1.97,0,.18-.02.4-.05.66-.03.26-.07.54-.11.84l-.08.92c-.04.31-.06.61-.06.9Z"/>
    </g>
  </g>
</svg>