<?xml version="1.0" encoding="UTF-8"?>
<svg id="Layer_2" data-name="Layer 2" xmlns="http://www.w3.org/2000/svg" viewBox="0 0 162.09 35.12">
  <defs>
    <style>
      .cls-1 {
        fill: #fff;
      }
    </style>
  </defs>
  <g id="Layer_2-2" data-name="Layer 2">
    <g>
      <path class="cls-1" d="M3.63,19.45l-3.18,3.05c-.3-1.02-.45-2.02-.45-3.03,0-3.36,1.25-6.05,3.75-8.09,2.5-2.03,5.82-3.05,9.96-3.05h1.54c-.59,2.98-.94,4.99-1.05,6.02l-1.06,9.55-.25,2.17c-.22,1.85-.62,3.18-1.2,4s-1.69,1.62-3.33,2.4l5.66.29-2.34,2.27-9.51-.43,2.5-2.42,2.13.23c1.59-1,2.57-3.05,2.93-6.15l.21-1.89,1.51-13.67h-.61c-5.42,0-8.14,1.79-8.14,5.37,0,1.12.31,2.25.92,3.38Z"/>
      <path class="cls-1" d="M23.26,33.93l-2.92,1.19.06-.55.16-1.45.16-1.37,1.02-9.06.12-1.04c.08-.81.12-1.46.12-1.95,0-.83-.21-1.25-.62-1.25-.98,0-2.03,1.11-3.15,3.32-.3-.25-.45-.46-.45-.64,0-.78.71-1.85,2.14-3.19,1.43-1.35,2.55-2.02,3.37-2.02,1.12,0,1.68.72,1.68,2.15,0,.36-.03.85-.1,1.46l-.16,1.58-.16,1.33-.16,1.39c1.54-2.29,3.22-4.18,5.05-5.67s3.39-2.24,4.68-2.24,1.89.88,1.89,2.63c0,.53-.07,1.33-.21,2.4l-1.06,7.28c-.22,1.46-.32,2.61-.32,3.45,0,.68.18,1.01.55,1.01.9,0,2.01-1.19,3.33-3.57.31.2.47.4.47.61,0,.85-.73,1.96-2.18,3.33-1.45,1.37-2.64,2.06-3.55,2.06-1.02,0-1.53-.73-1.53-2.19,0-1.07.14-2.55.41-4.43l.69-4.73c.22-1.54.33-2.75.33-3.65,0-1.03-.36-1.54-1.07-1.54-1.67,0-3.35,1.13-5.06,3.39-1.71,2.26-2.71,4.68-3,7.28l-.52,4.69Z"/>
      <path class="cls-1" d="M52.42,28.4c.33.22.49.48.49.78,0,.4-.42,1.09-1.25,2.07-2.23,2.58-4.43,3.87-6.6,3.87-1.33,0-2.42-.53-3.28-1.58s-1.29-2.4-1.29-4.04c0-2.97,1.12-5.97,3.37-9.01s4.47-4.56,6.67-4.56c1.59,0,2.38.85,2.38,2.56,0,1.91-.93,3.78-2.78,5.61s-4.12,3.09-6.79,3.81c.26,3.12,1.5,4.69,3.71,4.69s3.98-1.39,5.37-4.18ZM43.42,25.51c.38.13.72.2,1.04.2,1.61,0,3.03-.5,4.24-1.48s1.82-2.15,1.82-3.48c0-1.52-.77-2.29-2.32-2.29-1.12,0-2.13.67-3.04,2s-1.48,3.02-1.73,5.05Z"/>
      <path class="cls-1" d="M64.25,30.79c3.63-5.08,5.45-8.62,5.45-10.61,0-.74-.38-1.33-1.13-1.76l2.44-2.5c.95.48,1.43,1.25,1.43,2.3,0,1.3-1.24,3.83-3.73,7.6-.55.81-.93,1.39-1.15,1.76l-.49.84-.9,1.43c-.5.78-1.02,1.66-1.56,2.64l-2.71,2.64c-.5-4.2-1.3-8-2.42-11.42-1.12-3.42-2.12-5.12-3.01-5.12-.99,0-1.68.99-2.07,2.97-.38-.13-.57-.34-.57-.64,0-.99.43-2.06,1.28-3.2.85-1.15,1.66-1.74,2.41-1.78,2.82-.14,5.07,4.82,6.74,14.87Z"/>
      <path class="cls-1" d="M82.91,28.93c.35.21.52.41.52.61,0,.47-.57,1.39-1.7,2.77-1.52,1.88-2.94,2.81-4.24,2.81-.95,0-1.43-.63-1.43-1.89,0-.53.2-2.17.59-4.92l.76-5.31.2-1.35.16-1.07c.07-.46.1-.84.1-1.15,0-.65-.18-.98-.54-.98-1.01,0-2.1,1.11-3.27,3.34-.25-.22-.37-.44-.37-.66,0-.79.73-1.86,2.2-3.2s2.63-2.01,3.51-2.01c.98,0,1.46.68,1.46,2.03,0,.26-.05.79-.16,1.6l-.18,1.31c-.01.1-.08.63-.21,1.58l-.8,5.58-.2,1.25c-.17,1.24-.25,2.06-.25,2.48,0,.56.16.84.49.84,1.09,0,2.21-1.22,3.36-3.65ZM79,13.4l1.64-4.04c1.46-.6,2.66-1.43,3.59-2.48.13.18.2.37.2.57,0,1.75-1.81,3.73-5.43,5.96Z"/>
      <path class="cls-1" d="M91.39,18.69l-.95,8.63c-.17,1.55-.25,2.7-.25,3.44,0,1.47.5,2.21,1.5,2.21,1.08,0,2.19-.89,3.35-2.66.2.25.29.47.29.66,0,.73-.64,1.6-1.92,2.62s-2.39,1.52-3.31,1.52c-1.85,0-2.77-1.18-2.77-3.55,0-.87.11-2.29.33-4.24l.94-8.63h-4.1l2.27-2.27h2.08l.41-3.55,2.88-.96-.47,4.51h8.28l-2.29,2.27h-6.26Z"/>
      <path class="cls-1" d="M111.27,26.86c-1.47,2.42-3.09,4.4-4.85,5.95-1.76,1.54-3.29,2.31-4.59,2.31-1.78,0-2.67-1.44-2.67-4.32,0-3.96,1.3-7.39,3.9-10.28s5.67-4.35,9.23-4.35c1.35,0,2.51.17,3.46.51-.07.23-.1.38-.12.43l-.23,1.03c-.16.72-.24,1.13-.25,1.25l-1.25,8.62-.18,1.25c-.17,1.24-.25,2.06-.25,2.48,0,.56.16.84.49.84,1.09,0,2.2-1.22,3.34-3.65.35.21.52.42.52.62,0,.46-.56,1.37-1.68,2.75-1.52,1.88-2.94,2.81-4.24,2.81-.95,0-1.43-.64-1.43-1.91,0-.39.05-.93.14-1.62l.2-1.56.25-1.72.22-1.45ZM112.39,19.12c-1.19-.66-2.38-.99-3.6-.99-1.82,0-3.35,1.11-4.59,3.33-1.24,2.22-1.86,4.98-1.86,8.27,0,1.69.5,2.54,1.5,2.54,1.16,0,2.56-.88,4.2-2.65,2.21-2.38,3.56-5.18,4.03-8.39l.31-2.11Z"/>
      <path class="cls-1" d="M124.67,24.21c1.41-2.45,2.97-4.45,4.68-5.98s3.22-2.31,4.52-2.31c1.88,0,2.82,1.6,2.82,4.79,0,3.91-1.24,7.25-3.72,10.02-2.48,2.77-5.47,4.16-8.98,4.16-.44,0-.83-.02-1.17-.06l-1.58-.16c-.09,0-.34-.01-.74-.04.29-.99.49-2.03.61-3.12l1.87-16.86c.46-4.05,1.96-7.51,4.5-10.36,2.54-2.85,5.38-4.28,8.52-4.28.65,0,1.28.07,1.88.21l-2.87,2.81c-.74-.22-1.44-.33-2.09-.33-3.88,0-6.16,3.02-6.82,9.07l-1.4,12.44ZM123.83,31.93c1.21.66,2.42,1,3.62,1,1.79,0,3.25-1.04,4.37-3.11,1.12-2.07,1.68-4.78,1.68-8.1,0-1.94-.53-2.91-1.58-2.91-1.17,0-2.54.88-4.11,2.63-2.13,2.38-3.38,5.17-3.74,8.39l-.23,2.11Z"/>
      <path class="cls-1" d="M147,28.87c.38.18.56.42.56.7,0,.94-.7,2.1-2.1,3.48s-2.58,2.07-3.53,2.07c-1.08,0-1.62-.78-1.62-2.34,0-.95.06-1.92.18-2.91l.21-1.74,1.51-13.59c.47-4.14,1.89-7.6,4.27-10.37s5.11-4.16,8.21-4.16c.75,0,1.39.07,1.91.2l-2.77,2.83c-.61-.21-1.33-.31-2.15-.31-1.95,0-3.41.69-4.38,2.06-.97,1.37-1.63,3.7-2,6.98l-1.81,16.36c-.14,1.26-.21,2.17-.21,2.71,0,1.17.2,1.76.6,1.76.48,0,1.04-.39,1.69-1.16.65-.77,1.12-1.62,1.42-2.55Z"/>
      <path class="cls-1" d="M161.6,28.4c.33.22.49.48.49.78,0,.4-.42,1.09-1.25,2.07-2.23,2.58-4.43,3.87-6.6,3.87-1.33,0-2.42-.53-3.28-1.58s-1.29-2.4-1.29-4.04c0-2.97,1.12-5.97,3.37-9.01s4.47-4.56,6.67-4.56c1.59,0,2.38.85,2.38,2.56,0,1.91-.93,3.78-2.78,5.61s-4.12,3.09-6.79,3.81c.26,3.12,1.5,4.69,3.71,4.69s3.98-1.39,5.37-4.18ZM152.6,25.51c.38.13.72.2,1.04.2,1.61,0,3.03-.5,4.24-1.48s1.82-2.15,1.82-3.48c0-1.52-.77-2.29-2.32-2.29-1.12,0-2.13.67-3.04,2s-1.48,3.02-1.73,5.05Z"/>
    </g>
  </g>
</svg>