<?xml version="1.0" encoding="UTF-8"?>
<svg id="Layer_2" data-name="Layer 2" xmlns="http://www.w3.org/2000/svg" viewBox="0 0 237.36 29.1">
  <defs>
    <style>
      .cls-1 {
        fill: #fff;
      }
    </style>
  </defs>
  <g id="Layer_2-2" data-name="Layer 2">
    <g>
      <path class="cls-1" d="M0,0h26.89v7.07h-9.02v21.56h-8.85V7.07H0V0Z"/>
      <path class="cls-1" d="M31.45,0h7.95v10.55c1.08-1.12,2.16-1.92,3.22-2.4,1.07-.48,2.33-.72,3.79-.72,2.16,0,3.86.66,5.11,1.97,1.24,1.32,1.87,3.33,1.87,6.05v13.18h-7.99v-11.41c0-1.3-.24-2.22-.72-2.76-.48-.54-1.16-.81-2.03-.81-.96,0-1.75.37-2.34,1.09-.6.73-.9,2.04-.9,3.93v9.96h-7.95V0Z"/>
      <path class="cls-1" d="M81.15,20.23h-15.94c.14,1.28.49,2.23,1.04,2.85.77.9,1.77,1.35,3.01,1.35.78,0,1.52-.2,2.23-.59.43-.25.89-.68,1.39-1.31l7.83.72c-1.2,2.08-2.64,3.58-4.34,4.48-1.69.91-4.12,1.36-7.29,1.36-2.75,0-4.91-.39-6.48-1.16s-2.88-2-3.92-3.69c-1.04-1.69-1.55-3.67-1.55-5.95,0-3.24,1.04-5.87,3.12-7.87,2.08-2,4.94-3.01,8.6-3.01,2.97,0,5.31.45,7.03,1.35s3.03,2.2,3.93,3.91c.9,1.71,1.35,3.93,1.35,6.66v.9ZM73.07,16.43c-.16-1.54-.57-2.64-1.24-3.3s-1.55-1-2.65-1c-1.26,0-2.27.5-3.03,1.5-.48.62-.79,1.56-.92,2.79h7.83Z"/>
      <path class="cls-1" d="M98.71,0h21.88v6.15h-12.99v5h11.09v5.78h-11.09v11.7h-8.89V0Z"/>
      <path class="cls-1" d="M146.68,28.63h-7.42v-3.36c-1.11,1.38-2.22,2.36-3.35,2.95s-2.51.88-4.15.88c-2.19,0-3.9-.65-5.15-1.96s-1.87-3.32-1.87-6.04V7.89h7.99v11.41c0,1.3.24,2.23.72,2.77s1.16.82,2.03.82c.95,0,1.73-.36,2.33-1.09.61-.73.91-2.04.91-3.93V7.89h7.95v20.74Z"/>
      <path class="cls-1" d="M161.09,0v7.89h4.38v5.82h-4.38v7.35c0,.88.08,1.47.25,1.75.26.44.72.66,1.37.66.59,0,1.41-.17,2.46-.51l.59,5.49c-1.97.43-3.8.64-5.51.64-1.98,0-3.44-.25-4.38-.76-.94-.51-1.63-1.28-2.08-2.31-.45-1.03-.67-2.71-.67-5.02v-7.3h-2.93v-5.82h2.93v-3.81l7.97-4.08Z"/>
      <path class="cls-1" d="M191.11,28.63h-7.42v-3.36c-1.11,1.38-2.22,2.36-3.35,2.95s-2.51.88-4.15.88c-2.19,0-3.9-.65-5.15-1.96s-1.87-3.32-1.87-6.04V7.89h7.99v11.41c0,1.3.24,2.23.72,2.77s1.16.82,2.03.82c.95,0,1.73-.36,2.33-1.09.61-.73.91-2.04.91-3.93V7.89h7.95v20.74Z"/>
      <path class="cls-1" d="M196.02,7.89h7.44v3.4c.72-1.47,1.46-2.48,2.22-3.04.76-.55,1.7-.83,2.82-.83s2.45.37,3.85,1.09l-2.46,5.66c-.94-.39-1.68-.59-2.23-.59-1.04,0-1.85.43-2.42,1.29-.82,1.21-1.23,3.48-1.23,6.8v6.95h-7.99V7.89Z"/>
      <path class="cls-1" d="M237.36,20.23h-15.94c.14,1.28.49,2.23,1.04,2.85.77.9,1.77,1.35,3.01,1.35.78,0,1.52-.2,2.23-.59.43-.25.89-.68,1.39-1.31l7.83.72c-1.2,2.08-2.64,3.58-4.34,4.48-1.69.91-4.12,1.36-7.29,1.36-2.75,0-4.91-.39-6.48-1.16s-2.88-2-3.92-3.69c-1.04-1.69-1.55-3.67-1.55-5.95,0-3.24,1.04-5.87,3.12-7.87,2.08-2,4.94-3.01,8.6-3.01,2.97,0,5.31.45,7.03,1.35s3.03,2.2,3.93,3.91c.9,1.71,1.35,3.93,1.35,6.66v.9ZM229.28,16.43c-.16-1.54-.57-2.64-1.24-3.3s-1.55-1-2.65-1c-1.26,0-2.27.5-3.03,1.5-.48.62-.79,1.56-.92,2.79h7.83Z"/>
    </g>
  </g>
</svg>