<?xml version="1.0" encoding="UTF-8"?>
<svg id="Layer_2" data-name="Layer 2" xmlns="http://www.w3.org/2000/svg" viewBox="0 0 166.28 29.96">
  <defs>
    <style>
      .cls-1 {
        fill: #fff;
      }
    </style>
  </defs>
  <g id="Layer_2-2" data-name="Layer 2">
    <g>
      <path class="cls-1" d="M2.16,1.48v28H0V1.48h2.16Z"/>
      <path class="cls-1" d="M9.04,14.52c0-1.76,0-3.44-.04-5.04h1.96c.08.64.12,3.24.08,3.8.88-2.04,2.52-4.28,6.64-4.28,3.56,0,6.72,2,6.72,7.52v12.96h-2v-12.64c0-3.56-1.48-5.88-4.96-5.88-4.76,0-6.4,3.96-6.4,8.32v10.2h-2v-14.96Z"/>
      <path class="cls-1" d="M30.96,14.52c0-1.76,0-3.44-.04-5.04h1.96c.08.64.12,3.24.08,3.8.88-2.04,2.52-4.28,6.64-4.28,3.56,0,6.72,2,6.72,7.52v12.96h-2v-12.64c0-3.56-1.48-5.88-4.96-5.88-4.76,0-6.4,3.96-6.4,8.32v10.2h-2v-14.96Z"/>
      <path class="cls-1" d="M69.08,19.44c0,5.56-3.08,10.52-9.04,10.52-5.4,0-8.76-4.44-8.76-10.48,0-5.72,3.16-10.48,8.96-10.48,5.32,0,8.84,4.16,8.84,10.44ZM53.4,19.48c0,4.76,2.56,8.6,6.8,8.6s6.76-3.56,6.76-8.6c0-4.72-2.4-8.6-6.84-8.6s-6.72,3.8-6.72,8.6Z"/>
      <path class="cls-1" d="M73.76,9.48c3.24,9.16,5.48,15.4,6.24,17.96h.04c.44-1.48,2.68-7.44,6.56-17.96h2.12l-7.56,20h-2.4l-7.12-20h2.12Z"/>
      <path class="cls-1" d="M106,25.68c0,1.76.16,3.16.28,3.8h-1.92c-.16-.48-.28-1.36-.36-3.08-.68,1.48-2.44,3.56-6.56,3.56-4.64,0-6.64-3-6.64-6,0-4.4,3.4-6.4,9.4-6.4h3.8v-2.04c0-2-.6-4.68-5.16-4.68-4.04,0-4.64,2.12-5.08,3.76h-2c.24-2.2,1.6-5.6,7.12-5.6,4.56,0,7.12,1.92,7.12,6.32v10.36ZM104.04,19.28h-3.92c-4.44,0-7.2,1.16-7.2,4.6,0,2.52,1.8,4.24,4.6,4.24,5.72,0,6.52-3.8,6.52-8.12v-.72Z"/>
      <path class="cls-1" d="M109.4,9.48h3.72V3.24h2v6.24h4.76v1.88h-4.76v13c0,2.24.48,3.52,2.4,3.52.6,0,1.44-.04,2.08-.24v1.76c-.68.28-1.64.36-2.48.36-2.56,0-4-1.28-4-4.48v-13.92h-3.72v-1.88Z"/>
      <path class="cls-1" d="M123.96,0h2v3.88h-2V0ZM123.96,9.48h2v20h-2V9.48Z"/>
      <path class="cls-1" d="M132.2,9.48c3.24,9.16,5.48,15.4,6.24,17.96h.04c.44-1.48,2.68-7.44,6.56-17.96h2.12l-7.56,20h-2.4l-7.12-20h2.12Z"/>
      <path class="cls-1" d="M151.52,19.72c.04,5.16,2.64,8.36,6.48,8.36s5.04-2.12,5.76-3.76h2.04c-.84,2.64-2.96,5.64-7.88,5.64-6.08,0-8.44-5.24-8.44-10.32,0-5.72,2.84-10.64,8.68-10.64,6.16,0,8.12,5.32,8.12,9.08,0,.56,0,1.12-.04,1.64h-14.72ZM164.2,17.96c-.04-3.96-2.2-7.08-6.12-7.08-4.12,0-6,2.88-6.44,7.08h12.56Z"/>
    </g>
  </g>
</svg>