<?xml version="1.0" encoding="UTF-8"?>
<svg id="Layer_2" data-name="Layer 2" xmlns="http://www.w3.org/2000/svg" viewBox="0 0 176.24 27.56">
  <defs>
    <style>
      .cls-1 {
        fill: #fff;
      }
    </style>
  </defs>
  <g id="Layer_2-2" data-name="Layer 2">
    <g>
      <path class="cls-1" d="M27.8,25.36l-.56,1.04-1.12.32c-.48.27-.91.43-1.28.48l-.48.32c-.05,0-.15.01-.28.04h-.32c-1.01,0-1.8-.33-2.36-1l-.24-.28-.28-.04c-.53-.08-.95-.31-1.24-.68-.19-.32-.39-.65-.6-1l-.2-.28-.28-1-.48-.68-.32-1.04-.36-.72-.64-3.6v-1.24l-.24.24-.6.4c-.03.45-.23.68-.6.68l-.4.44-.56.32-.4.4c-.11.35-.35.6-.72.76l-.48.52-.64.28-.48.6-3.24,2.28-1.4.84-.88.64-.56.16-1,.8-.8.36h-1.32l-.76-.84-.56-.36v-.72l-.32-.28-.4-2.44-.12-.32-.16-1.72.24-.76-.12-.48.12-.6-.16-1.76-.2-.32c.04-.43.16-.75.36-.96v-.16l.12-.84-.28-.52v-.84l.28-.4-.12-.6.28-1.12-.28-1.4.24-.56-.24-.76.41-.44c.16-.29.42-.44.78-.44h.33l.98.28c.27.11.48.33.61.68.22.13.44.48.65,1.04l-.4.56c-.35,1.31-.52,2.15-.52,2.52v.12c.05.37.2.67.44.88-.37,1.57-.56,2.85-.56,3.84v.28l.36.48-.16.88-.08,1.2.24.72-.6.52c.43.99.64,1.68.64,2.08h1.08c.05-.11.13-.23.24-.36l.6-.04.48-.56c.27-.24.53-.43.8-.56.16-.21.4-.36.72-.44l1.04-.64-.04-.4.92-.16.68-.72.04-.08.08-.04.28-.32.32.16.4-.32.32-.8.32.04c.27-.21.56-.41.88-.6l.12-.16.24-.24v-.64l.68-.2.44-.52.44-.2.08-.56h.28c.11-.13.28-.25.52-.36v-.4l.52-.16.68-1.28.32-.96.12-.92.44-.68.08-.48.08-1.04.28-.72,1-.84,1.16.6.28.32c.43.27.81.57,1.16.92l-.32.64v.52c-.08.51-.32.85-.72,1.04l-.28.52v.64l-.28.64.04,1.08c-.11.16-.23.24-.36.24-.03,0-.07-.01-.12-.04.4.24.6.63.6,1.16,0,.19-.01.32-.04.4l-.32.04.12.4-.12,1.04.28.64-.12.88c.03.11.04.28.04.52.21.27.32.53.32.8v.16c-.03.05-.04.11-.04.16l.16.48c.19.85.51,1.79.96,2.8l.4.6.12.24.4.4.92.88.64.12.24-.4.64.24.16-.08c.32-.24.68-.36,1.08-.36.19,0,.71.07,1.56.2l.28,1Z"/>
      <path class="cls-1" d="M53.4,18.76c0,.21-.17.49-.52.84l-.44.68-.16.8-.36.12-.08.24c-.43.13-.73.47-.92,1-.29.37-.61.64-.96.8-.13.13-.25.23-.36.28l-.2.36-.36.08-1.04.56-1.36.16-.36-.08-.6.12-.24-.28c-.37-.19-.64-.37-.8-.56-.32-.08-.56-.33-.72-.76-.45-.53-.68-.96-.68-1.28v-.12l-.28-.48-.08-.08-.24-.72-.36-.76.08-.92-.4-.52-.6-3.44c-.08-.45-.12-.84-.12-1.16l-.08-.2-.2-.28-.37.48-1.46,1.51-.53.83-.26.57-.43.64-.32.32.04.2-.56,1.24-.32.4-.4.08-.36.36c0,.53-.25.88-.76,1.04l-.08.08c-.24.59-.51.95-.8,1.08l-.36.56c-.59.53-.97.87-1.16,1-.08.27-.23.49-.44.68-.05.08-.15.19-.28.32-.08.45-.45.77-1.12.96l-.44.12c-.53-.03-.97-.33-1.32-.92l-.6-1,.24-.96-.12-.52.08-.08.04-.52-.44-.96.32-.48-.16-.52.31-.56.09-.92-.12-.16.24-.56-.09-.28-.03-.64.12-1.2c-.08-.27-.12-.44-.12-.52v-.32l-.12-.32.12-1.28v-2.16l.7-1.2c.8.13,1.36.31,1.67.54s.47.63.47,1.22v.36l.32.48-.16.84.16,1.6-.28.76.12.84v.68l-.36.44.36.72-.31.44-.05.44.24.44-.32.84-.12.36v.36l.2.4.68-.68c0-.4.13-.67.4-.8.03-.27.13-.47.32-.6l-.12-.12.52-.48.12-.16v-.36l.64-.48.16-.4.36-.24,1.56-1.76c-.13.16-.57.65-1.32,1.48v.08l.08-.28.52-.6.36-.68v-.4l.6-.2.08-.52.16-.16.04-.2v-.28l.56-.56v-.2c-.03-.08-.04-.13-.04-.16,0-.48.27-.75.8-.8.24-.48.6-.76,1.08-.84l.24-.36.08-.08c.24-.35.6-.59,1.08-.72l.36-.44h.96l.48.56.44.24.04.12.28.08.08.84.68.4-.28.88.44.96v1.12l.32,1.52.08,1.44.36.84.24,1.04c.16.16.28.39.36.68l.72.2v.8l.4.44v.12l.16.04.16.24.16-.2c-.05,0,.01.01.2.04.29,0,.6-.27.92-.8l.48-.11.12-.2c.08-.22.24-.38.48-.49l.28.04.16-.16.04-.2.12-.16c.27-.19.44-.47.52-.84l.44-.48.08-.36.28-.64.76-.28,1.08.36.36,1.16s.01.05.04.08v.12Z"/>
      <path class="cls-1" d="M78.2,22.28l-.24.44c0,.77-.27,1.37-.8,1.8,0,.27-.09.48-.28.64l-.2.44-.52.36-.24.44-1.6.84-.76.2-1.16.08-.64-.28h-.52l-.52-.35-.4-.04-1.6-.83-1.44-1.18c-.43-.37-1.07-.91-1.92-1.6l-.88-1.2-.72-.6-.12-.28-.36-.44c-.35-.43-.76-.88-1.24-1.36l-.68-.24-.76-1.52.12-.6c.16-.85.59-1.33,1.28-1.44l.76.24.64.64.68.44h.64l.16.12c.21,0,.39.01.52.04.27-.13.73-.28,1.4-.44l.36-.08.24-.52h.96c.29-.24.6-.37.92-.4h.08c.08-.19.19-.41.32-.68l.76-.36.32-.32.6-1h.28c.11-.27.21-.64.32-1.12l.36-.24-.28-.16.16-.68c-.05-.11-.2-.2-.44-.28l-.48.16-.16-.32-.4-.16-.12-.16c-.4-.05-.98-.11-1.72-.16v-.08h-.72c-.35,0-.85.19-1.52.56h-.56c-1.01.35-1.59.6-1.72.76l-.88.28-1.24,1-1.16,1.16-.02.16-.76,1.32-.23.76-.15.08v.16c-.08.16-.15.31-.2.44l-.24.12.08.12-.12.2c-.03.05-.04.12-.04.2,0,.13.05.25.16.36,0,.56-.12.92-.37,1.08-.05.11-.07.21-.07.32v.2c0,.45-.09.83-.28,1.12-.13.13-.21.23-.24.28v2.04c-.19.48-.28.87-.28,1.16v.44c0,.29-.16.6-.48.92-.32.32-.62.48-.9.48-.36,0-.73-.23-1.11-.68l-.42-1.24v-3.96l.16-.52v-.44c0-.53.03-1.07.08-1.62.05-.55.08-.83.08-.86v-.68l.04-.36v-1.12l.16-.32-.16-.48.16-1.32v-1.4l-.16-.8.16-.32-.04-.16-.17-2.16-.3-1.32v-.36l.32-1.36-.16-.52-.08-.96c-.05-.64-.08-.92-.08-.84,0-.93.72-1.43,2.17-1.48l.87-.48-.12,1.96.12,1.12-.24,1.16.07,1.28.17.72-.12.68.12.96-.12.8.12.84v.2l.16.4-.28,1.12v.24l.28.76c-.12.05-.18.25-.18.6l-.12.96.06.36.48-.84.24-.92.56-.92c0-.27.09-.51.28-.72h.44l.32-.68.92-.44c.37-.37.8-.64,1.28-.8l.24-.2.64-.32.52-.12c.56-.48,1.77-.8,3.64-.96l3.12.24.64.36.32.04.68.72.04-.24c.35.16.6.41.76.76.13-.03.19-.04.16-.04.11,0,.21.04.32.12l.84,1.72-.04.2c.13.27.2.51.2.72,0,.37-.15.75-.44,1.12v.24l-.56,1.48-.84,1.16-.24.04-.48.64c-.29,0-.52-.08-.68-.24v.64l-.32.2-.24.44-.72.2c-.11.03-.23.15-.36.36-1.84.72-2.87,1.08-3.08,1.08-.08,0-.23-.02-.46-.06-.23-.04-.42-.06-.58-.06-.11,0-.19.01-.24.04.03.08.17.37.44.87l.52.32.72,1.27,1.09.64.08.16.36.2.52.59.94.78,1.28.52.72.2.52-.04.28-.12c.53-.08,1.04-.29,1.52-.64l.68-1.24.4-.48.24-.72c.4-.13.72-.2.96-.2.61,0,1.01.35,1.2,1.04Z"/>
      <path class="cls-1" d="M105.24,18.76c0,.21-.17.49-.52.84l-.44.68-.16.8-.36.12-.08.24c-.43.13-.73.47-.92,1-.29.37-.61.64-.96.8-.13.13-.25.23-.36.28l-.2.36-.36.08-1.04.56-1.36.16-.36-.08-.6.12-.24-.28c-.37-.19-.64-.37-.8-.56-.32-.08-.56-.33-.72-.76-.45-.53-.68-.96-.68-1.28v-.12l-.28-.48-.08-.08-.24-.72-.36-.76.08-.92-.4-.52-.6-3.44c-.08-.45-.12-.84-.12-1.16l-.08-.2-.2-.28-.37.48-1.46,1.51-.53.83-.26.57-.43.64-.31.32.04.2-.56,1.24-.32.4-.4.08-.36.36c0,.53-.25.88-.76,1.04l-.08.08c-.24.59-.51.95-.8,1.08l-.36.56c-.59.53-.97.87-1.16,1-.08.27-.23.49-.44.68-.05.08-.15.19-.28.32-.08.45-.45.77-1.12.96l-.44.12c-.53-.03-.97-.33-1.32-.92l-.6-1,.24-.96-.12-.52.08-.08.04-.52-.44-.96.32-.48-.16-.52.31-.56.09-.92-.12-.16.24-.56-.09-.28-.03-.64.12-1.2c-.08-.27-.12-.44-.12-.52v-.32l-.12-.32.12-1.28v-2.16l.7-1.2c.8.13,1.36.31,1.67.54.31.23.47.63.47,1.22v.36l.32.48-.16.84.16,1.6-.28.76.12.84v.68l-.36.44.36.72-.31.44-.05.44.24.44-.32.84-.12.36v.36l.2.4.68-.68c0-.4.13-.67.4-.8.03-.27.13-.47.32-.6l-.12-.12.52-.48.12-.16v-.36l.64-.48.16-.4.36-.24,1.56-1.76c-.13.16-.57.65-1.32,1.48v.08l.08-.28.52-.6.36-.68v-.4l.6-.2.08-.52.16-.16.04-.2v-.28l.56-.56v-.2c-.03-.08-.04-.13-.04-.16,0-.48.27-.75.8-.8.24-.48.6-.76,1.08-.84l.24-.36.08-.08c.24-.35.6-.59,1.08-.72l.36-.44h.96l.48.56.44.24.04.12.28.08.08.84.68.4-.28.88.44.96v1.12l.32,1.52.08,1.44.36.84.24,1.04c.16.16.28.39.36.68l.72.2v.8l.4.44v.12l.16.04.16.24.16-.2c-.05,0,.01.01.2.04.29,0,.6-.27.92-.8l.48-.11.12-.2c.08-.22.24-.38.48-.49l.28.04.16-.16.04-.2.12-.16c.27-.19.44-.47.52-.84l.44-.48.08-.36.28-.64.76-.28,1.08.36.36,1.16s.01.05.04.08v.12Z"/>
      <path class="cls-1" d="M120.64,15.88l-.24.72c0,.69-.04,1.24-.12,1.64l-.24.4v.44l-.2.28-.12.56-.44.44-.28,1-.32.12-.16.44-.48.28-.32.68-.48.24-.04.48-.76.28c-.35.48-.77.79-1.28.92l-.16.04c-.37.56-.87.84-1.48.84-.27.16-.57.24-.92.24l-.4.28-.4.12-.52.4h-.52l-.56.12-.68-.28-1.72-.12-.6-.92-.88-.92.2-.64-.6-1.36.2-.52-.12-.96.12-.6v-.8c0-.51.14-.88.41-1.12.03-.27.21-.71.54-1.32h.21l-.12-.28.12-.56v-.6c.21-.24.33-.4.36-.48l-.12-.56v-.16c.19-.37.28-.76.28-1.16l.84-1.16c.13-.11.23-.19.28-.24l-.04-.16h.16l.6-.68.04-.92,1-.36c.37-.24.61-.64.72-1.2h.52c.29-.16.56-.24.8-.24s.47.05.68.16l.44.04,1.04-.4.56.52.44.28h.32l.6.32h.32c.35.32.75.76,1.2,1.32l.08.2.28.16.84,1.08.76,1.88v.4l.36,1.4ZM118,16.83l-.04-.2c-.19-.19-.29-.38-.32-.6l.12-.2-.36-.76.08-.76-.16-.2c-.35-.27-.53-.48-.56-.64-.24-.11-.36-.37-.36-.8l-.24-.04-.48-.8-.36-.28-.84-.32-.32-.08c-.16,0-.27-.05-.32-.16l-.8.88-.52,1.11-.84.44-.12.44-.4.2-.16,1.03-.48.24c-.11.37-.16.72-.16,1.03l-.64.6.2.12c0,.32-.13.6-.4.83-.09.24-.21.5-.36.79v.95l-.44,1.07.08.2v1.11l-.16.56.04.56.36.52.56.2.2.08h1.36l.16-.4h.16c.16,0,.25.04.28.12l.36-.12.32.12.52-.36.08-.12.36-.08c.19-.29.62-.59,1.32-.89l.08-.2.8-.56.44-.65.64-.32.04-.2.21-.44v-.52l.48-.4.16-.28.2-.24c-.11-.32-.16-.55-.16-.68,0-.24.08-.49.24-.76l.16-.16Z"/>
      <path class="cls-1" d="M149,9.02l-.2.77.08.4-.48,1.58-.08.57-.56.61-.2.77-.44.65-.64,1.41-.76,1.28-1.16,1.72-.2.52-.6,1.08-.68,1.4-1.2,2.16-.24.96-.64.92-1.2-.4-.68-.4-.64-1.88-.8-1.36v-.4s-.48-1.11-.48-1.11l-.2-.24-1.68-3.52-.52-.84-.44.68-.64.52-.92,1.28-.64.68-.36,1.04-.88,1.08-.08.36-.6,1.24v.6l-.4.56-.04.56-.4.12-.88.92.16-.08c-.27.16-.63.27-1.08.32l-.28-.32-.6-.24v-.44l-.24-.32-.24-1.08-.32-.72v-.52l-.04-.16-.6-1.72-.16-1.08-.4-.44.08-.52-.4-.96v-.36l-.32-.88-.56-.76.08-.88-.04-.28-.44-1.04-.08-.64-.24-.4c-.16-.27-.28-.53-.36-.8l-.68-1.72.56-.72c.16-.29.49-.48,1-.56l.84-.12.28.4.52.24.36.72.32.28-.12.64.16.4-.12.36.4.64-.08.6.52,1.8-.08.44.21,1.08.58,1.27.25,1.52.41.48v.96s.29.84.29.84l.04.32.56-.36.92-1.48.28-.68.32-.56c0-.27.05-.47.16-.6h.24l.12-.72.44-.08c.05-.21.17-.37.36-.48v-.08c0-.16.08-.32.24-.48l-.08-.28.2-.08-.04-.24c.24-.43.51-.75.8-.96v-.8l.56-.32.16-.12.08-.08c-.13-.27-.2-.56-.2-.88,0-.48.21-.95.64-1.4.24-.11.53-.16.88-.16.21,0,.37.01.48.04l.76.68.4.6.24.96.36.64-.08.44.28.88v.36l.68,1.2v.12l.16.12.8,1.92.04.52.4.44.92,2.08.21-.35.72-1.48.45-.36.29-.85.41-.2v-.6c.16-.13.37-.27.64-.4.16-.08.24-.15.24-.2l-.04-.84.47-.48.2-.12.6-1,.02-.12c.05-.29.23-.62.52-1l-.08-.44.72-.88.36-.88c-.29-.8-.44-1.48-.44-2.04,0-.83.43-1.29,1.28-1.4l1.08.32.16-.32.28.36.4.28-.12.44.48.56Z"/>
      <path class="cls-1" d="M176.24,18.76c0,.21-.17.49-.52.84l-.44.68-.16.8-.36.12-.08.24c-.43.13-.73.47-.92,1-.29.37-.61.64-.96.8-.13.13-.25.23-.36.28l-.2.36-.36.08-1.04.56-1.36.16-.36-.08-.6.12-.24-.28c-.37-.19-.64-.37-.8-.56-.32-.08-.56-.33-.72-.76-.45-.53-.68-.96-.68-1.28v-.12l-.28-.48-.08-.08-.24-.72-.36-.76.08-.92-.4-.52-.6-3.44c-.08-.45-.12-.84-.12-1.16l-.08-.2-.2-.28-.37.48-1.46,1.51-.53.83-.26.57-.43.64-.31.32.04.2-.56,1.24-.32.4-.4.08-.36.36c0,.53-.25.88-.76,1.04l-.08.08c-.24.59-.51.95-.8,1.08l-.36.56c-.59.53-.97.87-1.16,1-.08.27-.23.49-.44.68-.05.08-.15.19-.28.32-.08.45-.45.77-1.12.96l-.44.12c-.53-.03-.97-.33-1.32-.92l-.6-1,.24-.96-.12-.52.08-.08.04-.52-.44-.96.32-.48-.16-.52.31-.56.09-.92-.12-.16.24-.56-.09-.28-.03-.64.12-1.2c-.08-.27-.12-.44-.12-.52v-.32l-.12-.32.12-1.28v-2.16l.7-1.2c.8.13,1.36.31,1.67.54.31.23.47.63.47,1.22v.36l.32.48-.16.84.16,1.6-.28.76.12.84v.68l-.36.44.36.72-.31.44-.05.44.24.44-.32.84-.12.36v.36l.2.4.68-.68c0-.4.13-.67.4-.8.03-.27.13-.47.32-.6l-.12-.12.52-.48.12-.16v-.36l.64-.48.16-.4.36-.24,1.56-1.76c-.13.16-.57.65-1.32,1.48v.08l.08-.28.52-.6.36-.68v-.4l.6-.2.08-.52.16-.16.04-.2v-.28l.56-.56v-.2c-.03-.08-.04-.13-.04-.16,0-.48.27-.75.8-.8.24-.48.6-.76,1.08-.84l.24-.36.08-.08c.24-.35.6-.59,1.08-.72l.36-.44h.96l.48.56.44.24.04.12.28.08.08.84.68.4-.28.88.44.96v1.12l.32,1.52.08,1.44.36.84.24,1.04c.16.16.28.39.36.68l.72.2v.8l.4.44v.12l.16.04.16.24.16-.2c-.05,0,.01.01.2.04.29,0,.6-.27.92-.8l.48-.11.12-.2c.08-.22.24-.38.48-.49l.28.04.16-.16.04-.2.12-.16c.27-.19.44-.47.52-.84l.44-.48.08-.36.28-.64.76-.28,1.08.36.36,1.16s.01.05.04.08v.12Z"/>
    </g>
  </g>
</svg>