<?xml version="1.0" encoding="UTF-8"?>
<svg id="Layer_2" data-name="Layer 2" xmlns="http://www.w3.org/2000/svg" viewBox="0 0 170.08 32.09">
  <defs>
    <style>
      .cls-1 {
        fill: #fff;
      }
    </style>
  </defs>
  <g id="Layer_2-2" data-name="Layer 2">
    <g>
      <path class="cls-1" d="M0,0h13.93v6.33h-5.7v6h5.08v6.02h-5.08v13.28H0V0Z"/>
      <path class="cls-1" d="M33.75,5.7v25.92h-8.03l.14-2.15c-.55.87-1.22,1.53-2.02,1.97-.8.44-1.72.66-2.76.66-1.18,0-2.17-.21-2.95-.62s-1.36-.97-1.73-1.66c-.37-.69-.6-1.41-.69-2.16-.09-.75-.14-2.24-.14-4.46V5.7h7.89v17.64c0,2.02.06,3.22.19,3.59.12.38.46.57,1.01.57.59,0,.93-.2,1.04-.59s.17-1.65.17-3.77V5.7h7.89Z"/>
      <path class="cls-1" d="M44.61,5.7l-.14,2.39c.57-.95,1.27-1.67,2.1-2.14.83-.48,1.78-.71,2.86-.71,1.35,0,2.46.32,3.32.96.86.64,1.41,1.44,1.66,2.41.25.97.37,2.59.37,4.85v18.16h-7.89V13.67c0-1.78-.06-2.87-.18-3.26s-.44-.59-.98-.59-.91.22-1.05.67-.21,1.65-.21,3.6v17.52h-7.89V5.7h8.03Z"/>
      <path class="cls-1" d="M74.94,15.49h-7.44v-2.99c0-1.04-.08-1.75-.25-2.12s-.48-.56-.94-.56-.76.16-.92.49c-.16.33-.23,1.05-.23,2.19v12.23c0,.92.12,1.62.35,2.08.23.46.58.69,1.04.69.53,0,.9-.24,1.08-.72.19-.48.28-1.39.28-2.73v-3.09h7.03c-.01,2.07-.09,3.62-.22,4.66s-.57,2.1-1.31,3.18c-.74,1.09-1.7,1.91-2.88,2.46s-2.65.83-4.39.83c-2.23,0-3.99-.38-5.29-1.14s-2.22-1.83-2.76-3.2c-.54-1.37-.81-3.32-.81-5.85v-7.36c0-2.2.22-3.86.66-4.98.44-1.12,1.39-2.12,2.83-3s3.2-1.32,5.27-1.32,3.82.44,5.27,1.31c1.46.87,2.43,1.97,2.91,3.3s.72,3.21.72,5.64Z"/>
      <path class="cls-1" d="M85.61,2.25v4.08h2.13v4.1h-2.13v13.87c0,1.71.09,2.66.26,2.85s.91.29,2.2.29v4.18h-3.18c-1.8,0-3.08-.07-3.85-.22-.77-.15-1.45-.49-2.03-1.04-.59-.54-.95-1.16-1.09-1.86-.14-.7-.21-2.33-.21-4.91v-13.16h-1.7v-4.1h1.7V2.25h7.91Z"/>
      <path class="cls-1" d="M97.6,0v4.12h-8.12V0h8.12ZM97.6,5.7v25.92h-8.12V5.7h8.12Z"/>
      <path class="cls-1" d="M118.28,14.8v6.35c0,2.33-.12,4.04-.35,5.13-.23,1.09-.74,2.1-1.5,3.05-.77.94-1.75,1.64-2.96,2.09s-2.59.67-4.15.67c-1.75,0-3.22-.19-4.43-.58s-2.15-.96-2.82-1.74c-.67-.77-1.15-1.71-1.44-2.81-.29-1.1-.43-2.75-.43-4.95v-6.64c0-2.41.26-4.29.78-5.64.52-1.35,1.46-2.44,2.81-3.26s3.09-1.23,5.2-1.23c1.77,0,3.29.26,4.56.79s2.25,1.21,2.94,2.06c.69.85,1.16,1.72,1.42,2.62s.38,2.27.38,4.1ZM110.39,12.85c0-1.33-.07-2.16-.21-2.51-.14-.34-.45-.52-.92-.52s-.78.17-.94.52c-.16.35-.23,1.18-.23,2.51v11.7c0,1.22.08,2.02.23,2.39s.46.56.92.56.78-.17.93-.51c.15-.34.22-1.07.22-2.19v-11.95Z"/>
      <path class="cls-1" d="M128.91,5.7l-.14,2.39c.57-.95,1.27-1.67,2.1-2.14.83-.48,1.78-.71,2.86-.71,1.35,0,2.46.32,3.32.96.86.64,1.41,1.44,1.66,2.41.25.97.37,2.59.37,4.85v18.16h-7.89V13.67c0-1.78-.06-2.87-.18-3.26s-.44-.59-.98-.59-.91.22-1.05.67-.21,1.65-.21,3.6v17.52h-7.89V5.7h8.03Z"/>
      <path class="cls-1" d="M148.85,15.74h-7.4v-1.74c0-2,.23-3.55.69-4.64.46-1.09,1.39-2.05,2.78-2.88,1.39-.83,3.2-1.25,5.43-1.25,2.67,0,4.68.47,6.04,1.42,1.35.94,2.17,2.1,2.44,3.48.27,1.37.41,4.2.41,8.49v13.01h-7.68v-2.31c-.48.93-1.1,1.62-1.87,2.08-.76.46-1.67.69-2.72.69-1.38,0-2.65-.39-3.8-1.16s-1.73-2.47-1.73-5.09v-2.13c0-1.94.31-3.26.92-3.96s2.13-1.52,4.55-2.46c2.59-1.02,3.98-1.7,4.16-2.05s.27-1.07.27-2.15c0-1.35-.1-2.24-.3-2.65s-.54-.62-1.01-.62c-.53,0-.87.17-1,.52-.13.35-.2,1.24-.2,2.69v2.71ZM151.35,19.3c-1.26.92-2,1.7-2.2,2.32s-.3,1.52-.3,2.7c0,1.34.09,2.21.26,2.6s.52.59,1.04.59.82-.15.97-.46c.15-.31.22-1.11.22-2.41v-5.33Z"/>
      <path class="cls-1" d="M170.08,0v31.62h-8.12V0h8.12Z"/>
    </g>
  </g>
</svg>