<?xml version="1.0" encoding="UTF-8"?>
<svg id="Layer_2" data-name="Layer 2" xmlns="http://www.w3.org/2000/svg" viewBox="0 0 54.84 26.68">
  <defs>
    <style>
      .cls-1 {
        fill: #fff;
      }
    </style>
  </defs>
  <g id="Layer_2-2" data-name="Layer 2">
    <g>
      <path class="cls-1" d="M34.28,26.05l-3.18.62-4.03-21.92-.03-.03c-.51,1.06-1.64,3.51-3.38,7.35s-3.45,7.7-5.1,11.57h-2.7c-1.55-3.58-3.26-7.45-5.14-11.62-1.88-4.16-2.98-6.59-3.3-7.28h-.04c-.08.34-.61,2.83-1.58,7.47-.98,4.64-1.91,9.45-2.8,14.41l-3-.55c1.3-5.61,2.52-11.17,3.65-16.68S5.4.92,5.51.45l3.11-.45c.13.3,1.05,2.4,2.76,6.29s3.73,8.38,6.04,13.46h.12c1.77-3.98,3.65-8.23,5.62-12.73S26.17.17,26.25,0l2.95.23c.04.29.58,3.14,1.62,8.56s2.19,11.17,3.46,17.26Z"/>
      <path class="cls-1" d="M54.84,15.84h-14.12c.01,1.38.31,2.65.88,3.8s1.45,2.11,2.64,2.86c.75.48,1.61.84,2.58,1.08s2.12.36,3.48.36c.74,0,1.42-.02,2.04-.06s1-.07,1.14-.08l-.35,2.6c-.1.01-.45.04-1.04.07s-1.28.05-2.07.05c-2.08,0-3.9-.27-5.44-.81s-2.81-1.29-3.8-2.24c-.85-.79-1.57-1.81-2.16-3.05s-.89-2.61-.89-4.12.22-2.83.66-4.02,1.11-2.31,1.99-3.34c.77-.89,1.72-1.57,2.86-2.05s2.32-.72,3.54-.72,2.29.18,3.22.55,1.75.92,2.44,1.66c.77.83,1.35,1.86,1.76,3.08s.61,2.68.62,4.38ZM51.82,13.65c-.21-1.61-.76-2.88-1.65-3.8s-2.07-1.38-3.53-1.38-2.68.47-3.65,1.4-1.65,2.19-2.03,3.78h10.86Z"/>
    </g>
  </g>
</svg>