<svg xmlns="http://www.w3.org/2000/svg" xmlns:xlink="http://www.w3.org/1999/xlink" width="82" height="25"><defs><path id="a" d="M.113.214h11.224V18.94H.113z"/></defs><g fill="none" fill-rule="evenodd"><path fill="#062A67" d="M13.838 1.374c.24.231.359.527.359.886v15.49c-.017.36-.146.66-.385.899-.239.24-.546.36-.922.36-.342 0-.637-.12-.884-.36a1.2 1.2 0 01-.372-.9v-6.652H2.537v6.653c0 .36-.128.66-.384.899-.257.24-.556.36-.897.36-.376 0-.68-.12-.91-.36a1.25 1.25 0 01-.346-.9V2.26c0-.342.12-.633.359-.873s.547-.36.922-.36c.342 0 .636.12.885.36.247.24.37.53.37.873v6.473h9.098V2.26c0-.342.128-.633.385-.873.256-.24.554-.36.896-.36.376 0 .683.116.923.347M28.688 9.8c-.384-.729-.906-1.294-1.563-1.696a4.119 4.119 0 00-2.191-.604 4.12 4.12 0 00-2.191.604c-.658.402-1.179.967-1.563 1.695-.385.728-.577 1.554-.577 2.479 0 .908.192 1.72.577 2.44.384.719.905 1.28 1.563 1.682a4.114 4.114 0 002.19.604c.804 0 1.534-.201 2.192-.604a4.303 4.303 0 001.563-1.682c.385-.72.577-1.532.577-2.44 0-.925-.192-1.751-.577-2.479m2.114 6.075a6.527 6.527 0 01-2.447 2.491c-1.034.6-2.174.9-3.421.9-1.248 0-2.388-.3-3.421-.9a6.523 6.523 0 01-2.448-2.491c-.598-1.062-.896-2.26-.896-3.596 0-1.336.298-2.543.896-3.622a6.477 6.477 0 012.448-2.517c1.033-.6 2.173-.899 3.42-.899 1.248 0 2.388.3 3.422.899a6.48 6.48 0 012.447 2.517c.598 1.079.897 2.286.897 3.622 0 1.335-.3 2.534-.897 3.596m15.465-9.966c.23.24.346.53.346.873v6.832c0 1.782-.491 3.164-1.473 4.149-.983.985-2.37 1.476-4.164 1.476-1.778 0-3.153-.491-4.126-1.476-.974-.985-1.46-2.367-1.46-4.149V6.781c0-.342.114-.633.345-.873.23-.24.516-.36.858-.36.36 0 .654.12.885.36.23.24.345.53.345.873v6.832c0 2.244 1.051 3.365 3.153 3.365 1.041 0 1.836-.282 2.383-.847.546-.566.82-1.404.82-2.518V6.781c0-.342.115-.633.346-.873.23-.24.516-.36.858-.36.359 0 .654.12.884.36m12.698-.322c.324.231.487.519.487.861 0 .41-.107.724-.32.937a1.062 1.062 0 01-.782.322c-.154 0-.385-.052-.692-.154-.36-.12-.641-.18-.846-.18-.53 0-1.047.184-1.55.552-.504.368-.914.873-1.23 1.516-.317.641-.475 1.357-.475 2.144v6.19c0 .343-.115.634-.345.874-.231.24-.526.36-.884.36-.36 0-.65-.116-.872-.347-.222-.231-.333-.527-.333-.887V6.781c0-.342.115-.633.346-.873.23-.24.517-.36.859-.36.358 0 .653.12.884.36.23.24.345.53.345.873v1.31c.376-.839.94-1.52 1.692-2.042.751-.522 1.606-.792 2.562-.81.445 0 .829.117 1.154.347m5.893 13.062c-.24.24-.53.36-.871.36a1.14 1.14 0 01-.858-.36 1.213 1.213 0 01-.346-.874V1.233c0-.343.119-.633.358-.874.24-.24.53-.359.871-.359.342 0 .629.12.86.36.23.24.345.53.345.873v16.541c0 .343-.12.634-.359.874"/><g transform="translate(69.913 5.205)"><mask id="b" fill="#fff"><use xlink:href="#a"/></mask><path fill="#062A67" d="M10.991.574c.23.24.346.531.346.874v11.096c0 2.14-.589 3.74-1.768 4.803-1.179 1.062-2.733 1.593-4.664 1.593-.632 0-1.256-.06-1.87-.18-.616-.12-1.12-.283-1.513-.489-.632-.29-.947-.684-.947-1.181 0-.086.016-.197.05-.334.103-.291.248-.513.436-.668a.982.982 0 01.641-.23.96.96 0 01.384.076c.53.24 1 .428 1.41.565.41.137.888.206 1.435.206 2.647 0 3.972-1.362 3.972-4.084v-.514a4.674 4.674 0 01-1.781 1.439c-.727.342-1.56.513-2.499.513-1.418 0-2.524-.453-3.318-1.361C.51 11.79.113 10.6.113 9.128v-7.68c0-.36.111-.656.333-.887.222-.23.513-.347.871-.347.36 0 .654.12.885.36.23.24.346.531.346.874v7.037c0 1.13.247 1.965.743 2.505.495.54 1.247.809 2.255.809.974 0 1.776-.308 2.408-.925.632-.616.949-1.413.949-2.389V1.448c0-.36.11-.656.333-.887.222-.23.513-.347.87-.347.36 0 .655.12.885.36" mask="url(#b)"/></g><path fill="#F6A600" d="M25.036 13.475a.79.79 0 01-.787-.789v-2.21a.79.79 0 01.787-.789.79.79 0 01.788.79v2.21a.79.79 0 01-.788.788"/><path fill="#F6A600" d="M26.523 14.183a.788.788 0 01-1.113 0l-.931-.933a.789.789 0 011.114-1.116l.93.933a.793.793 0 010 1.116"/></g></svg>