<svg xmlns="http://www.w3.org/2000/svg" xmlns:xlink="http://www.w3.org/1999/xlink" width="140" height="41"><defs><rect id="a" width="139.442" height="40.918" rx="4.788"/></defs><g fill="none" fill-rule="evenodd"><use fill="#000" xlink:href="#a"/><rect width="138.245" height="39.721" x=".599" y=".599" stroke="#A6A6A6" stroke-width="1.197" rx="4.788"/><rect width="138.843" height="40.319" x=".299" y=".299" stroke="#8F8F8F" stroke-width=".599" rx="4.788"/><path fill="#FFF" d="M52.263 31.424h2.289l-5.01-14.047h-2.317l-5.01 14.047h2.211l1.28-3.728h5.288l1.27 3.728zm-3.99-11.497h.163l2.01 5.938h-4.193l2.02-5.938zm12.347.72c-1.424 0-2.654.721-3.289 1.928h-.154v-1.752h-1.99V34.86h2.067v-5.042h.164c.548 1.12 1.73 1.781 3.22 1.781 2.645 0 4.328-2.112 4.328-5.48 0-3.369-1.683-5.471-4.346-5.471zm-.587 9.073c-1.73 0-2.817-1.382-2.817-3.592 0-2.22 1.086-3.602 2.827-3.602 1.75 0 2.798 1.354 2.798 3.593 0 2.248-1.048 3.601-2.808 3.601zm11.308-9.072c-1.423 0-2.653.72-3.288 1.927h-.154v-1.752h-1.99V34.86h2.067v-5.042h.163c.549 1.12 1.731 1.781 3.222 1.781 2.644 0 4.327-2.112 4.327-5.48 0-3.369-1.683-5.471-4.347-5.471zm-.586 9.072c-1.73 0-2.817-1.382-2.817-3.592 0-2.22 1.086-3.602 2.827-3.602 1.75 0 2.798 1.354 2.798 3.593 0 2.248-1.048 3.601-2.808 3.601zm9.309-2.073c.154 2.511 2.221 4.118 5.298 4.118 3.288 0 5.346-1.684 5.346-4.371 0-2.113-1.173-3.28-4.02-3.952l-1.528-.38c-1.808-.428-2.538-1.003-2.538-2.005 0-1.266 1.134-2.093 2.836-2.093 1.616 0 2.73.808 2.933 2.102h2.096c-.125-2.365-2.183-4.03-5-4.03-3.029 0-5.048 1.665-5.048 4.167 0 2.063 1.144 3.29 3.654 3.884l1.788.438c1.837.438 2.644 1.08 2.644 2.151 0 1.246-1.269 2.151-3 2.151-1.855 0-3.144-.846-3.327-2.18h-2.134zm12.424-9.394v2.619h-1.722v1.762h1.722v5.986c0 2.045.913 2.862 3.211 2.862.404 0 .78-.048 1.106-.107v-1.742c-.288.029-.452.048-.77.048-1.028 0-1.48-.486-1.48-1.596v-5.451h2.346v-1.762h-2.346v-2.62h-2.067zm9.539 11.516c-1.798 0-2.808-1.334-2.808-3.65 0-2.298 1.01-3.641 2.808-3.641 1.788 0 2.808 1.343 2.808 3.64 0 2.308-1.02 3.651-2.808 3.651zm0 1.86c3.058 0 4.933-2.074 4.933-5.51 0-3.417-1.885-5.5-4.933-5.5-3.058 0-4.943 2.083-4.943 5.5 0 3.436 1.875 5.51 4.943 5.51zm5.875-.205h2.068v-6.26c0-1.489 1.106-2.492 2.663-2.492.346 0 .981.069 1.145.127v-2.064c-.222-.058-.616-.087-.914-.087-1.365 0-2.52.759-2.817 1.8h-.154v-1.625h-1.99v10.601zm10.53-9.024c1.529 0 2.529 1.08 2.577 2.745h-5.289c.116-1.655 1.183-2.745 2.712-2.745zm2.567 6.162c-.384.827-1.24 1.285-2.49 1.285-1.654 0-2.721-1.178-2.789-3.037v-.117h7.395v-.73c0-3.33-1.76-5.345-4.673-5.345-2.952 0-4.827 2.152-4.827 5.54 0 3.387 1.836 5.47 4.836 5.47 2.394 0 4.068-1.168 4.539-3.066H121zM44.152 6.412v6.69h2.386c1.969 0 3.109-1.23 3.109-3.366 0-2.105-1.15-3.324-3.11-3.324h-2.385zm1.026.946h1.245c1.37 0 2.18.88 2.18 2.392 0 1.534-.797 2.406-2.18 2.406h-1.245V7.358zm8.078 4.955c-.856 0-1.337-.635-1.337-1.738 0-1.094.48-1.734 1.337-1.734.852 0 1.337.64 1.337 1.734 0 1.098-.485 1.738-1.337 1.738zm0 .886c1.456 0 2.349-.988 2.349-2.624 0-1.627-.898-2.62-2.35-2.62-1.455 0-2.353.993-2.353 2.62 0 1.636.893 2.624 2.354 2.624zM63.32 8.053h-.984l-.889 3.852h-.078l-1.025-3.852h-.943l-1.026 3.852h-.073l-.893-3.852h-.998l1.373 5.048h1.012l1.026-3.717h.078l1.03 3.717h1.021l1.369-5.048zm1.251 5.048h.984v-2.953c0-.788.486-1.279 1.278-1.279.732 0 1.09.403 1.09 1.214v3.018h.984V9.833c0-1.2-.627-1.877-1.74-1.877-.75 0-1.332.338-1.575.9h-.073v-.803h-.948v5.048zm6 0h.984V6.083h-.985v7.018zm4.799-.788c-.857 0-1.337-.635-1.337-1.738 0-1.094.48-1.734 1.337-1.734.851 0 1.337.64 1.337 1.734 0 1.098-.486 1.738-1.337 1.738zm0 .886c1.456 0 2.349-.988 2.349-2.624 0-1.627-.898-2.62-2.35-2.62-1.455 0-2.353.993-2.353 2.62 0 1.636.893 2.624 2.354 2.624zm5.394-.853c-.535 0-.925-.265-.925-.719 0-.445.312-.681.999-.728l1.218-.078v.421c0 .626-.55 1.104-1.292 1.104zm-.251.839c.654 0 1.2-.288 1.497-.793h.078v.71h.947v-3.45c0-1.066-.705-1.696-1.955-1.696-1.13 0-1.937.556-2.037 1.423h.952c.11-.357.49-.561 1.04-.561.673 0 1.02.301 1.02.834v.436l-1.35.079c-1.186.074-1.855.598-1.855 1.506 0 .923.701 1.512 1.663 1.512zm5.98 0c.687 0 1.269-.33 1.566-.881h.078v.797h.943V6.083h-.984v2.772h-.073c-.27-.556-.847-.885-1.53-.885-1.259 0-2.07 1.01-2.07 2.605 0 1.6.802 2.61 2.07 2.61zm.28-4.32c.824 0 1.341.662 1.341 1.714 0 1.057-.513 1.711-1.341 1.711-.834 0-1.333-.644-1.333-1.715 0-1.062.504-1.71 1.333-1.71zm8.921 3.448c-.856 0-1.337-.635-1.337-1.738 0-1.094.48-1.734 1.337-1.734.852 0 1.337.64 1.337 1.734 0 1.098-.485 1.738-1.337 1.738zm0 .886c1.456 0 2.349-.988 2.349-2.624 0-1.627-.898-2.62-2.349-2.62-1.456 0-2.353.993-2.353 2.62 0 1.636.892 2.624 2.353 2.624zm3.765-.098h.984v-2.953c0-.788.486-1.279 1.278-1.279.732 0 1.09.403 1.09 1.214v3.018h.984V9.833c0-1.2-.627-1.877-1.74-1.877-.751 0-1.333.338-1.575.9h-.073v-.803h-.948v5.048zm9.1-6.272v1.247h-.82v.84h.82v2.85c0 .974.435 1.363 1.529 1.363.192 0 .37-.023.527-.05v-.83c-.138.013-.216.022-.367.022-.49 0-.705-.231-.705-.76V8.915h1.117v-.839h-1.117V6.83h-.984zm3.503 6.272h.985v-2.948c0-.765.499-1.28 1.305-1.28.741 0 1.112.409 1.112 1.215v3.013h.985V9.842c0-1.2-.641-1.882-1.763-1.882-.75 0-1.328.339-1.57.904h-.078V6.083h-.976v7.018zm8.055-4.297c.728 0 1.205.515 1.227 1.307h-2.518c.055-.788.563-1.307 1.291-1.307zm1.223 2.934c-.183.394-.59.612-1.186.612-.788 0-1.296-.56-1.328-1.446v-.056h3.521v-.347c0-1.586-.838-2.545-2.225-2.545-1.406 0-2.299 1.024-2.299 2.637 0 1.614.875 2.606 2.304 2.606 1.14 0 1.936-.557 2.16-1.46h-.947zm-91.02 8.916c-.03-3.396 2.747-5.047 2.874-5.124-1.572-2.321-4.01-2.638-4.866-2.664-2.047-.218-4.032 1.24-5.075 1.24-1.063 0-2.669-1.219-4.4-1.183-2.226.035-4.31 1.34-5.452 3.367-2.358 4.133-.6 10.207 1.66 13.547 1.13 1.637 2.45 3.463 4.179 3.399 1.69-.07 2.322-1.092 4.363-1.092 2.022 0 2.615 1.092 4.378 1.05 1.814-.028 2.957-1.643 4.048-3.295 1.306-1.873 1.83-3.722 1.85-3.816-.04-.014-3.523-1.36-3.558-5.43m-3.33-9.984c.91-1.152 1.532-2.718 1.359-4.308-1.316.059-2.963.922-3.91 2.048-.84.992-1.589 2.619-1.395 4.149 1.479.111 2.997-.756 3.946-1.89"/></g></svg>