<?xml version="1.0" encoding="utf-8"?>
<!-- Generator: Adobe Illustrator 24.0.3, SVG Export Plug-In . SVG Version: 6.00 Build 0)  -->
<svg version="1.1" id="Vrstva_1" xmlns="http://www.w3.org/2000/svg" xmlns:xlink="http://www.w3.org/1999/xlink" x="0px" y="0px"
	 viewBox="0 0 165 49" style="enable-background:new 0 0 165 49;" xml:space="preserve">
<style type="text/css">
	.st0{fill-rule:evenodd;clip-rule:evenodd;stroke:#A6A6A6;stroke-width:1.197;}
	.st1{fill:none;stroke:#8F8F8F;stroke-width:0.5985;}
	.st2{fill-rule:evenodd;clip-rule:evenodd;fill:#FFFFFF;}
	.st3{clip-path:url(#SVGID_2_);enable-background:new    ;}
	.st4{clip-path:url(#SVGID_4_);}
	.st5{opacity:0;clip-path:url(#SVGID_6_);}
	.st6{opacity:0;}
	.st7{clip-path:url(#SVGID_8_);}
	.st8{clip-path:url(#SVGID_10_);}
	.st9{clip-path:url(#SVGID_12_);}
	.st10{clip-path:url(#SVGID_14_);}
	.st11{clip-path:url(#SVGID_16_);}
	.st12{opacity:0;clip-path:url(#SVGID_18_);}
	.st13{clip-path:url(#SVGID_20_);}
	.st14{clip-path:url(#SVGID_22_);}
	.st15{clip-path:url(#SVGID_24_);}
	.st16{clip-path:url(#SVGID_26_);}
	.st17{clip-path:url(#SVGID_28_);}
	.st18{opacity:0;clip-path:url(#SVGID_30_);}
	.st19{clip-path:url(#SVGID_32_);}
	.st20{clip-path:url(#SVGID_34_);}
	.st21{clip-path:url(#SVGID_36_);}
	.st22{clip-path:url(#SVGID_38_);}
	.st23{clip-path:url(#SVGID_40_);}
	.st24{opacity:0;clip-path:url(#SVGID_42_);}
	.st25{clip-path:url(#SVGID_44_);}
	.st26{clip-path:url(#SVGID_46_);}
	.st27{clip-path:url(#SVGID_48_);}
	.st28{fill:url(#SVGID_49_);}
	.st29{fill:url(#SVGID_50_);}
	.st30{fill:url(#SVGID_51_);}
	.st31{fill:url(#SVGID_52_);}
	.st32{opacity:0.2;enable-background:new    ;}
	.st33{opacity:0.12;enable-background:new    ;}
	.st34{opacity:0.25;fill:#FFFFFF;enable-background:new    ;}
</style>
<title>Hourly-playstore-download</title>
<desc>Created with Sketch.</desc>
<g id="Symbols">
	<g id="footer-dark" transform="translate(-1045.000000, -126.000000)">
		<g id="Hourly-playstore-download" transform="translate(1045.000000, 126.000000)">
			<g id="background">
				<path class="st0" d="M6.6,0.6h151.8c3.3,0,6,2.7,6,6v35.2c0,3.3-2.7,6-6,6H6.6c-3.3,0-6-2.7-6-6V6.6C0.6,3.3,3.3,0.6,6.6,0.6z"
					/>
				<path class="st1" d="M6.3,0.3h152.4c3.3,0,6,2.7,6,6V42c0,3.3-2.7,6-6,6H6.3c-3.3,0-6-2.7-6-6V6.3C0.3,3,3,0.3,6.3,0.3z"/>
			</g>
			<g id="googleplay" transform="translate(50.043712, 21.127589)">
				<g id="big-P" transform="translate(69.240081, 0.550198)">
					<path id="Combined-Shape" class="st2" d="M10.5,4.7c0,4.1-3.6,4.7-3.6,4.7H0.6V0h6.3C6.8,0,10.5,0.6,10.5,4.7z M6.1,2.3H1.8
						v5.1h4.3C6.3,7.4,8,7.2,8,4.8C8,2.3,6,2.3,6.1,2.3L6.1,2.3z"/>
					<rect id="Rectangle-6" x="0" y="0" class="st2" width="2.2" height="15.4"/>
				</g>
				<polygon id="y" class="st2" points="81,0.6 83.2,0.6 83.2,16 81,16 				"/>
				<path id="a" class="st2" d="M89.1,5.7c3.8,0,4.5,2.5,4.5,3.5v0.1V16h-2.2v-1.1c-0.6,0.5-1.6,1-3.1,1.1c-3.4,0.2-3.5-2.7-3.5-3.1
					l0,0c0-0.2-0.2-2.8,2.6-3.2c2-0.3,3.4,0.2,4,0.5V9.7C91.2,9.1,90.8,8,89.3,8c-2,0-2.5,1.1-2.5,1.1L85,7.8
					C85,7.8,86,5.7,89.1,5.7z M86.9,12.8c-0.1,2.4,4.1,1.2,4.5-0.5c0-0.5-0.1-0.8-0.1-0.8S87,10.4,86.9,12.8z"/>
				<path id="y_1_" class="st2" d="M96.1,6.1l2.8,6.7l2.8-6.7h2.2l-6,14.1h-2.2l2.1-4.9l-4-9.3L96.1,6.1L96.1,6.1z"/>
				<path id="e" class="st2" d="M59.6,5.7c3.7,0,4.7,3.9,4.7,3.9l0,0l-7,2.9c0,0,0.5,1.6,2.6,1.6c1.7,0,2.6-1.5,2.6-1.5l0,0l1.8,1.2
					c0,0-1.4,2.3-4.4,2.3c-3.6,0-5.2-3.1-5.2-5.2C54.6,9,55.9,5.7,59.6,5.7z M59.4,7.8c-2.9,0.5-2.5,3-2.5,3l4.7-1.9
					C61.6,8.8,60.7,7.5,59.4,7.8z"/>
				<polygon id="i" class="st2" points="51.3,0.6 53.6,0.6 53.6,15.9 51.3,15.9 				"/>
				<path id="g" class="st2" d="M44.6,5.7c2-0.1,2.9,1.3,2.9,1.3l0,0V6h2.2v9.7c0,2.5-1.5,5.1-5,5.1s-4.6-3.1-4.6-3.1l0,0l2-0.8
					c0,0,0.6,1.9,2.7,1.9c2.4,0,2.7-2.2,2.7-2.9l0,0v-1.1c0,0-0.8,1.3-2.9,1.3c-2.3,0-5-1.9-5-5.2S42.2,5.8,44.6,5.7z M44.8,7.8
					c-1.6,0-2.9,1.4-2.9,3.2s1.3,3.2,2.9,3.2s2.9-1.4,2.9-3.2S46.3,7.8,44.8,7.8z"/>
				<path id="o" class="st2" d="M33.4,5.7c2.9,0,5.3,2.3,5.3,5.2s-2.4,5.2-5.3,5.2s-5.3-2.3-5.3-5.2S30.4,5.7,33.4,5.7z M33.3,7.8
					c-1.6,0-3,1.4-3,3.2s1.3,3.2,3,3.2c1.6,0,3-1.4,3-3.2S35,7.8,33.3,7.8z"/>
				<path id="o_1_" class="st2" d="M21.9,5.7c2.9,0,5.3,2.3,5.3,5.2s-2.4,5.2-5.3,5.2s-5.3-2.3-5.3-5.2S19,5.7,21.9,5.7z M21.9,7.8
					c-1.6,0-3,1.4-3,3.2s1.3,3.2,3,3.2c1.6,0,3-1.4,3-3.2S23.5,7.8,21.9,7.8z"/>
				<g id="big-g">
					<polygon id="Rectangle-1" class="st2" points="8.3,7.4 15.3,7.4 15.2,9.6 8.3,9.6 					"/>
					<path id="Oval-1" class="st2" d="M8.2,0c2.4,0,4.3,0.8,5.7,2.2l-1.6,1.6c-1-1-2.4-1.6-4-1.6c-3.3,0.1-6,2.7-6,5.9
						s2.6,5.8,5.9,5.8s5.6-1.9,5.6-5.8c0-0.2,0-0.5,0-0.7h2v0.1c0.8,5.5-2.9,8.7-7.4,8.7H8.2C3.7,16.2,0,12.6,0,8.1S3.7,0,8.2,0z"/>
				</g>
			</g>
			<path id="Download-on-the" class="st2" d="M50,8.4v7.9h2.8c2.3,0,3.7-1.5,3.7-4s-1.4-3.9-3.7-3.9H50z M51.2,9.5h1.5
				c1.6,0,2.6,1,2.6,2.8s-0.9,2.8-2.6,2.8h-1.5V9.5z M60.8,15.4c-1,0-1.6-0.8-1.6-2.1s0.6-2.1,1.6-2.1s1.6,0.8,1.6,2.1
				C62.4,14.6,61.8,15.4,60.8,15.4L60.8,15.4z M60.8,16.4c1.7,0,2.8-1.2,2.8-3.1s-1.1-3.1-2.8-3.1S58,11.4,58,13.3
				C58,15.3,59,16.4,60.8,16.4L60.8,16.4z M72.7,10.3h-1.2l-1.1,4.6h-0.1l-1.2-4.6H68l-1.2,4.6h-0.1l-1.1-4.6h-1.2l1.6,6h1.2
				l1.2-4.4h0.1l1.2,4.4h1.2L72.7,10.3z M74.2,16.3h1.2v-3.5c0-0.9,0.6-1.5,1.5-1.5s1.3,0.5,1.3,1.4v3.6h1.2v-3.9
				c0-1.4-0.7-2.2-2.1-2.2c-0.9,0-1.6,0.4-1.9,1.1h-0.1v-0.9h-1.1V16.3z M81.3,16.3h1.2V8h-1.2V16.3z M86.9,15.4
				c-1,0-1.6-0.8-1.6-2.1s0.6-2.1,1.6-2.1s1.6,0.8,1.6,2.1S87.9,15.4,86.9,15.4L86.9,15.4z M86.9,16.4c1.7,0,2.8-1.2,2.8-3.1
				s-1.1-3.1-2.8-3.1c-1.7,0-2.8,1.2-2.8,3.1C84.2,15.3,85.2,16.4,86.9,16.4L86.9,16.4z M93.3,15.4c-0.6,0-1.1-0.3-1.1-0.9
				c0-0.5,0.4-0.8,1.2-0.9l1.4-0.1V14C94.9,14.8,94.2,15.4,93.3,15.4L93.3,15.4z M93,16.4c0.8,0,1.4-0.3,1.8-0.9h0.1v0.8H96v-4.1
				c0-1.3-0.8-2-2.3-2c-1.3,0-2.3,0.7-2.4,1.7h1.1c0.1-0.4,0.6-0.7,1.2-0.7c0.8,0,1.2,0.4,1.2,1v0.5l-1.6,0.1
				c-1.4,0.1-2.2,0.7-2.2,1.8C91.1,15.7,91.9,16.4,93,16.4L93,16.4z M100.1,16.4c0.8,0,1.5-0.4,1.9-1h0.1v0.9h1.1V8H102v3.3h-0.1
				c-0.3-0.7-1-1-1.8-1c-1.5,0-2.4,1.2-2.4,3.1C97.7,15.2,98.6,16.4,100.1,16.4L100.1,16.4z M100.4,11.3c1,0,1.6,0.8,1.6,2
				c0,1.3-0.6,2-1.6,2s-1.6-0.8-1.6-2C98.9,12.1,99.5,11.3,100.4,11.3L100.4,11.3z M111,15.4c-1,0-1.6-0.8-1.6-2.1s0.6-2.1,1.6-2.1
				s1.6,0.8,1.6,2.1S112,15.4,111,15.4L111,15.4z M111,16.4c1.7,0,2.8-1.2,2.8-3.1s-1.1-3.1-2.8-3.1c-1.7,0-2.8,1.2-2.8,3.1
				C108.2,15.3,109.3,16.4,111,16.4L111,16.4z M115.4,16.3h1.2v-3.5c0-0.9,0.6-1.5,1.5-1.5s1.3,0.5,1.3,1.4v3.6h1.2v-3.9
				c0-1.4-0.7-2.2-2.1-2.2c-0.9,0-1.6,0.4-1.9,1.1h-0.1v-0.9h-1.1V16.3z M126.2,8.9v1.5h-1v1h1v3.4c0,1.2,0.5,1.6,1.8,1.6
				c0.2,0,0.4,0,0.6-0.1v-1c-0.2,0-0.3,0-0.4,0c-0.6,0-0.8-0.3-0.8-0.9v-3.1h1.3v-1h-1.3V8.9H126.2z M130.4,16.3h1.2v-3.5
				c0-0.9,0.6-1.5,1.5-1.5s1.3,0.5,1.3,1.4v3.6h1.2v-3.9c0-1.4-0.8-2.2-2.1-2.2c-0.9,0-1.6,0.4-1.9,1.1h-0.1V8h-1.2v8.3H130.4z
				 M139.9,11.2c0.9,0,1.4,0.6,1.5,1.5h-3C138.4,11.8,139,11.2,139.9,11.2L139.9,11.2z M141.3,14.7c-0.2,0.5-0.7,0.7-1.4,0.7
				c-0.9,0-1.5-0.7-1.6-1.7v-0.1h4.2v-0.4c0-1.9-1-3-2.6-3c-1.7,0-2.7,1.2-2.7,3.1s1,3.1,2.7,3.1c1.3,0,2.3-0.7,2.6-1.7H141.3z"/>
		</g>
	</g>
</g>
<g>
	<g>
		<defs>
			<path id="SVGID_1_" d="M38.6,22.3c1.8,1,1.8,2.7,0,3.8L15.5,39.4c-1.8,1-3.3,0.2-3.3-1.9V11c0-2.1,1.5-2.9,3.3-1.9L38.6,22.3z"/>
		</defs>
		<clipPath id="SVGID_2_">
			<use xlink:href="#SVGID_1_"  style="overflow:visible;"/>
		</clipPath>
		<g class="st3">
			<g>
				<g>
					<defs>
						<rect id="SVGID_3_" x="12" y="8.1" width="28" height="32"/>
					</defs>
					<clipPath id="SVGID_4_">
						<use xlink:href="#SVGID_3_"  style="overflow:visible;"/>
					</clipPath>
					<g class="st4">
						<g>
							<defs>
								<rect id="SVGID_5_" x="12" y="8.1" width="28" height="32"/>
							</defs>
							<clipPath id="SVGID_6_">
								<use xlink:href="#SVGID_5_"  style="overflow:visible;"/>
							</clipPath>
							<g class="st5">
								<g class="st6">
									<g>
										<g>
											<defs>
												<rect id="SVGID_7_" x="12" y="8.1" width="28" height="32"/>
											</defs>
											<clipPath id="SVGID_8_">
												<use xlink:href="#SVGID_7_"  style="overflow:visible;"/>
											</clipPath>
											<g class="st7">
											</g>
										</g>
									</g>
								</g>
							</g>
						</g>
						<g>
							<defs>
								<rect id="SVGID_9_" x="12" y="8.1" width="28" height="32"/>
							</defs>
							<clipPath id="SVGID_10_">
								<use xlink:href="#SVGID_9_"  style="overflow:visible;"/>
							</clipPath>
							<g class="st8">
								<g>
									<g>
										<defs>
											<rect id="SVGID_11_" x="12" y="8.1" width="28" height="32"/>
										</defs>
										<clipPath id="SVGID_12_">
											<use xlink:href="#SVGID_11_"  style="overflow:visible;"/>
										</clipPath>
										<g class="st9">
										</g>
									</g>
								</g>
							</g>
						</g>
					</g>
				</g>
				<g>
					<defs>
						<rect id="SVGID_13_" x="12" y="8.1" width="28" height="32"/>
					</defs>
					<clipPath id="SVGID_14_">
						<use xlink:href="#SVGID_13_"  style="overflow:visible;"/>
					</clipPath>
					<g class="st10">
						<g>
							<defs>
								<polygon id="SVGID_15_" points="12.1,8.7 27.6,24 11.9,39.9 								"/>
							</defs>
							<clipPath id="SVGID_16_">
								<use xlink:href="#SVGID_15_"  style="overflow:visible;"/>
							</clipPath>
							<g class="st11">
								<g>
									<defs>
										<rect id="SVGID_17_" x="12" y="8.1" width="28" height="32"/>
									</defs>
									<clipPath id="SVGID_18_">
										<use xlink:href="#SVGID_17_"  style="overflow:visible;"/>
									</clipPath>
									<g class="st12">
										<g class="st6">
											<g>
												<g>
													<defs>
														<rect id="SVGID_19_" x="12" y="8.1" width="28" height="32"/>
													</defs>
													<clipPath id="SVGID_20_">
														<use xlink:href="#SVGID_19_"  style="overflow:visible;"/>
													</clipPath>
													<g class="st13">
													</g>
												</g>
											</g>
										</g>
									</g>
								</g>
								<g>
									<defs>
										<rect id="SVGID_21_" x="12" y="8.1" width="28" height="32"/>
									</defs>
									<clipPath id="SVGID_22_">
										<use xlink:href="#SVGID_21_"  style="overflow:visible;"/>
									</clipPath>
									<g class="st14">
										<g>
											<g>
												<defs>
													<rect id="SVGID_23_" x="12" y="8.1" width="28" height="32"/>
												</defs>
												<clipPath id="SVGID_24_">
													<use xlink:href="#SVGID_23_"  style="overflow:visible;"/>
												</clipPath>
												<g class="st15">
												</g>
											</g>
										</g>
									</g>
								</g>
							</g>
						</g>
					</g>
				</g>
				<g>
					<defs>
						<rect id="SVGID_25_" x="12" y="8.1" width="28" height="32"/>
					</defs>
					<clipPath id="SVGID_26_">
						<use xlink:href="#SVGID_25_"  style="overflow:visible;"/>
					</clipPath>
					<g class="st16">
						<g>
							<defs>
								<polygon id="SVGID_27_" points="8.9,5.5 27.6,24 33.2,18.7 								"/>
							</defs>
							<clipPath id="SVGID_28_">
								<use xlink:href="#SVGID_27_"  style="overflow:visible;"/>
							</clipPath>
							<g class="st17">
								<g>
									<defs>
										<rect id="SVGID_29_" x="12" y="8.1" width="28" height="32"/>
									</defs>
									<clipPath id="SVGID_30_">
										<use xlink:href="#SVGID_29_"  style="overflow:visible;"/>
									</clipPath>
									<g class="st18">
										<g class="st6">
											<g>
												<g>
													<defs>
														<rect id="SVGID_31_" x="12" y="8.1" width="28" height="32"/>
													</defs>
													<clipPath id="SVGID_32_">
														<use xlink:href="#SVGID_31_"  style="overflow:visible;"/>
													</clipPath>
													<g class="st19">
													</g>
												</g>
											</g>
										</g>
									</g>
								</g>
								<g>
									<defs>
										<rect id="SVGID_33_" x="12" y="8.1" width="28" height="32"/>
									</defs>
									<clipPath id="SVGID_34_">
										<use xlink:href="#SVGID_33_"  style="overflow:visible;"/>
									</clipPath>
									<g class="st20">
										<g>
											<g>
												<defs>
													<rect id="SVGID_35_" x="12" y="8.1" width="28" height="32"/>
												</defs>
												<clipPath id="SVGID_36_">
													<use xlink:href="#SVGID_35_"  style="overflow:visible;"/>
												</clipPath>
												<g class="st21">
												</g>
											</g>
										</g>
									</g>
								</g>
							</g>
						</g>
					</g>
				</g>
				<g>
					<defs>
						<rect id="SVGID_37_" x="12" y="8.1" width="28" height="32"/>
					</defs>
					<clipPath id="SVGID_38_">
						<use xlink:href="#SVGID_37_"  style="overflow:visible;"/>
					</clipPath>
					<g class="st22">
						<g>
							<defs>
								<polygon id="SVGID_39_" points="27.6,24 36.1,32.5 10.7,41 								"/>
							</defs>
							<clipPath id="SVGID_40_">
								<use xlink:href="#SVGID_39_"  style="overflow:visible;"/>
							</clipPath>
							<g class="st23">
								<g>
									<defs>
										<rect id="SVGID_41_" x="12" y="8.1" width="28" height="32"/>
									</defs>
									<clipPath id="SVGID_42_">
										<use xlink:href="#SVGID_41_"  style="overflow:visible;"/>
									</clipPath>
									<g class="st24">
										<g class="st6">
											<g>
												<g>
													<defs>
														<rect id="SVGID_43_" x="12" y="8.1" width="28" height="32"/>
													</defs>
													<clipPath id="SVGID_44_">
														<use xlink:href="#SVGID_43_"  style="overflow:visible;"/>
													</clipPath>
													<g class="st25">
													</g>
												</g>
											</g>
										</g>
									</g>
								</g>
								<g>
									<defs>
										<rect id="SVGID_45_" x="12" y="8.1" width="28" height="32"/>
									</defs>
									<clipPath id="SVGID_46_">
										<use xlink:href="#SVGID_45_"  style="overflow:visible;"/>
									</clipPath>
									<g class="st26">
										<g>
											<g>
												<defs>
													<rect id="SVGID_47_" x="12" y="8.1" width="28" height="32"/>
												</defs>
												<clipPath id="SVGID_48_">
													<use xlink:href="#SVGID_47_"  style="overflow:visible;"/>
												</clipPath>
												<g class="st27">
												</g>
											</g>
										</g>
									</g>
								</g>
							</g>
						</g>
					</g>
				</g>
			</g>
		</g>
	</g>
</g>
<g>
	
		<linearGradient id="SVGID_49_" gradientUnits="userSpaceOnUse" x1="26.8496" y1="40.9596" x2="6.9626" y2="21.0725" gradientTransform="matrix(1 0 0 -1 0 51.7795)">
		<stop  offset="0" style="stop-color:#00A0FF"/>
		<stop  offset="6.574450e-03" style="stop-color:#00A1FF"/>
		<stop  offset="0.2601" style="stop-color:#00BEFF"/>
		<stop  offset="0.5122" style="stop-color:#00D2FF"/>
		<stop  offset="0.7604" style="stop-color:#00DFFF"/>
		<stop  offset="1" style="stop-color:#00E3FF"/>
	</linearGradient>
	<path class="st28" d="M13.4,9.4c-0.3,0.4-0.5,0.9-0.5,1.7v26.2c0,0.7,0.2,1.3,0.5,1.7l0.1,0.1l14.7-14.7v-0.2V24L13.4,9.4L13.4,9.4
		z"/>
	
		<linearGradient id="SVGID_50_" gradientUnits="userSpaceOnUse" x1="41.1106" y1="27.5789" x2="12.4374" y2="27.5789" gradientTransform="matrix(1 0 0 -1 0 51.7795)">
		<stop  offset="0" style="stop-color:#FFE000"/>
		<stop  offset="0.4087" style="stop-color:#FFBD00"/>
		<stop  offset="0.7754" style="stop-color:#FFA500"/>
		<stop  offset="1" style="stop-color:#FF9C00"/>
	</linearGradient>
	<path class="st29" d="M33,29.3l-4.9-4.9v-0.2V24l4.9-4.9l0.1,0.1l5.8,3.3c1.7,0.9,1.7,2.5,0,3.4l-5.8,3.3L33,29.3z"/>
	
		<linearGradient id="SVGID_51_" gradientUnits="userSpaceOnUse" x1="30.4368" y1="24.8598" x2="3.4684" y2="-2.1086" gradientTransform="matrix(1 0 0 -1 0 51.7795)">
		<stop  offset="0" style="stop-color:#FF3A44"/>
		<stop  offset="1" style="stop-color:#C31162"/>
	</linearGradient>
	<path class="st30" d="M33.2,29.2l-5-5L13.4,39c0.5,0.6,1.4,0.6,2.5,0.1L33.2,29.2"/>
	
		<linearGradient id="SVGID_52_" gradientUnits="userSpaceOnUse" x1="9.6643" y1="51.0718" x2="21.7069" y2="39.0292" gradientTransform="matrix(1 0 0 -1 0 51.7795)">
		<stop  offset="0" style="stop-color:#32A071"/>
		<stop  offset="6.850000e-02" style="stop-color:#2DA771"/>
		<stop  offset="0.4762" style="stop-color:#15CF74"/>
		<stop  offset="0.8009" style="stop-color:#06E775"/>
		<stop  offset="1" style="stop-color:#00F076"/>
	</linearGradient>
	<path class="st31" d="M33.2,19.2L15.8,9.4c-1-0.6-1.9-0.5-2.5,0.1l14.8,14.8L33.2,19.2z"/>
	<g>
		<path class="st32" d="M33,29.1l-17.2,9.8c-1,0.5-1.8,0.5-2.4,0l0,0L13.4,39l0,0l0.1,0.1l0,0c0.6,0.5,1.4,0.5,2.4,0l17.3-9.8
			L33,29.1z"/>
		<path class="st33" d="M13.4,38.8c-0.3-0.4-0.5-0.9-0.5-1.7v0.2c0,0.7,0.2,1.3,0.5,1.7V38.8L13.4,38.8z"/>
	</g>
	<path class="st33" d="M39,25.7L33,29.1l0.1,0.1l5.8-3.3c0.8-0.5,1.2-1.1,1.2-1.7l0,0C40.1,24.8,39.7,25.3,39,25.7z"/>
	<path class="st34" d="M15.8,9.5L39,22.7c0.8,0.4,1.2,1,1.2,1.5l0,0c0-0.6-0.4-1.2-1.2-1.7L15.8,9.4c-1.7-0.9-3-0.2-3,1.7v0.2
		C12.8,9.4,14.2,8.6,15.8,9.5z"/>
</g>
</svg>
