<?xml version="1.0" encoding="UTF-8"?>
<svg width="13px" height="14px" viewBox="0 0 13 14" version="1.1" xmlns="http://www.w3.org/2000/svg" xmlns:xlink="http://www.w3.org/1999/xlink">
    <title>person-particles_left</title>
    <g id="NEWWWW!----About-US,-Contact" stroke="none" stroke-width="1" fill="none" fill-rule="evenodd">
        <g id="About" transform="translate(-503.000000, -330.000000)" fill="#0076FF">
            <g id="Group" transform="translate(503.000000, 330.500000)">
                <g id="Brand-Elements/Decoration/Plus-Copy-2" transform="translate(6.417910, 6.412639) rotate(40.000000) translate(-6.417910, -6.412639) ">
                    <path d="M6.72041747,12.8180747 C4.10028716,12.9419247 1.66850447,11.4597763 0.579414323,9.07519186 C-0.509675823,6.69060743 -0.0367876118,3.88371757 1.77360326,1.98692715 C3.58399413,0.0901367272 6.36736961,-0.51463984 8.80248687,0.459679336 C11.2376041,1.43399851 12.8341579,3.79123649 12.8342787,6.41243403 C12.9101609,9.86609885 10.1762575,12.7304757 6.72041747,12.8180747 L6.72041747,12.8180747 Z M6.61935985,2.14233936 C4.8726635,2.05985973 3.2515695,3.04797255 2.52555539,4.63765467 C1.79954129,6.22733679 2.11477867,8.09853055 3.3216352,9.36304468 C4.52849174,10.6275588 6.38398572,11.0308031 8.007378,10.3813714 C9.63077028,9.73193972 10.6952162,8.16058495 10.6954599,6.41317513 C10.7467802,4.11015852 8.92383913,2.19975352 6.61935985,2.14150554 L6.61935985,2.14233936 Z" id="Path_531-Copy-5"></path>
                </g>
            </g>
        </g>
    </g>
</svg>