<?xml version="1.0" encoding="UTF-8"?>
<svg width="17px" height="18px" viewBox="0 0 17 18" version="1.1" xmlns="http://www.w3.org/2000/svg" xmlns:xlink="http://www.w3.org/1999/xlink">
    <title>workers-comp-intro_deco-green</title>
    <defs>
        <filter x="-33.3%" y="-42.9%" width="166.7%" height="185.7%" filterUnits="objectBoundingBox" id="filter-1">
            <feGaussianBlur stdDeviation="0" in="SourceGraphic"></feGaussianBlur>
        </filter>
    </defs>
    <g id="NEWWW-!!------workers-Comp,-Account-and-rate-disclosures-" stroke="none" stroke-width="1" fill="none" fill-rule="evenodd">
        <g id="Workers-Comp" transform="translate(-385.000000, -775.000000)" fill="#4CD964">
            <g id="Group" transform="translate(386.000000, 777.000000)">
                <g id="Brand-Elements/Decoration/Plus-Copy-26" filter="url(#filter-1)" transform="translate(7.500000, 7.000000) rotate(41.000000) translate(-7.500000, -7.000000) ">
                    <path d="M7.5,9.43870968 C8.0955513,9.43870968 8.58639541,9.85712743 8.65347747,10.3961784 L8.66129032,10.5225806 L8.66129032,14.316129 C8.66129032,14.9147344 8.14136294,15.4 7.5,15.4 C6.9044487,15.4 6.41360459,14.9815822 6.34652253,14.4425313 L6.33870968,14.316129 L6.33870968,10.5225806 C6.33870968,9.92397524 6.85863706,9.43870968 7.5,9.43870968 Z M3.59032258,5.83870968 C4.18892799,5.83870968 4.67419355,6.35863706 4.67419355,7 C4.67419355,7.5955513 4.25577579,8.08639541 3.71672483,8.15347747 L3.59032258,8.16129032 L-0.203225806,8.16129032 C-0.801831213,8.16129032 -1.28709677,7.64136294 -1.28709677,7 C-1.28709677,6.4044487 -0.86867902,5.91360459 -0.329628059,5.84652253 L-0.203225806,5.83870968 L3.59032258,5.83870968 Z M15.2032258,5.83870968 C15.8018312,5.83870968 16.2870968,6.35863706 16.2870968,7 C16.2870968,7.5955513 15.868679,8.08639541 15.3296281,8.15347747 L15.2032258,8.16129032 L11.4096774,8.16129032 C10.811072,8.16129032 10.3258065,7.64136294 10.3258065,7 C10.3258065,6.4044487 10.7442242,5.91360459 11.2832752,5.84652253 L11.4096774,5.83870968 L15.2032258,5.83870968 Z M7.5,-1.4 C8.0955513,-1.4 8.58639541,-0.981582245 8.65347747,-0.442531284 L8.66129032,-0.316129032 L8.66129032,3.47741935 C8.66129032,4.07602476 8.14136294,4.56129032 7.5,4.56129032 C6.9044487,4.56129032 6.41360459,4.14287257 6.34652253,3.60382161 L6.33870968,3.47741935 L6.33870968,-0.316129032 C6.33870968,-0.914734439 6.85863706,-1.4 7.5,-1.4 Z" id="Combined-Shape-Copy-2" transform="translate(7.500000, 7.000000) rotate(51.000000) translate(-7.500000, -7.000000) "></path>
                </g>
            </g>
        </g>
    </g>
</svg>