<?xml version="1.0" encoding="UTF-8"?>
<svg width="26px" height="27px" viewBox="0 0 26 27" version="1.1" xmlns="http://www.w3.org/2000/svg" xmlns:xlink="http://www.w3.org/1999/xlink">
    <title>Shield_icon</title>
    <g id="MENU" stroke="none" stroke-width="1" fill="none" fill-rule="evenodd">
        <g id="Shield_icon">
            <rect id="Rectangle" x="0" y="0" width="26" height="26"></rect>
            <path d="M22.5301814,7.74990165 C22.5042937,7.18011824 22.5042937,6.63623408 22.5042937,6.09234992 C22.5042937,5.6632419 22.1565795,5.31537254 21.7276629,5.31537254 C18.491701,5.31537254 16.0323699,4.38299969 13.987242,2.38875776 C13.6852358,2.0926363 13.2019651,2.0926363 12.8999588,2.38875776 C10.8548309,4.38299969 8.39549986,5.31537254 5.15953796,5.31537254 C4.73062132,5.31537254 4.3829071,5.6632419 4.3829071,6.09234992 C4.3829071,6.63623408 4.3829071,7.18011824 4.35701941,7.74990165 C4.25346863,13.1887433 4.09814246,20.6477261 13.1847235,23.7815348 L13.4436004,23.8333333 L13.7024774,23.7815348 C22.7631707,20.6477261 22.6337322,13.2146425 22.5301814,7.74990165 Z M12.8610167,15.2562892 C12.7141379,15.3922207 12.5200949,15.465936 12.3198103,15.461969 L12.2940385,15.461969 C12.0863042,15.452378 11.8912545,15.3596815 11.7528321,15.2048693 L9.35606061,12.5567421 L10.5157887,11.5283432 L12.3971255,13.610851 L16.5721467,9.65151515 L17.6287879,10.782754 L12.8610167,15.2562892 Z" id="Shape" fill="#0076FF" fill-rule="nonzero"></path>
            <path d="M16.7738346,20.9544704 C16.9646253,20.9694869 17.1315671,21.0896185 17.1872144,21.2623078 C17.2508113,21.4349971 17.195164,21.6227028 17.0361718,21.7503427 L15.215711,23.2369719 L15.7642341,25.4518993 C15.8119318,25.6245886 15.7403853,25.8122943 15.5813931,25.9174095 C15.501897,25.9699671 15.398552,26 15.3031567,26 C15.215711,26 15.1362149,25.9774753 15.0567188,25.9324259 L12.9977697,24.7611423 L10.9308392,25.9324259 C10.771847,26.0225247 10.5572075,26.0150165 10.4061649,25.9099013 C10.2551223,25.8047861 10.1835758,25.6170803 10.2233239,25.4443911 L10.771847,23.2294637 L8.95138622,21.7428344 C8.80829323,21.6227028 8.75264596,21.4349971 8.80829323,21.2623078 C8.8639405,21.0896185 9.03088232,20.9694869 9.22167297,20.9544704 L11.6224871,20.7592565 L12.5525915,18.6644382 C12.7036341,18.3340762 13.2839557,18.3340762 13.4349983,18.6644382 L14.3730523,20.7592565 L16.7738346,20.9544704 Z" id="Path" stroke="#FFFFFF" fill="#F5A623"></path>
        </g>
    </g>
</svg>