<?xml version="1.0" encoding="UTF-8"?>
<svg width="30px" height="30px" viewBox="0 0 30 30" version="1.1" xmlns="http://www.w3.org/2000/svg" xmlns:xlink="http://www.w3.org/1999/xlink">
    <title>Group</title>
    <g id="MENU" stroke="none" stroke-width="1" fill="none" fill-rule="evenodd">
        <g id="Menu-1" transform="translate(-474.000000, -105.000000)">
            <g id="Group-35-Copy-15" transform="translate(441.000000, 74.000000)">
                <g id="Group-5-Copy-2" transform="translate(16.000000, 16.000000)">
                    <g id="Group" transform="translate(17.000000, 15.000000)">
                        <rect id="Rectangle-Copy-3" x="0" y="0" width="30" height="30"></rect>
                        <path d="M23.05985,8.11501825 C24.5175741,8.11501825 25,9.30097227 25,10.7586964 L25,10.7586964 L25,18.1609953 C25,19.6187194 24.5175741,20.8046734 23.05985,20.8046734 L23.05985,20.8046734 L22.0023787,20.8046734 L22.0023787,24.5058228 C22.0182408,24.9806274 21.377942,25.2196159 21.0755052,24.8537309 L21.0755052,24.8537309 L17.5324477,20.8046734 L13.9885057,20.8046734 C13.612046,20.8046734 13.2503908,20.7258918 12.9209885,20.5810182 L12.9209885,20.5810182 L13.6506437,19.7472022 L19.2758621,19.7472022 C21.3167816,19.7472022 22.9770115,18.0869723 22.9770115,16.0460527 C22.9770115,16.0460527 22.9770016,16.041655 22.976982,16.0330666 L22.9762866,15.7421068 C22.9761911,15.7033063 22.9760863,15.6611435 22.9759725,15.6158253 L22.9751818,15.3077096 C22.9733868,14.6223778 22.9703237,13.5423225 22.9662267,12.4253698 L22.9640931,11.8654752 C22.9567013,9.99995478 22.9465463,8.19760172 22.9347126,8.11501825 L22.9347126,8.11501825 Z M19.2758621,6.00003765 C20.5009425,5.99320215 21.6229195,6.91796077 21.8661379,8.11501825 C21.9119166,8.0890979 21.9257129,9.29272153 21.9272936,10.7698317 L21.9270978,11.5721277 C21.9252316,12.9343584 21.9165706,14.3781578 21.9146939,15.2467594 L21.9148973,15.8064777 C21.9156192,15.9438446 21.917081,16.0278544 21.9195402,16.0460527 C21.9195402,17.5037769 20.7335862,18.6897309 19.2758621,18.6897309 L19.2758621,18.6897309 L13.1723309,18.6891689 C13.1641253,18.6979939 13.1406136,18.7244617 13.1057399,18.7640324 L12.9709766,18.9175134 C12.6490537,19.2849335 12.0600825,19.9606247 12.055977,19.9639838 L12.055977,19.9639838 L9.62749425,22.7393171 C9.48209195,22.9063976 9.24733333,22.9629723 9.04377011,22.8863056 C8.83756322,22.8085815 8.70114943,22.6113631 8.70114943,22.3908803 L8.70114943,22.3908803 L8.70114943,18.6897309 L7.64367816,18.6897309 C6.18595402,18.6897309 5,17.5037769 5,16.0460527 L5,16.0460527 L5,8.64375388 C5,7.18602974 6.18595402,6.00003765 7.64367816,6.00003765 L7.64367816,6.00003765 Z M14.1741017,15.145224 C14.1594048,14.2256134 12.784188,14.2221141 12.7708907,15.145224 C12.7764896,16.0592358 14.1699026,16.0620352 14.1741017,15.145224 Z M15.5598156,10.8439119 C15.5297218,8.1886596 11.3907756,8.1886596 11.3606818,10.8439119 C11.2690007,11.8265092 12.7261002,11.9328872 12.7603931,10.9460908 C12.7128029,10.4617907 13.1089212,10.1853477 13.5624276,10.2462352 C14.1769009,10.2273391 14.3861577,11.1217546 13.8297725,11.3786016 C13.8297725,11.3786016 13.8229489,11.3820099 13.8106664,11.3881448 L13.6823829,11.4522208 C13.5677465,11.5094802 13.4094392,11.5885527 13.2948029,11.645812 L13.1665193,11.709888 L13.1665193,11.709888 L13.1474133,11.7194313 C12.649116,11.9237891 12.7715908,12.6229449 12.7603931,13.0456577 C12.7603931,13.4326778 13.0739284,13.7455133 13.4602487,13.7455133 C13.9949384,13.7413142 14.2202919,13.2549145 14.1601044,12.7783128 C14.9684376,12.4605784 15.5738127,11.7362278 15.5598156,10.8439119 Z" id="Combined-Shape" fill="#0076FF" fill-rule="nonzero"></path>
                    </g>
                </g>
            </g>
        </g>
    </g>
</svg>