<?xml version="1.0" encoding="UTF-8"?>
<svg width="30px" height="30px" viewBox="0 0 30 30" version="1.1" xmlns="http://www.w3.org/2000/svg" xmlns:xlink="http://www.w3.org/1999/xlink">
    <title>Payroll_Icon</title>
    <g id="MENU" stroke="none" stroke-width="1" fill="none" fill-rule="evenodd">
        <g id="Menu-2" transform="translate(-225.000000, -107.000000)">
            <g id="Group-35-Copy-41" transform="translate(191.000000, 73.000000)">
                <g id="Group-20" transform="translate(16.000000, 16.000000)">
                    <g id="Payroll_Icon" transform="translate(18.000000, 18.000000)">
                        <rect id="Rectangle" x="0" y="0" width="30" height="30"></rect>
                        <g id="Icons/Glyph/Price" transform="translate(1.000000, 2.000000)" fill="#0076FF">
                            <path d="M14,2.25 C20.4433221,2.25 25.6666667,7.28679656 25.6666667,13.5 C25.6666667,19.7132034 20.4433221,24.75 14,24.75 C7.55667792,24.75 2.33333333,19.7132034 2.33333333,13.5 C2.33333333,7.28679656 7.55667792,2.25 14,2.25 Z M14.9568875,6.46875 L13.0431125,6.46875 L13.0431125,7.62912736 C11.276551,7.82724057 9.65720294,8.78950472 9.65720294,10.6857311 C9.65720294,13.1196934 12.2481598,13.5725236 14.1913775,14.0253538 C15.1041009,14.2517689 16.723449,14.478184 16.723449,15.6385613 C16.723449,16.9404481 15.2513144,17.3366745 14.1324921,17.3366745 C12.5425868,17.3366745 11.4237645,16.6857311 11.2176656,15.1008255 L11.2176656,15.1008255 L9.33333333,15.3838443 C9.71608833,17.4215802 10.9232387,18.5253538 13.0431125,18.7800708 L13.0431125,18.7800708 L13.0431125,19.96875 L14.9568875,19.96875 L14.9568875,18.8083726 C16.8412198,18.5819575 18.6666667,17.4498821 18.6666667,15.4404481 C18.6666667,12.978184 16.1345952,12.5819575 14.1324921,12.0725236 C13.278654,11.8461085 11.4826498,11.6196934 11.4826498,10.459316 C11.4826498,9.29893868 13.0136698,9.07252358 13.9263933,9.07252358 C15.192429,9.07252358 16.1640379,9.58195755 16.3701367,10.8838443 L16.3701367,10.8838443 L18.2250263,10.6291274 C17.9011567,8.76120283 16.8412198,7.94044811 14.9568875,7.65742925 L14.9568875,7.65742925 L14.9568875,6.46875 Z" id="Combined-Shape"></path>
                        </g>
                        <path d="M28.3399478,4.88689897 C28.5663807,4.9047207 28.7645094,5.04729454 28.8305523,5.25224442 C28.90603,5.45719431 28.8399871,5.67996593 28.651293,5.83145062 L26.4907461,7.59580182 L27.1417406,10.2245069 C27.1983488,10.4294568 27.1134365,10.6522284 26.9247425,10.7769805 C26.8303954,10.8393565 26.7077443,10.875 26.5945279,10.875 C26.4907461,10.875 26.3963991,10.8482674 26.3020521,10.7948022 L23.8584642,9.40470734 L21.4054038,10.7948022 C21.2167097,10.9017326 20.9619728,10.8928217 20.7827134,10.7680696 C20.6034541,10.6433175 20.5185418,10.4205459 20.5657153,10.215596 L21.2167097,7.58689095 L19.0561629,5.82253976 C18.8863382,5.67996593 18.8202953,5.45719431 18.8863382,5.25224442 C18.9523812,5.04729454 19.1505099,4.9047207 19.3769428,4.88689897 L22.2262606,4.65521649 L23.3301208,2.16905853 C23.5093802,1.77698049 24.1981135,1.77698049 24.3773728,2.16905853 L25.4906677,4.65521649 L28.3399478,4.88689897 Z" id="Path" stroke="#FFFFFF" fill="#F5A623"></path>
                    </g>
                </g>
            </g>
        </g>
    </g>
</svg>