<?xml version="1.0" encoding="UTF-8"?>
<svg width="30px" height="30px" viewBox="0 0 30 30" version="1.1" xmlns="http://www.w3.org/2000/svg" xmlns:xlink="http://www.w3.org/1999/xlink">
    <title>Pricing_Icon</title>
    <g id="MENU" stroke="none" stroke-width="1" fill="none" fill-rule="evenodd">
        <g id="Menu-2" transform="translate(-224.000000, -170.000000)">
            <g id="Group-35-Copy-41" transform="translate(191.000000, 73.000000)">
                <g id="Group-5" transform="translate(16.000000, 83.000000)">
                    <g id="Pricing_Icon" transform="translate(17.000000, 14.000000)">
                        <rect id="Rectangle-Copy-3" x="0" y="0" width="30" height="30"></rect>
                        <path d="M25.9798458,11.1909829 C25.9662247,11.1773618 25.9526036,11.1637408 25.9389826,11.1501197 C25.1807433,10.3918804 24.077437,9.69266572 22.824299,9.17052488 C22.5972812,9.07517742 22.3657231,8.98891068 22.134165,8.91172464 L22.134165,8.89810358 C22.1205439,7.8946851 21.3123607,7.0865019 20.3089423,7.07288083 L15.4053588,7.00023515 C14.756088,6.99115444 14.129519,7.24541432 13.6709431,7.70399019 L5.49376362,15.8902504 C4.83541213,16.5486019 4.83541213,17.6201257 5.49376362,18.2784772 L10.933109,23.7178226 C11.5914605,24.3761741 12.6629843,24.3761741 13.3213358,23.7178226 L21.507596,15.5315624 C21.7436945,15.2954639 21.9207683,15.0185022 22.0433579,14.7142984 C22.8651622,14.9458565 23.6642647,15.0684461 24.3680197,15.0639058 C26.1115161,15.0548251 26.6881412,14.2920454 26.8788361,13.8380099 C27.0649906,13.3839744 27.2012013,12.4350402 25.9798458,11.1909829 Z M15.8503136,15.8357661 C15.6596187,15.9401943 15.4643834,16.0537032 15.2691481,16.153591 C15.0829936,16.2489385 15.0194286,16.2262367 14.9513233,16.0264611 C14.8105723,15.6269098 14.5835545,15.2863832 14.27027,15.0048812 C14.1885436,14.9322355 14.1022769,14.8641302 13.9978487,14.823267 C13.6255396,14.6779756 13.298634,14.9186144 13.3440376,15.3181657 C13.3667393,15.5179413 13.4303043,15.7086362 13.5074903,15.8947908 C13.6391606,16.217156 13.7799116,16.5395212 13.8752591,16.8755075 C14.1840032,17.9470313 13.50295,19.0003936 12.4268858,19.1048218 C12.0364153,19.1411446 11.6641062,19.0594183 11.3235795,18.864183 C11.1737478,18.7779162 11.060239,18.786997 10.9467301,18.9141269 C10.8332212,19.0367165 10.7060913,19.1502254 10.588042,19.2682746 C10.4836139,19.3727028 10.370105,19.3772431 10.2656768,19.2728149 C10.1340065,19.1502254 10.0068766,19.0185551 9.87974663,18.8914251 C9.77077811,18.7779162 9.77985882,18.659867 9.88882734,18.5508985 C9.97509409,18.4646317 10.0613608,18.3738246 10.1476276,18.2875579 C10.3383225,18.0923226 10.3383225,18.0787016 10.1839504,17.8653049 C9.9841748,17.5928836 9.80710095,17.3068412 9.69813243,16.984476 C9.61186568,16.7347565 9.63456745,16.6711915 9.86158521,16.5440615 C10.0295783,16.4487141 10.1975715,16.3533666 10.370105,16.2625595 C10.5698806,16.1581314 10.6289052,16.1808331 10.6970105,16.3942298 C10.8105194,16.7574582 10.996674,17.0798234 11.2282321,17.3794869 C11.3780638,17.5747221 11.5642184,17.7200135 11.7912361,17.8108206 C12.2180295,17.9788137 12.6085,17.6791503 12.5630965,17.2251148 C12.5494754,17.0707427 12.5040719,16.920911 12.4450473,16.7756196 C12.2997559,16.4033105 12.1136013,16.0446225 12.0182539,15.6496116 C11.8593414,15.0139619 11.9319871,14.4327964 12.4450473,13.9787609 C13.0262127,13.4657008 13.6754835,13.4339183 14.3610771,13.7517432 C14.6425791,13.8834135 14.6425791,13.8879538 14.8605162,13.6700168 C14.9331618,13.5973711 15.0058075,13.5247254 15.0829936,13.4520797 C15.2509867,13.2931673 15.305471,13.2931673 15.4734641,13.4520797 C15.523408,13.5020236 15.5733519,13.5519675 15.6232958,13.6019114 C15.9683628,13.9469784 15.9683628,13.9469784 15.6232958,14.2965858 C15.3781166,14.5417649 15.3781166,14.5417649 15.5824326,14.823267 C15.741345,15.041204 15.8639346,15.2727621 15.9592821,15.5224816 C16.009226,15.6586923 15.9819839,15.7631205 15.8503136,15.8357661 Z M25.5621331,13.2931673 C25.407761,13.6609361 23.7596121,13.9833013 21.2578765,12.9390196 C20.5223389,12.6348158 19.8412857,12.253426 19.282822,11.844794 C19.2646606,11.8674958 19.2419588,11.8901976 19.2237974,11.9128994 C18.6789548,12.457742 17.7890452,12.457742 17.2442026,11.9128994 C16.69936,11.3680567 16.69936,10.4781471 17.2442026,9.93330453 C17.7890452,9.38846192 18.6789548,9.38846192 19.2237974,9.93330453 C19.550703,10.2602101 19.6778329,10.7051649 19.6188083,11.1274179 C20.1545702,11.5088077 20.7993006,11.8584151 21.4848942,12.1444575 C21.7300734,12.2443453 21.9616315,12.3351524 22.1886493,12.4123384 L22.1614071,10.4418243 C22.2022703,10.4599857 22.2385932,10.4736068 22.2794564,10.4917682 C23.3509802,10.936723 24.3135354,11.5451306 24.9355641,12.1671592 C24.9446448,12.1762399 24.9537255,12.1853207 24.9628062,12.1944014 C25.5530524,12.7891879 25.612077,13.1705777 25.5621331,13.2931673 Z" id="Shape" fill="#062A67" fill-rule="nonzero"></path>
                    </g>
                </g>
            </g>
        </g>
    </g>
</svg>