<?xml version="1.0" encoding="UTF-8"?>
<svg width="27px" height="27px" viewBox="0 0 27 27" version="1.1" xmlns="http://www.w3.org/2000/svg" xmlns:xlink="http://www.w3.org/1999/xlink">
    <title>Price_icon</title>
    <g id="MENU" stroke="none" stroke-width="1" fill="none" fill-rule="evenodd">
        <g id="Price_icon" transform="translate(0.000000, 1.000000)">
            <rect id="Rectangle-Copy-3" x="0" y="0" width="26" height="26"></rect>
            <g id="Icons/Glyph/Price" transform="translate(1.083333, 2.083333)" fill="#0076FF">
                <path d="M11.9166667,1.91517857 C17.4011611,1.91517857 21.8472222,6.20245184 21.8472222,11.4910714 C21.8472222,16.779691 17.4011611,21.0669643 11.9166667,21.0669643 C6.43217228,21.0669643 1.98611111,16.779691 1.98611111,11.4910714 C1.98611111,6.20245184 6.43217228,1.91517857 11.9166667,1.91517857 Z M12.7311602,5.50613839 L11.1021732,5.50613839 L11.1021732,6.49384055 C9.59849281,6.66247262 8.22011917,7.48154271 8.22011917,9.09559257 C8.22011917,11.1673581 10.425517,11.5528028 12.0795654,11.9382476 C12.8564669,12.1309699 14.2348405,12.3236923 14.2348405,13.3113945 C14.2348405,14.4195481 12.9817736,14.7568122 12.0294427,14.7568122 C10.6761304,14.7568122 9.72379951,14.2027354 9.54837014,12.8536788 L9.54837014,12.8536788 L7.94444444,13.0945818 C8.27024185,14.8290831 9.29775675,15.7686047 11.1021732,15.9854174 L11.1021732,15.9854174 L11.1021732,16.9972098 L12.7311602,16.9972098 L12.7311602,16.0095077 C14.3350859,15.8167853 15.8888889,14.8531734 15.8888889,13.1427624 C15.8888889,11.0469066 13.7336137,10.7096424 12.0294427,10.2760171 C11.3026639,10.0832947 9.77392219,9.89057236 9.77392219,8.9028702 C9.77392219,7.91516804 11.0771118,7.72244567 11.8540133,7.72244567 C12.9316509,7.72244567 13.7586751,8.15607101 13.9341045,9.26422465 L13.9341045,9.26422465 L15.5129688,9.04741198 C15.2372941,7.45745241 14.3350859,6.75883381 12.7311602,6.51793085 L12.7311602,6.51793085 L12.7311602,5.50613839 Z" id="Combined-Shape"></path>
            </g>
            <path d="M25.4981391,2.90034716 C25.7161855,2.91750883 25.9069762,3.05480215 25.970573,3.2521613 C26.0432552,3.44952045 25.9796583,3.66404126 25.7979529,3.80991542 L23.7174263,5.50892027 L24.3443099,8.04026589 C24.3988215,8.23762504 24.3170541,8.45214585 24.1353487,8.57227751 C24.044496,8.63234334 23.9263875,8.66666667 23.8173643,8.66666667 C23.7174263,8.66666667 23.6265736,8.64092417 23.5357209,8.58943917 L21.1826363,7.25082929 L18.82043,8.58943917 C18.6387246,8.69240916 18.3934223,8.68382833 18.2208022,8.56369668 C18.0481821,8.44356502 17.9664147,8.2290442 18.011841,8.03168505 L18.6387246,5.50033944 L16.558198,3.80133458 C16.3946632,3.66404126 16.3310663,3.44952045 16.3946632,3.2521613 C16.45826,3.05480215 16.6490507,2.91750883 16.8670972,2.90034716 L19.6108847,2.67724551 L20.6738612,0.283167476 C20.8464813,-0.0943891586 21.509706,-0.0943891586 21.6823261,0.283167476 L22.7543878,2.67724551 L25.4981391,2.90034716 Z" id="Path-Copy" stroke="#FFFFFF" fill="#F5A623"></path>
        </g>
    </g>
</svg>