<?xml version="1.0" encoding="UTF-8"?>
<svg width="30px" height="30px" viewBox="0 0 30 30" version="1.1" xmlns="http://www.w3.org/2000/svg" xmlns:xlink="http://www.w3.org/1999/xlink">
    <title>Blog_Icon</title>
    <g id="MENU" stroke="none" stroke-width="1" fill="none" fill-rule="evenodd">
        <g id="Menu-1" transform="translate(-474.000000, -165.000000)">
            <g id="Group-35-Copy-15" transform="translate(441.000000, 74.000000)">
                <g id="Group-5" transform="translate(16.000000, 76.000000)">
                    <g id="Blog_Icon" transform="translate(17.000000, 15.000000)">
                        <rect id="Rectangle-Copy-3" x="0" y="0" width="30" height="30"></rect>
                        <g id="blog" transform="translate(6.000000, 7.000000)" fill="#F5A623" fill-rule="nonzero">
                            <path d="M14.2119478,2.43244067 L10.0529488,6.59143967 L3.66948958,6.59143967 L3.66948958,7.76363775 L9.706569,7.76363775 L9.52834362,9.40138856 L5.91927977,9.40138856 L5.91927977,10.573434 L9.66674296,10.573434 L13.1631952,10.192874 L16.8415351,6.5145342 L16.8415351,12.2699321 C16.8415351,13.5582513 15.7935454,14.6062409 14.5053788,14.6062409 L14.5053788,14.6062409 L7.98016324,14.6062409 L2.96833752,17.9616998 L2.96833752,14.6062409 L2.33630885,14.6062409 C1.04798962,14.6062409 0,13.5582513 0,12.2699321 L0,12.2699321 L0,4.7685969 C0,3.48043029 1.04798962,2.43244067 2.33630885,2.43244067 L2.33630885,2.43244067 L14.2119478,2.43244067 Z M4.97184711,9.40138856 L3.66948958,9.40138856 L3.66948958,10.573434 L4.97184711,10.573434 L4.97184711,9.40138856 Z M11.4145113,6.88776986 L13.1125353,8.58579381 L12.6259251,9.07240405 L10.7208362,9.27977417 L10.9279011,7.3743801 L11.4145113,6.88776986 Z M16.0395209,2.26306555 L17.73785,3.96124208 L13.9414053,7.75753414 L12.2432288,6.05935757 L16.0395209,2.26306555 Z M18.3016708,0 L20,1.6984817 L18.5664149,3.13206681 L16.8680857,1.43358508 L18.3016708,0 Z" id="Combined-Shape"></path>
                        </g>
                    </g>
                </g>
            </g>
        </g>
    </g>
</svg>