<?xml version="1.0" encoding="UTF-8"?>
<svg width="26px" height="27px" viewBox="0 0 26 27" version="1.1" xmlns="http://www.w3.org/2000/svg" xmlns:xlink="http://www.w3.org/1999/xlink">
    <title>Book_Icon</title>
    <g id="MENU" stroke="none" stroke-width="1" fill="none" fill-rule="evenodd">
        <g id="Book_Icon">
            <rect id="Rectangle-Copy-5" x="0" y="0" width="26" height="26"></rect>
            <path d="M21.2858073,2.16666667 L7.0078125,2.16666667 C5.533125,2.16666667 4.33333333,3.36645833 4.33333333,4.84114583 L4.33333333,21.1588965 C4.33333333,22.6335417 5.53308268,23.8333333 7.00777018,23.8333333 L21.285765,23.8333333 C21.6363249,23.8333333 21.9205306,23.5490853 21.9205306,23.1985677 L21.9205306,19.1191406 L21.9205306,2.80143229 C21.9205306,2.4508724 21.6364095,2.16666667 21.2858073,2.16666667 Z M9.04752604,6.24605143 L17.2064225,6.24605143 C17.5569824,6.24605143 17.8411882,6.53025716 17.8411882,6.88081706 C17.8411882,7.23137695 17.5569824,7.51558268 17.2064225,7.51558268 L9.04752604,7.51558268 C8.69696615,7.51558268 8.41276042,7.23137695 8.41276042,6.88081706 C8.41276042,6.53025716 8.69692383,6.24605143 9.04752604,6.24605143 Z M7.00785482,22.5638021 C6.23314453,22.5638021 5.6029069,21.9335221 5.6029069,21.1588965 C5.6029069,21.1346908 5.60354167,21.1105697 5.60472656,21.0867025 C5.64243164,20.3453809 6.25739258,19.7539062 7.0078125,19.7539062 L20.6510417,19.7539062 L20.6510417,22.5638021 L7.00785482,22.5638021 Z" id="Shape" fill="#0076FF" fill-rule="nonzero"></path>
            <polyline id="Path-2" stroke="#FFFFFF" fill="#F5A623" points="7.76848824 19.7539062 7.76848824 26 9.70986434 25 11.9955895 26 11.9955895 19.7539062"></polyline>
        </g>
    </g>
</svg>