<?xml version="1.0" encoding="UTF-8"?>
<svg width="30px" height="30px" viewBox="0 0 30 30" version="1.1" xmlns="http://www.w3.org/2000/svg" xmlns:xlink="http://www.w3.org/1999/xlink">
    <title>Case_Studies_Icon</title>
    <g id="MENU" stroke="none" stroke-width="1" fill="none" fill-rule="evenodd">
        <g id="Menu-1" transform="translate(-474.000000, -225.000000)">
            <g id="Group-35-Copy-15" transform="translate(441.000000, 74.000000)">
                <g id="Group-5-Copy" transform="translate(16.000000, 136.000000)">
                    <g id="Case_Studies_Icon" transform="translate(17.000000, 15.000000)">
                        <rect id="Rectangle" x="0" y="0" width="30" height="30"></rect>
                        <path d="M23.0222714,20.0337828 L23.0222714,26 L8.93633155,26 L8.93633155,20.0337828 L15.3923873,21.2076111 L15.3923873,22.478515 L16.5662157,22.478515 L16.5662157,21.2076111 L23.0222714,20.0337828 Z M15.9793015,13.0879276 C17.1470259,13.0879276 18.2841345,13.5920422 18.5385006,13.7121759 L18.5894262,13.7367807 L18.9138723,13.8990038 L18.9138723,15.4355842 L23.0222714,15.4355842 L23.0222714,18.8407428 L15.9793015,20.1212721 L8.93633155,18.8407428 L8.93633155,15.4355842 L13.0447307,15.4355842 L13.0447307,13.8990038 L13.3691768,13.7367807 L13.3691768,13.7367807 L13.4201024,13.7121759 C13.6744685,13.5920422 14.8115771,13.0879276 15.9793015,13.0879276 Z M15.9793015,14.2617168 C15.3054849,14.2617168 14.611948,14.4907698 14.218559,14.6464194 L14.218559,14.6464194 L14.218559,15.4355451 L17.740044,15.4355451 L17.740044,14.6463803 C17.3469289,14.4908872 16.6532746,14.2617168 15.9793015,14.2617168 Z M9.16859305,8.34765665 L10.3925438,9.9946943 L12.3372252,10.6497688 L11.1489979,12.3227871 L11.12693,14.3746782 L9.16859305,13.7615876 L7.21029526,14.3746782 L7.18822728,12.3227871 L6,10.6497688 L7.94468138,9.9946943 L9.16859305,8.34765665 Z M22.9073536,8.34765665 L24.1313044,9.9946943 L26.0759858,10.6497688 L24.8877194,12.3227871 L24.8656514,14.3746782 L22.9073536,13.7615876 L20.9490559,14.3746782 L20.9269879,12.322748 L19.7387606,10.6497688 L21.683442,9.9946943 L22.9073536,8.34765665 Z M15.9793015,6 L17.2032132,7.64703765 L19.1478945,8.30211211 L17.9596673,9.97509136 L17.9376384,12.0270215 L15.9793015,11.413931 L14.0210037,12.0270215 L13.9989357,9.97513049 L12.8106693,8.30211211 L14.7553507,7.64703765 L15.9793015,6 Z" id="Combined-Shape" fill="#062A67" fill-rule="nonzero"></path>
                    </g>
                </g>
            </g>
        </g>
    </g>
</svg>