<?xml version="1.0" encoding="UTF-8"?>
<svg width="30px" height="30px" viewBox="0 0 30 30" version="1.1" xmlns="http://www.w3.org/2000/svg" xmlns:xlink="http://www.w3.org/1999/xlink">
    <title>Reviews_Icon</title>
    <g id="MENU" stroke="none" stroke-width="1" fill="none" fill-rule="evenodd">
        <g id="Menu-2" transform="translate(-224.000000, -230.000000)">
            <g id="Group-35-Copy-41" transform="translate(191.000000, 73.000000)">
                <g id="Group-5-Copy" transform="translate(16.000000, 142.000000)">
                    <g id="Reviews_Icon" transform="translate(17.000000, 15.000000)">
                        <rect id="Rectangle" x="0" y="0" width="30" height="30"></rect>
                        <g id="Icons/Glyph/Price-Copy" transform="translate(7.000000, 7.000000)" fill="#F5A623">
                            <path d="M1.5,9 C1.5,13.14 4.86,16.5 9,16.5 C13.14,16.5 16.5,13.14 16.5,9 C16.5,4.86 13.14,1.5 9,1.5 C4.86,1.5 1.5,4.86 1.5,9 Z M12.3591275,7.50892423 C12.5289522,7.52229053 12.6775487,7.6292209 12.7270809,7.78293332 C12.7836891,7.93664573 12.734157,8.10372444 12.5926364,8.21733797 L10.9722263,9.54060136 L11.4604721,11.5121302 C11.5029283,11.6658426 11.439244,11.8329213 11.2977235,11.9264854 C11.2269632,11.9732674 11.1349749,12 11.0500626,12 C10.9722263,12 10.901466,11.9799506 10.8307057,11.9398517 L8.99801479,10.8972805 L7.15821951,11.9398517 C7.01669897,12.0200494 6.82564625,12.0133663 6.69120174,11.9198022 C6.55675723,11.8262381 6.49307299,11.6591594 6.52845312,11.505447 L7.01669897,9.53391822 L5.39628883,8.21065482 C5.26892035,8.10372444 5.21938816,7.93664573 5.26892035,7.78293332 C5.31845254,7.6292209 5.4670491,7.52229053 5.63687374,7.50892423 L7.77386215,7.33516237 L8.60175729,5.4705439 C8.7362018,5.17648537 9.25275176,5.17648537 9.38719627,5.4705439 L10.2221674,7.33516237 L12.3591275,7.50892423 Z" id="Clock"></path>
                        </g>
                    </g>
                </g>
            </g>
        </g>
    </g>
</svg>