<?xml version="1.0" encoding="UTF-8"?>
<svg width="26px" height="26px" viewBox="0 0 26 26" version="1.1" xmlns="http://www.w3.org/2000/svg" xmlns:xlink="http://www.w3.org/1999/xlink">
    <title>Brief Icon</title>
    <g id="MENU" stroke="none" stroke-width="1" fill="none" fill-rule="evenodd">
        <g id="Brief-Icon">
            <rect id="Rectangle-Copy-4" x="0" y="0" width="26" height="26"></rect>
            <path d="M23.5833333,12.2504861 L23.5833333,18.7942708 C23.5833333,20.0978819 22.5284375,21.1527778 21.2248264,21.1527778 L21.2248264,21.1527778 L5.35850694,21.1527778 C4.05489583,21.1527778 3,20.0978819 3,18.7942708 L3,18.7942708 L3,12.2504861 L12.6312847,15.4580556 C12.8371181,15.5352431 13.0601042,15.578125 13.2916667,15.578125 C13.5232292,15.578125 13.7462153,15.5352431 13.9005903,15.4752083 L13.9005903,15.4752083 L23.5833333,12.2504861 Z M15.0069444,4 C15.9529201,4 16.7222222,4.76930208 16.7222222,5.71527778 L16.722,6.572 L21.2248264,6.57291667 C22.5284375,6.57291667 23.5833333,7.6278125 23.5833333,8.93142361 L23.5833333,10.5126953 L13.4975,13.8746398 C13.4288889,13.9003689 13.3602778,13.9089453 13.2916667,13.9089453 C13.2230556,13.9089453 13.1544444,13.9003689 13.0858333,13.8746398 L3,10.5126953 L3,8.93142361 C3,7.6278125 4.05489583,6.57291667 5.35850694,6.57291667 L9.861,6.572 L9.86111111,5.71527778 C9.86111111,4.76930208 10.6304132,4 11.5763889,4 L15.0069444,4 Z M15.0069444,5.71527778 L11.5763889,5.71527778 L11.576,6.572 L15.006,6.572 L15.0069444,5.71527778 Z" id="Combined-Shape" fill="#0076FF" fill-rule="nonzero"></path>
            <rect id="Rectangle" stroke="#FFFFFF" fill="#F5A623" x="9.5" y="13.5" width="6.58333333" height="3.33333333" rx="1"></rect>
        </g>
    </g>
</svg>