<?xml version="1.0" encoding="UTF-8"?>
<svg width="33px" height="33px" viewBox="0 0 33 33" version="1.1" xmlns="http://www.w3.org/2000/svg" xmlns:xlink="http://www.w3.org/1999/xlink">
    <title>Check_Banner_Icon</title>
    <g id="Serie-A-Banner" stroke="none" stroke-width="1" fill="none" fill-rule="evenodd">
        <g id="Investment-banner" transform="translate(-365.000000, -11.000000)" fill-rule="nonzero">
            <g id="Check_Banner_Icon" transform="translate(365.000000, 11.000000)">
                <g id="Group" transform="translate(3.434378, 3.568675)">
                    <path d="M14.7852473,0.812572613 C15.4450516,1.52948778 16.4593171,1.80124775 17.3892054,1.51027894 C18.7944803,1.07053831 20.2754948,1.92558953 20.5973395,3.36244945 C20.8102483,4.31322258 21.5527537,5.05572805 22.5035913,5.26870123 C23.9404512,5.59048153 24.7955025,7.07156046 24.3557618,8.47683537 C24.064793,9.40672372 24.336553,10.4209892 25.0534682,11.0807935 C26.1369628,12.0779128 26.1369628,13.7880797 25.0534682,14.785199 C24.336553,15.4450033 24.064793,16.4592687 24.3557618,17.3891571 C24.7955025,18.794432 23.9404512,20.2754464 22.5035913,20.5972912 C21.5528182,20.8101999 20.8103127,21.5527054 20.5973395,22.503543 C20.2755592,23.9404029 18.7944803,24.7954541 17.3892054,24.3557135 C16.4593171,24.0647447 15.4450516,24.3365046 14.7852473,25.0534198 C13.788128,26.1369144 12.0779611,26.1369144 11.0808418,25.0534198 C10.4210375,24.3365046 9.40677206,24.0647447 8.47688371,24.3557135 C7.0716088,24.7954541 5.59059433,23.9404029 5.26874957,22.503543 C5.05584085,21.5527698 4.31333538,20.8102644 3.3624978,20.5972912 C1.92563788,20.2755109 1.0705222,18.794432 1.51032729,17.3891571 C1.80129609,16.4592687 1.52953613,15.4450033 0.812620958,14.785199 C-0.270873653,13.7880797 -0.270873653,12.0779128 0.812620958,11.0807935 C1.52953613,10.4209892 1.80129609,9.40672372 1.51032729,8.47683537 C1.07058666,7.07156046 1.92563788,5.59054599 3.3624978,5.26870123 C4.31327092,5.05579251 5.05577639,4.31328704 5.26874957,3.36244945 C5.59052987,1.92558953 7.0716088,1.07047385 8.47688371,1.51027894 C9.40677206,1.80124775 10.4210375,1.52948778 11.0808418,0.812572613 C12.0779611,-0.270857538 13.788128,-0.270857538 14.7852473,0.812572613 Z" id="Path" fill="#0076FF"></path>
                    <path d="M25.0534682,11.0807935 C24.336553,10.4209892 24.0647286,9.40672372 24.3557618,8.47683537 C24.7955025,7.07156046 23.9404512,5.59054599 22.5035913,5.26870123 C21.5528182,5.05579251 20.8103127,4.31328704 20.5973395,3.36244945 C20.2898047,1.9894686 18.9239144,1.1485984 17.576975,1.46012969 C18.4847539,1.67162031 19.2453079,2.38112267 19.4650493,3.36244945 C19.6780225,4.31322258 20.420528,5.05572805 21.3713011,5.26870123 C22.808161,5.59048153 23.6632767,7.07156046 23.2234716,8.47683537 C22.9325028,9.40672372 23.2042628,10.4209892 23.9211779,11.0807935 C25.0046725,12.0779128 25.0046725,13.7880797 23.9211779,14.785199 C23.2042628,15.4450033 22.9325028,16.4592687 23.2234716,17.3891571 C23.6632122,18.794432 22.808161,20.2754464 21.3713011,20.5972912 C20.420528,20.8101999 19.6780225,21.5527054 19.4650493,22.503543 C19.2452435,23.4848698 18.4846894,24.1944366 17.576975,24.4058627 C18.9239144,24.717394 20.2898047,23.8765238 20.5973395,22.503543 C20.8102483,21.5527698 21.5527537,20.8102644 22.5035913,20.5972912 C23.9404512,20.2755109 24.7955669,18.794432 24.3557618,17.3891571 C24.064793,16.4592687 24.336553,15.4450033 25.0534682,14.785199 C26.1368983,13.7880797 26.1368983,12.0779128 25.0534682,11.0807935 L25.0534682,11.0807935 Z" id="Path" fill="#0961C8"></path>
                    <path d="M11.3848958,13.4484442 L9.32336186,11.3869102 C8.92726011,10.9908084 8.28505315,10.9908084 7.88901585,11.3869102 L6.54297894,12.7329471 C6.14687719,13.1290489 6.14687719,13.7712558 6.54297894,14.1672931 L9.99148142,17.6157956 C10.706205,18.3305191 11.8649235,18.3305191 12.579647,17.6157956 L19.3230457,10.8723969 C19.7191475,10.4762951 19.7191475,9.83408818 19.3230457,9.43805088 L18.0763404,8.19134559 C17.6802387,7.79524384 17.0380317,7.79524384 16.6419944,8.19134559 L11.3848958,13.4484442 Z" id="Path" fill="#FFFFFF"></path>
                    <path d="M19.3231102,9.43798643 L18.0764049,8.19128113 C17.6803031,7.79517938 17.0380962,7.79517938 16.6420589,8.19128113 L16.3357488,8.49759123 C16.6298116,8.4665219 16.9347681,8.56321069 17.1601819,8.78856004 L17.8041292,9.43798643 C18.200231,9.83408818 18.200231,10.4762951 17.8041292,10.8723324 L11.6678717,17.0270253 C11.1803668,17.5145302 10.4862702,17.6692323 9.86746193,17.4916472 L9.99161034,17.6157956 C10.7063339,18.3305191 11.8650524,18.3305191 12.5797759,17.6157956 L19.3231746,10.8723969 C19.7192119,10.4762951 19.7192119,9.83408818 19.3231102,9.43798643 Z" id="Path" fill="#ECECEC"></path>
                </g>
                <g id="Check-_Banner_Icon">
                    <path d="M28.2075778,5.01069181 C28.331275,5.01069181 28.4550366,4.96350768 28.5494049,4.86907496 L32.5930591,0.825420733 C32.7818601,0.636619751 32.7818601,0.330503034 32.5930591,0.14176651 C32.4042581,-0.0470344719 32.0981414,-0.0470344719 31.9094049,0.14176651 L27.8657507,4.18542074 C27.6769497,4.37422172 27.6769497,4.68033844 27.8657507,4.86907496 C27.9601189,4.96344322 28.0838161,5.01069181 28.2075778,5.01069181 Z" id="Path" fill="#FFFFFF" opacity="0.502402"></path>
                    <path d="M32.7175943,6.7684296 C32.6473982,6.51085066 32.3816974,6.35898479 32.1239895,6.42930978 L30.1021624,6.98088711 C29.8445835,7.05114763 29.6927176,7.31691289 29.7630426,7.57449184 C29.8217005,7.78946325 30.0165606,7.93082227 30.229147,7.93082227 C30.2712389,7.93082227 30.3141043,7.92527878 30.3567118,7.91361166 L32.3785389,7.36203433 C32.6360534,7.29183827 32.7879193,7.02600855 32.7175943,6.7684296 L32.7175943,6.7684296 Z" id="Path" fill="#0076FF"></path>
                    <path d="M25.1171461,2.97178301 C25.1597537,2.98345013 25.2025546,2.98899362 25.2447109,2.98899362 C25.4572973,2.98899362 25.6521574,2.8476346 25.7108153,2.63266319 L26.2623926,0.610836073 C26.3326532,0.35325713 26.1808518,0.087427409 25.9232728,0.0172313456 C25.6656939,-0.0532225547 25.3999286,0.0987722273 25.3296681,0.356351171 L24.7780908,2.37817828 C24.7077013,2.63575723 24.8595027,2.90152249 25.1171461,2.97178301 L25.1171461,2.97178301 Z" id="Path" fill="#0076FF"></path>
                    <path d="M4.18544062,4.86907496 C4.27980888,4.96344322 4.40357054,5.01069181 4.52726773,5.01069181 C4.65096493,5.01069181 4.77472658,4.96350768 4.86909485,4.86907496 C5.05789583,4.68027398 5.05789583,4.37415726 4.86909485,4.18542074 L0.825440619,0.14176651 C0.636639637,-0.0470344719 0.330522919,-0.0470344719 0.141786396,0.14176651 C-0.0470145862,0.330567493 -0.0470145862,0.63668421 0.141786396,0.825420733 L4.18544062,4.86907496 Z" id="Path" fill="#FFFFFF" opacity="0.502402"></path>
                    <path d="M2.63268307,6.98088711 L0.610855959,6.42930978 C0.353277015,6.35892034 0.0874472948,6.51085066 0.0172512313,6.7684296 C-0.0530092913,7.02600855 0.0987921131,7.29183827 0.356371057,7.36203433 L2.37819817,7.91361166 C2.4208057,7.92527878 2.4636066,7.93082227 2.50576292,7.93082227 C2.71834934,7.93082227 2.91320949,7.78946325 2.97186736,7.57449184 C3.04206342,7.31691289 2.89026202,7.05114763 2.63268307,6.98088711 L2.63268307,6.98088711 Z" id="Path" fill="#0076FF"></path>
                    <path d="M7.02409466,2.63266319 C7.08275252,2.8476346 7.27761267,2.98899362 7.49019909,2.98899362 C7.53229095,2.98899362 7.57515631,2.98345013 7.61776384,2.97178301 C7.87534279,2.90152249 8.02720865,2.63575723 7.95688367,2.37817828 L7.40530633,0.356351171 C7.33504581,0.0988366865 7.06953839,-0.0531580955 6.81170161,0.0172313456 C6.55412266,0.0874918682 6.4022568,0.35325713 6.47258178,0.610836073 L7.02409466,2.63266319 Z" id="Path" fill="#0076FF"></path>
                    <path d="M28.5494049,28.1343322 C28.3606039,27.9455313 28.0544872,27.9455313 27.8657507,28.1343322 C27.6769497,28.3231332 27.6769497,28.6292499 27.8657507,28.8179865 L31.9094049,32.8616407 C32.0037731,32.956009 32.1275348,33.0032575 32.251232,33.0032575 C32.3749292,33.0032575 32.4986908,32.9560734 32.5930591,32.8616407 C32.7818601,32.6728397 32.7818601,32.366723 32.5930591,32.1779865 L28.5494049,28.1343322 Z" id="Path" fill="#FFFFFF" opacity="0.502402"></path>
                    <path d="M32.3784744,25.6413084 L30.3566473,25.0897311 C30.0989395,25.0194061 29.8333031,25.171272 29.7630426,25.4288509 C29.6927821,25.6864298 29.8445835,25.9522596 30.1021624,26.0224556 L32.1239895,26.574033 C32.1665971,26.5857001 32.209398,26.5912436 32.2515543,26.5912436 C32.4641407,26.5912436 32.6590009,26.4498846 32.7176587,26.2349131 C32.7879193,25.9773342 32.6360534,25.7115689 32.3784744,25.6413084 Z" id="Path" fill="#0076FF"></path>
                    <path d="M25.7107509,30.3706796 C25.6404903,30.1131651 25.3747251,29.9611703 25.1171461,30.0315597 C24.8595672,30.1018203 24.7077013,30.3675855 24.7780263,30.6251645 L25.3296036,32.6469916 C25.3882615,32.861963 25.5831216,33.003322 25.7957081,33.003322 C25.8377999,33.003322 25.8806008,32.9977785 25.9232728,32.9861114 C26.1808518,32.9158509 26.3327176,32.6500856 26.2623926,32.3925067 L25.7107509,30.3706796 Z" id="Path" fill="#0076FF"></path>
                    <path d="M4.18544062,28.1343322 L0.141786396,32.1779865 C-0.0470145862,32.3667874 -0.0470145862,32.6729042 0.141786396,32.8616407 C0.236154658,32.956009 0.359916312,33.0032575 0.483613508,33.0032575 C0.607310703,33.0032575 0.731072358,32.9560734 0.825440619,32.8616407 L4.86909485,28.8179865 C5.05789583,28.6291855 5.05789583,28.3230688 4.86909485,28.1343322 C4.68029386,27.9455313 4.37417715,27.9455313 4.18544062,28.1343322 L4.18544062,28.1343322 Z" id="Path" fill="#FFFFFF" opacity="0.502402"></path>
                    <path d="M2.37813371,25.0897311 L0.356306597,25.6413084 C0.0987276539,25.7115689 -0.0531382097,25.9773342 0.0171867721,26.2349131 C0.0758446397,26.4498846 0.270704786,26.5912436 0.483291212,26.5912436 C0.525383066,26.5912436 0.568248431,26.5857001 0.610855959,26.574033 L2.63268307,26.0224556 C2.89026202,25.9521951 3.04212788,25.6864298 2.9718029,25.4288509 C2.90160683,25.171272 2.63584157,25.0192772 2.37813371,25.0897311 Z" id="Path" fill="#0076FF"></path>
                    <path d="M7.61769938,30.0315597 C7.36012044,29.9612347 7.09435518,30.1131006 7.02409466,30.3706796 L6.47251732,32.3925067 C6.4022568,32.6500856 6.5540582,32.9159153 6.81163715,32.9861114 C6.85424468,32.9977785 6.89704558,33.003322 6.9392019,33.003322 C7.15178832,33.003322 7.34664847,32.861963 7.40530633,32.6469916 L7.95688367,30.6251645 C8.02714419,30.36765 7.87527833,30.1018203 7.61769938,30.0315597 L7.61769938,30.0315597 Z" id="Path" fill="#0076FF"></path>
                </g>
            </g>
        </g>
    </g>
</svg>