<?xml version="1.0" encoding="UTF-8"?>
<svg width="14px" height="14px" viewBox="0 0 14 14" version="1.1" xmlns="http://www.w3.org/2000/svg" xmlns:xlink="http://www.w3.org/1999/xlink">
    <title>Brand Elements/Decoration/Plus Copy@1x</title>
    <g id="RS" stroke="none" stroke-width="1" fill="none" fill-rule="evenodd">
        <g id="Memorial-1" transform="translate(-166, -751)" fill="#ECECEC">
            <g id="Brand-Elements/Decoration/Plus-Copy" transform="translate(173.153, 757.8367) rotate(-115) translate(-173.153, -757.8367)translate(168.8812, 753.5649)">
                <path d="M0.0882812237,3.72284392 C1.50959236,2.32006339 3.17794358,2.29143522 4.80159011,3.59779311 L4.90300717,3.68117839 C5.95888586,4.56796884 6.64534597,4.56796884 7.32760539,3.77041626 C7.60447678,3.44675713 8.09130296,3.40882817 8.41496209,3.68569956 C8.73862122,3.96257095 8.77655018,4.44939713 8.49967879,4.77305626 C7.25265404,6.23081232 5.64181732,6.25996744 4.0109088,4.94451159 L3.91103509,4.86229413 C2.84571588,3.96757495 2.03607574,3.96757495 1.17175333,4.8206286 C0.868608462,5.11982116 0.380317499,5.11661718 0.0811249383,4.81347231 C-0.218067622,4.51032744 -0.214863644,4.02203648 0.0882812237,3.72284392 Z" id="Path-5" transform="translate(4.2718, 4.2718) rotate(45) translate(-4.2718, -4.2718)"></path>
            </g>
        </g>
    </g>
</svg>