<?xml version="1.0" encoding="UTF-8"?>
<svg width="89px" height="89px" viewBox="0 0 89 89" version="1.1" xmlns="http://www.w3.org/2000/svg" xmlns:xlink="http://www.w3.org/1999/xlink">
    <title>Group 5@1x</title>
    <g id="Referral-Program-" stroke="none" stroke-width="1" fill="none" fill-rule="evenodd">
        <g id="Desktop" transform="translate(-117, -2291)">
            <g id="Group-5" transform="translate(117, 2291)">
                <circle id="Oval-Copy-2" fill="#F7F7F7" cx="44.5" cy="44.5" r="44.5"></circle>
                <g id="Icons/Icon/Pay-Copy-7" transform="translate(20.6667, 21.6667)">
                    <path d="M46.6666667,37.3333333 C46.6666667,42.4882051 42.4882051,46.6666667 37.3333333,46.6666667 C32.1784615,46.6666667 28,42.4882051 28,37.3333333 C28,32.1784615 32.1784615,28 37.3333333,28 C42.4882051,28 46.6666667,32.1784615 46.6666667,37.3333333" id="Fill-3" fill="#F5A623"></path>
                    <path d="M8.97435897,4.66666667 C8.97435897,7.24410256 6.96548323,9.33333333 4.48717949,9.33333333 C2.00887574,9.33333333 3.55271368e-15,7.24410256 3.55271368e-15,4.66666667 C3.55271368e-15,2.08923077 2.00887574,3.55271368e-15 4.48717949,3.55271368e-15 C6.96548323,3.55271368e-15 8.97435897,2.08923077 8.97435897,4.66666667" id="Fill-3-Copy" fill="#F5A623"></path>
                    <path d="M25.3964744,4.375 C26.2501769,4.375 27.0754197,4.74952269 27.6734809,5.40462121 L31.276,9.352 L34.7298077,9.35277778 C35.4267498,9.35277778 36.1066642,9.60250769 36.6650558,10.0591018 L36.8465422,10.2189026 L37.0067778,10.3823591 L42.2529316,16.1288406 C42.8371551,16.7687817 43.1666667,17.6349385 43.1666667,18.5247222 L43.1666667,39.7412037 C43.1666667,41.6197714 41.7415084,43.1666667 39.9759615,43.1666667 L16.8990385,43.1666667 C15.1335272,43.1666667 13.7083333,41.6198088 13.7083334,39.7416117 L13.7071667,38.1861667 L7.56570513,38.1888889 C5.93985465,38.1888889 4.59229238,36.8733272 4.39847381,35.1741679 L4.38080957,34.9684872 L4.375,34.7634259 L4.375,7.80046296 C4.375,5.92189531 5.80015829,4.375 7.56570513,4.375 L25.3964744,4.375 Z M34.6558333,12.8321667 L17.0123333,12.8321667 L17.0123333,39.6853333 L39.8615,39.6853333 L39.8615,18.5383333 L34.6558333,12.8321667 Z M36.1298077,32.1027778 C37.0484382,32.1027778 37.7820513,32.8907585 37.7820513,33.8430556 C37.7820513,34.7953526 37.0484382,35.5833333 36.1298077,35.5833333 L20.7451923,35.5833333 C19.8265618,35.5833333 19.0929487,34.7953526 19.0929487,33.8430556 C19.0929487,32.8907585 19.8265618,32.1027778 20.7451923,32.1027778 L36.1298077,32.1027778 Z M25.3236667,7.85516667 L7.679,7.85516667 L7.679,34.7083333 L13.7071667,34.7071667 L13.7083333,12.7782407 C13.7083333,11.049666 14.9188775,9.59009734 16.5123884,9.37851034 L16.705395,9.35917287 L16.898987,9.35277778 L26.6886667,9.352 L25.3236667,7.85516667 Z M36.1298077,24.5194444 C37.0484382,24.5194444 37.7820513,25.3074252 37.7820513,26.2597222 C37.7820513,27.2120193 37.0484382,28 36.1298077,28 L20.7451923,28 C19.8265618,28 19.0929487,27.2120193 19.0929487,26.2597222 C19.0929487,25.3074252 19.8265618,24.5194444 20.7451923,24.5194444 L36.1298077,24.5194444 Z M31.5144231,16.9361111 C32.4330536,16.9361111 33.1666667,17.7240918 33.1666667,18.6763889 C33.1666667,19.6286859 32.4330536,20.4166667 31.5144231,20.4166667 L20.7451923,20.4166667 C19.8265618,20.4166667 19.0929487,19.6286859 19.0929487,18.6763889 C19.0929487,17.7240918 19.8265618,16.9361111 20.7451923,16.9361111 L31.5144231,16.9361111 Z" id="Combined-Shape" fill="#353535" fill-rule="nonzero"></path>
                </g>
            </g>
        </g>
    </g>
</svg>